<?xml version="1.0" standalone="no"?>
<!DOCTYPE svg PUBLIC "-//W3C//DTD SVG 20010904//EN"
 "http://www.w3.org/TR/2001/REC-SVG-20010904/DTD/svg10.dtd">
<svg version="1.0" xmlns="http://www.w3.org/2000/svg"
 width="376.000000pt" height="376.000000pt" viewBox="0 0 376.000000 376.000000"
 preserveAspectRatio="xMidYMid meet">
<metadata>
Created by potrace 1.14, written by Peter Selinger 2001-2017
</metadata>
<g transform="translate(0.000000,376.000000) scale(0.100000,-0.100000)"
fill="#000000" stroke="none">
<path d="M1787 3755 c-1 -2 -38 -5 -82 -9 -44 -3 -98 -9 -120 -12 -100 -14
-359 -86 -379 -105 -6 -5 -16 -9 -23 -9 -21 0 -204 -91 -288 -143 -123 -77
-240 -171 -350 -282 -278 -280 -445 -609 -519 -1020 -35 -191 -25 -488 23
-705 76 -348 271 -696 522 -936 190 -180 307 -257 604 -395 11 -5 67 -24 125
-43 313 -102 652 -120 975 -50 39 8 80 17 92 20 55 11 238 80 328 124 540 262
929 773 1030 1355 72 412 15 807 -169 1175 -52 104 -60 117 -115 200 -275 408
-706 701 -1171 794 -109 22 -128 25 -205 32 -67 6 -273 13 -278 9z"/>
</g>
</svg>
