<svg width="20" height="20" viewBox="0 0 20 20" fill="none" xmlns="http://www.w3.org/2000/svg">
<path d="M14.7839 6.378C14.6302 6.378 14.4861 6.35398 14.3516 6.30593C14.2171 6.25864 14.0922 6.17779 13.9769 6.06339L12.3343 4.43314C12.1037 4.20433 11.9885 3.93243 11.9885 3.61744C11.9885 3.30321 12.1037 3.04123 12.3343 2.83149C12.5456 2.60268 12.8146 2.48828 13.1412 2.48828C13.4678 2.48828 13.7368 2.59315 13.9481 2.80289L14.7839 3.63231L18.0403 0.371812C18.2709 0.143005 18.5399 0.028601 18.8473 0.028601C19.1547 0.028601 19.4332 0.143005 19.683 0.371812C19.8943 0.600619 20 0.877094 20 1.20124C20 1.52538 19.8943 1.79232 19.683 2.00206L15.5908 6.06339C15.4755 6.17779 15.3506 6.25864 15.2161 6.30593C15.0817 6.35398 14.9376 6.378 14.7839 6.378ZM1.61383 19.9062C1.22959 20.0588 0.864553 20.0252 0.518732 19.8056C0.17291 19.5867 0 19.2675 0 18.848V2.28807C0 1.65885 0.225936 1.12001 0.67781 0.671549C1.12891 0.22385 1.67147 0 2.30548 0H10.3746C9.99039 0.572018 9.70221 1.12039 9.51009 1.64512C9.31796 2.16909 9.2219 2.76475 9.2219 3.43211C9.2219 4.80495 9.65879 6.01572 10.5326 7.06442C11.4071 8.11312 12.5072 8.77094 13.8329 9.03788C14.2747 9.09509 14.659 9.12369 14.9856 9.12369C15.3122 9.12369 15.6964 9.09509 16.1383 9.03788V18.848C16.1383 19.2675 15.9654 19.5867 15.6196 19.8056C15.2738 20.0252 14.9087 20.0588 14.5245 19.9062L8.06916 17.1605L1.61383 19.9062Z" fill="#EF5DE9"/>
</svg>
