<svg width="46" height="46" viewBox="0 0 46 46" fill="none" xmlns="http://www.w3.org/2000/svg">
<path d="M46 23C46 35.7025 35.7025 46 23 46C10.2975 46 0 35.7025 0 23C0 10.2975 10.2975 0 23 0C35.7025 0 46 10.2975 46 23Z" fill="#1CB20F"/>
<path d="M35.2727 12.6765C33.7591 12.2029 32.0955 12 30.5 12C27.8409 12 24.9773 12.5412 23 14.0294C21.0227 12.5412 18.1591 12 15.5 12C12.8409 12 9.97727 12.5412 8 14.0294V33.85C8 34.1882 8.34091 34.5265 8.68182 34.5265C8.81818 34.5265 8.88636 34.4588 9.02273 34.4588C10.8636 33.5794 13.5227 32.9706 15.5 32.9706C18.1591 32.9706 21.0227 33.5118 23 35C24.8409 33.85 28.1818 32.9706 30.5 32.9706C32.75 32.9706 35.0682 33.3765 36.9773 34.3912C37.1136 34.4588 37.1818 34.4588 37.3182 34.4588C37.6591 34.4588 38 34.1206 38 33.7824V14.0294C37.1818 13.4206 36.2955 13.0147 35.2727 12.6765ZM35.2727 30.9412C33.7727 30.4676 32.1364 30.2647 30.5 30.2647C28.1818 30.2647 24.8409 31.1441 23 32.2941V16.7353C24.8409 15.5853 28.1818 14.7059 30.5 14.7059C32.1364 14.7059 33.7727 14.9088 35.2727 15.3824V30.9412Z" fill="white"/>
<path d="M30.7857 21.11C31.9171 21.11 33.01 21.2366 34 21.4757V19.3376C32.9843 19.1266 31.8914 19 30.7857 19C28.6 19 26.62 19.4079 25 20.1675V22.5026C26.4529 21.6023 28.4714 21.11 30.7857 21.11ZM25 23.9092V26.2442C26.4529 25.344 28.4714 24.8517 30.7857 24.8517C31.9171 24.8517 33.01 24.9783 34 25.2174V23.0793C32.9843 22.8683 31.8914 22.7417 30.7857 22.7417C28.6 22.7417 26.62 23.1637 25 23.9092ZM30.7857 26.4974C28.6 26.4974 26.62 26.9054 25 27.665V30C26.4529 29.0997 28.4714 28.6074 30.7857 28.6074C31.9171 28.6074 33.01 28.734 34 28.9731V26.835C32.9843 26.61 31.8914 26.4974 30.7857 26.4974Z" fill="white"/>
</svg>
