<svg width="46" height="46" viewBox="0 0 46 46" fill="none" xmlns="http://www.w3.org/2000/svg">
<path d="M46 23C46 35.7025 35.7025 46 23 46C10.2975 46 0 35.7025 0 23C0 10.2975 10.2975 0 23 0C35.7025 0 46 10.2975 46 23Z" fill="#E89026"/>
<path d="M20.5905 29.8085L14 26.0869H33.8C34.3835 26.0869 34.9431 26.2988 35.3556 26.6759C35.7682 27.053 36 27.5645 36 28.0978C36 28.6312 35.7682 29.1427 35.3556 29.5198C34.9431 29.8969 34.3835 30.1088 33.8 30.1088H21.7469C21.3384 30.1087 20.938 30.0048 20.5905 29.8085Z" stroke="white" stroke-width="3" stroke-linecap="round" stroke-linejoin="round"/>
<path d="M27.5 13.0164C27.8978 13.0164 28.2794 12.8575 28.5607 12.5746C28.842 12.2918 29 11.9082 29 11.5082C29 11.1082 28.842 10.7246 28.5607 10.4417C28.2794 10.1589 27.8978 10 27.5 10C27.1022 10 26.7206 10.1589 26.4393 10.4417C26.158 10.7246 26 11.1082 26 11.5082C26 11.9082 26.158 12.2918 26.4393 12.5746C26.7206 12.8575 27.1022 13.0164 27.5 13.0164Z" stroke="white" stroke-width="3" stroke-miterlimit="2"/>
<path d="M30.0784 28.0988C33.0065 25.8365 31.9085 20.8851 31.1765 19.4266C30.4444 17.9682 29.017 16.0332 29.017 16.0332C29.017 16.0332 28.2484 16.0332 27.5163 16.7873C25.556 18.8075 24.2222 21.3119 22.3922 21.3119C20.5621 21.3119 18 19.8037 18 19.8037" stroke="white" stroke-width="3" stroke-miterlimit="2" stroke-linecap="round" stroke-linejoin="round"/>
<path d="M20.1111 15.9999C17.514 12.7655 15.4997 11.2764 11.4444 11.0088C10.6493 10.9563 10 11.6081 10 12.403V25.3518M10.7222 36.1424C13.6111 36.1424 12.8441 34.7037 15.0556 34.7037C17.2677 34.7037 16.5 36.1424 19.0278 36.1424C21.5556 36.1424 20.8333 34.7037 23.3611 34.7037C25.8889 34.7037 25.483 36.1424 27.6944 36.1424C29.9066 36.1424 28.7778 34.7037 31.3056 34.7037C33.8333 34.7037 33.1566 36.1424 36 36.1424" stroke="white" stroke-width="3" stroke-linecap="round" stroke-linejoin="round"/>
</svg>
