<svg width="46" height="46" viewBox="0 0 46 46" fill="none" xmlns="http://www.w3.org/2000/svg">
<path d="M46 23C46 35.7025 35.7025 46 23 46C10.2975 46 0 35.7025 0 23C0 10.2975 10.2975 0 23 0C35.7025 0 46 10.2975 46 23Z" fill="#EF5DE9"/>
<path d="M28.7406 18.6536C28.5562 18.6536 28.3833 18.6248 28.2219 18.5671C28.0605 18.5104 27.9107 18.4134 27.7723 18.2761L25.8012 16.3198C25.5245 16.0452 25.3862 15.7189 25.3862 15.3409C25.3862 14.9639 25.5245 14.6495 25.8012 14.3978C26.0548 14.1232 26.3775 13.9859 26.7695 13.9859C27.1614 13.9859 27.4842 14.1118 27.7378 14.3635L28.7406 15.3588L32.6484 11.4462C32.9251 11.1716 33.2478 11.0343 33.6167 11.0343C33.9856 11.0343 34.3199 11.1716 34.6196 11.4462C34.8732 11.7207 35 12.0525 35 12.4415C35 12.8305 34.8732 13.1508 34.6196 13.4025L29.7089 18.2761C29.5706 18.4134 29.4208 18.5104 29.2594 18.5671C29.098 18.6248 28.9251 18.6536 28.7406 18.6536ZM12.9366 34.8875C12.4755 35.0705 12.0375 35.0302 11.6225 34.7667C11.2075 34.504 11 34.121 11 33.6176V13.7457C11 12.9906 11.2711 12.344 11.8134 11.8059C12.3547 11.2686 13.0058 11 13.7666 11H23.4496C22.9885 11.6864 22.6427 12.3445 22.4121 12.9741C22.1816 13.6029 22.0663 14.3177 22.0663 15.1185C22.0663 16.7659 22.5905 18.2189 23.6391 19.4773C24.6885 20.7357 26.0086 21.5251 27.5994 21.8455C28.1297 21.9141 28.5908 21.9484 28.9827 21.9484C29.3746 21.9484 29.8357 21.9141 30.366 21.8455V33.6176C30.366 34.121 30.1585 34.504 29.7435 34.7667C29.3285 35.0302 28.8905 35.0705 28.4294 34.8875L20.683 31.5926L12.9366 34.8875Z" fill="white"/>
</svg>
