<svg width="46" height="46" viewBox="0 0 46 46" fill="none" xmlns="http://www.w3.org/2000/svg">
<path d="M46 23C46 35.7025 35.7025 46 23 46C10.2975 46 0 35.7025 0 23C0 10.2975 10.2975 0 23 0C35.7025 0 46 10.2975 46 23Z" fill="#FF0000"/>
<path d="M23 21.5C23.7563 21.5 24.4039 21.2354 24.9429 20.7062C25.481 20.1779 25.75 19.5425 25.75 18.8C25.75 18.0575 25.481 17.4217 24.9429 16.8925C24.4039 16.3641 23.7563 16.1 23 16.1C22.2437 16.1 21.5966 16.3641 21.0585 16.8925C20.5195 17.4217 20.25 18.0575 20.25 18.8C20.25 19.5425 20.5195 20.1779 21.0585 20.7062C21.5966 21.2354 22.2437 21.5 23 21.5ZM23 35C19.3104 31.9175 16.5549 29.0542 14.7335 26.41C12.9112 23.7667 12 21.32 12 19.07C12 15.695 13.106 13.0062 15.3179 11.0037C17.5289 9.00125 20.0896 8 23 8C25.9104 8 28.4711 9.00125 30.6821 11.0037C32.894 13.0062 34 15.695 34 19.07C34 21.32 33.0893 23.7667 31.2679 26.41C29.4455 29.0542 26.6896 31.9175 23 35Z" fill="white"/>
</svg>
