<svg width="46" height="46" viewBox="0 0 46 46" fill="none" xmlns="http://www.w3.org/2000/svg">
<path d="M46 23C46 35.7025 35.7025 46 23 46C10.2975 46 0 35.7025 0 23C0 10.2975 10.2975 0 23 0C35.7025 0 46 10.2975 46 23Z" fill="#BAAA14"/>
<path d="M8.45455 16.3125L7 23.5V26.375H8.45455V35H23V26.375H28.8182V35H31.7273V26.375H33.1818V23.5L31.7273 16.3125H8.45455ZM20.0909 32.125H11.3636V26.375H20.0909V32.125ZM31.7273 14.875H8.45455V12H31.7273V14.875ZM39 16.3125V24.9375H36.0909V16.3125H39ZM36.0909 27.8125H39V30.6875H36.0909V27.8125Z" fill="white"/>
</svg>
