<svg width="46" height="46" viewBox="0 0 46 46" fill="none" xmlns="http://www.w3.org/2000/svg">
<path d="M46 23C46 35.7025 35.7025 46 23 46C10.2975 46 0 35.7025 0 23C0 10.2975 10.2975 0 23 0C35.7025 0 46 10.2975 46 23Z" fill="#1A6CE8"/>
<path d="M29.3151 23.5C29.3143 20.8057 30.0415 18.1592 31.423 15.8295L31.9754 14.8878C30.8175 14.6178 29.6378 14.4479 28.4497 14.38C26.8594 13.1797 24.4891 11.7557 21.7564 11.3026L20.0769 11L21.046 15.3935C18.0256 16.3977 15.361 18.4375 13.5975 19.8409C13.2563 19.5611 12.8992 19.2876 12.5261 19.0206C9.64775 16.9609 6.53886 16.7621 6.40839 16.755L5 16.6818L5.19354 18.0533C5.21456 18.1953 5.68571 21.2301 7.48769 23.4879C5.68571 25.7464 5.21746 28.7791 5.19354 28.9233L5 30.3182L6.40839 30.2216C6.53886 30.2145 9.64775 30.0163 12.5261 27.956C12.8924 27.6941 13.2442 27.425 13.5815 27.1484C15.348 28.5568 18.0133 30.6001 21.0373 31.6044L20.0769 36L21.7564 35.7003C24.4739 35.25 26.8362 33.8253 28.425 32.6236C29.6297 32.5553 30.826 32.3835 32 32.1101L31.4266 31.174C30.0436 28.8436 29.315 26.1958 29.3151 23.5Z" fill="white"/>
<path d="M40.2273 21.1989C39.8631 20.5342 39.1975 19.5238 38.0986 18.4891C36.9546 17.4246 35.6485 16.5825 34.2383 16L33.5429 17.3139C32.5332 19.1923 32.001 21.3256 32 23.4978C31.999 25.6701 32.5293 27.804 33.5373 29.6835L34.2688 31C35.6644 30.4246 36.9579 29.5943 38.093 28.5452C40.0692 26.6965 41 24.3776 41 23.503C41 22.6749 40.5019 21.7041 40.2273 21.1989ZM35.0228 23.503C34.8258 23.503 34.6332 23.4399 34.4694 23.3216C34.3055 23.2034 34.1779 23.0352 34.1025 22.8386C34.0271 22.6419 34.0073 22.4255 34.0458 22.2167C34.0842 22.0079 34.1791 21.8161 34.3184 21.6655C34.4577 21.515 34.6352 21.4125 34.8285 21.371C35.0217 21.3294 35.222 21.3507 35.4041 21.4322C35.5861 21.5137 35.7417 21.6516 35.8511 21.8286C35.9606 22.0057 36.019 22.2138 36.019 22.4266C36.019 22.7121 35.9141 22.9859 35.7272 23.1878C35.5404 23.3896 35.287 23.503 35.0228 23.503Z" fill="white"/>
</svg>
