<svg width="52" height="52" viewBox="0 0 52 52" fill="none" xmlns="http://www.w3.org/2000/svg">
<g clip-path="url(#clip0_556_793)">
<path d="M34.0691 22.875C34.0679 19.0221 35.0869 15.2376 37.0226 11.9062L37.7965 10.5595C36.1742 10.1735 34.5212 9.93047 32.8565 9.83336C30.6282 8.11695 27.3071 6.08063 23.4782 5.43266L21.125 5L22.4829 11.2827C18.2508 12.7188 14.5173 15.6356 12.0463 17.6425C11.5683 17.2423 11.0679 16.8513 10.5452 16.4695C6.51219 13.5241 2.15617 13.2398 1.97336 13.2296L0 13.125L0.271172 15.0862C0.300625 15.2893 0.960781 19.6291 3.48562 22.8577C0.960781 26.0874 0.304688 30.4241 0.271172 30.6303L0 32.625L1.97336 32.4869C2.15617 32.4767 6.51219 32.1934 10.5452 29.247C11.0585 28.8726 11.5514 28.4877 12.024 28.0923C14.4991 30.1062 18.2335 33.0282 22.4707 34.4643L21.125 40.75L23.4782 40.3214C27.2858 39.6775 30.5957 37.6402 32.822 35.9217C34.5099 35.8241 36.186 35.5784 37.831 35.1874L37.0277 33.8488C35.0897 30.5163 34.069 26.73 34.0691 22.875Z" fill="#30ADD1"/>
<path d="M50.7398 19.2775C50.1457 18.274 49.06 16.7486 47.2674 15.1865C45.4013 13.5795 43.2708 12.3081 40.9705 11.4287L39.8361 13.4122C38.1892 16.2481 37.3209 19.4688 37.3193 22.7481C37.3177 26.0275 38.1828 29.2491 39.8269 32.0865L41.0203 34.0741C43.2967 33.2055 45.4067 31.9519 47.2582 30.3681C50.4818 27.5772 52.0002 24.0763 52.0002 22.756C52.0002 21.5057 51.1877 20.0402 50.7398 19.2775ZM42.2502 22.756C41.9288 22.756 41.6146 22.6607 41.3474 22.4821C41.0802 22.3036 40.8719 22.0498 40.7489 21.7528C40.6259 21.4559 40.5937 21.1292 40.6564 20.814C40.7191 20.4987 40.8739 20.2092 41.1011 19.9819C41.3284 19.7547 41.6179 19.5999 41.9332 19.5372C42.2484 19.4745 42.5751 19.5067 42.872 19.6297C43.169 19.7527 43.4228 19.9609 43.6013 20.2282C43.7799 20.4954 43.8752 20.8096 43.8752 21.131C43.8752 21.562 43.704 21.9753 43.3992 22.28C43.0945 22.5848 42.6812 22.756 42.2502 22.756Z" fill="#30ADD1"/>
</g>
<defs>
<clipPath id="clip0_556_793">
<rect width="52" height="52" fill="white"/>
</clipPath>
</defs>
</svg>
