<svg width="84" height="84" viewBox="0 0 84 84" fill="none" xmlns="http://www.w3.org/2000/svg">
<g clip-path="url(#clip0_640_1167)">
<path d="M52.488 39.6924C51.4784 34.5295 51.854 29.1913 53.5765 24.2206L54.2613 22.2135C51.9863 22.1205 49.7076 22.2273 47.4513 22.5326C44.0162 20.8154 39.0329 18.9553 33.7323 19.0886L30.4657 19.1244L33.9289 27.1885C28.6331 30.2201 24.393 35.1056 21.6067 38.4414C20.8614 38.0302 20.0886 37.6371 19.2882 37.2621C13.1131 34.3702 7.20121 35.1286 6.95357 35.1628L4.28172 35.5389L5.15816 38.0961C5.25076 38.3606 7.2707 44.0036 11.4988 47.6698C8.96019 52.6583 9.21543 58.6416 9.22445 58.9266L9.38286 61.6706L11.9912 60.9693C12.2335 60.9079 17.9969 59.3886 22.6308 54.3852C23.2206 53.7492 23.7804 53.1044 24.3103 52.4509C28.154 54.5024 33.9229 57.4411 39.9768 58.2572L39.8177 67.0326L42.8591 65.8427C47.7932 63.9837 51.6958 60.3877 54.2297 57.5024C56.4661 56.93 58.648 56.1623 60.7502 55.208L59.3234 53.6244C55.8547 49.6654 53.4962 44.8585 52.488 39.6924Z" fill="#30ADD1"/>
<path d="M73.8874 30.5105C72.8288 29.3212 70.9748 27.5609 68.1639 25.9366C65.2428 24.2712 62.0552 23.1247 58.7425 22.548L57.7411 25.5029C56.276 29.734 55.955 34.2772 56.8107 38.6722C57.6665 43.0673 59.6685 47.1582 62.614 50.5305L64.7332 52.8819C67.5565 51.1223 70.0562 48.8904 72.1231 46.2837C75.7129 41.7003 76.8318 36.6116 76.4865 34.8423C76.1594 33.1668 74.6872 31.4154 73.8874 30.5105ZM63.4206 37.3928C62.9899 37.4769 62.5439 37.4314 62.1391 37.262C61.7343 37.0926 61.3888 36.807 61.1463 36.4413C60.9038 36.0755 60.7752 35.6461 60.7767 35.2073C60.7783 34.7685 60.91 34.34 61.1551 33.976C61.4002 33.612 61.7477 33.3288 62.1537 33.1623C62.5597 32.9958 63.006 32.9535 63.4361 33.0406C63.8662 33.1278 64.2608 33.3405 64.57 33.6519C64.8792 33.9633 65.0891 34.3594 65.1731 34.7901C65.2859 35.3676 65.1646 35.9663 64.8359 36.4544C64.5072 36.9425 63.9981 37.2801 63.4206 37.3928Z" fill="#30ADD1"/>
</g>
<defs>
<clipPath id="clip0_640_1167">
<rect width="71" height="71" fill="white" transform="translate(0 13.603) rotate(-11.0457)"/>
</clipPath>
</defs>
</svg>
