<?xml version="1.0" encoding="UTF-8"?>
<svg id="_レイヤー_1" data-name="レイヤー 1" xmlns="http://www.w3.org/2000/svg" xmlns:xlink="http://www.w3.org/1999/xlink" viewBox="0 0 30 30">
  <defs>
    <style>
      .cls-1 {
        fill: #30add1;
      }

      .cls-2 {
        clip-path: url(#clippath);
      }

      .cls-3 {
        fill: none;
      }

      .cls-4 {
        fill: #ffea20;
      }
    </style>
    <clipPath id="clippath">
      <rect class="cls-3" x="2.4" y="2.1" width="25.2" height="25.5"/>
    </clipPath>
  </defs>
  <circle class="cls-4" cx="15" cy="15" r="15"/>
  <g class="cls-2">
    <g>
      <path class="cls-1" d="m18.91,14.91c0-1.89.49-3.75,1.43-5.38l.38-.66c-.79-.19-1.59-.31-2.39-.36-1.08-.84-2.69-1.84-4.54-2.16l-1.14-.21.66,3.08c-2.05.7-3.86,2.13-5.06,3.12-.23-.2-.47-.39-.73-.58-1.95-1.44-4.07-1.58-4.15-1.59l-.96-.05.13.96c.01.1.33,2.23,1.56,3.81-1.22,1.58-1.54,3.71-1.56,3.81l-.13.98.96-.07c.09,0,2.2-.14,4.15-1.59.25-.18.49-.37.72-.57,1.2.99,3.01,2.42,5.06,3.12l-.65,3.08,1.14-.21c1.85-.32,3.45-1.31,4.53-2.16.82-.05,1.63-.17,2.43-.36l-.39-.66c-.94-1.63-1.43-3.49-1.43-5.38Z"/>
      <path class="cls-1" d="m26.99,13.14c-.29-.49-.81-1.24-1.68-2.01-.9-.79-1.94-1.41-3.05-1.84l-.55.97c-.8,1.39-1.22,2.97-1.22,4.58,0,1.61.42,3.19,1.22,4.58l.58.97c1.1-.43,2.13-1.04,3.02-1.82,1.56-1.37,2.3-3.09,2.3-3.73,0-.61-.39-1.33-.61-1.71Zm-4.11,1.71c-.16,0-.31-.05-.44-.13-.13-.09-.23-.21-.29-.36-.06-.15-.08-.31-.04-.46.03-.15.11-.3.22-.41.11-.11.25-.19.4-.22.15-.03.31-.01.45.05s.27.16.35.29c.09.13.13.29.13.44,0,.21-.08.41-.23.56-.15.15-.35.23-.56.23Z"/>
    </g>
  </g>
</svg>