<?xml version="1.0" encoding="UTF-8"?>
<svg id="_レイヤー_4" data-name="レイヤー 4" xmlns="http://www.w3.org/2000/svg" viewBox="0 0 57.44 100">
  <defs>
    <style>
      .cls-1 {
        fill: #fff;
      }

      .cls-2 {
        fill: #f4e232;
      }
    </style>
  </defs>
  <g id="man">
    <g>
      <path d="m23.8,48.03c.28.28.37.65.49,1.02.13.41.27.81.34,1.23,0,.05.04.1.06.15.14.34.34.66.42,1.02.09.39.23.74.35,1.12.07.22.13.42.24.62.1.19.1.44.15.66.03.11.08.22.12.33.02.04.05.07.07.11.14.39.29.77.42,1.16.13.37.25.74.35,1.12.06.22.11.45.12.68.01.26-.09.35-.34.39-.33.04-.63.17-.9.37-.09.07-.21.1-.33.14-.1.03-.21.04-.33.06.09.29.17.56.25.83,0,.02.02.04.01.06-.07.37.16.66.27.98.01.04.04.08.04.12-.03.3.17.53.27.79.11.28.14.59.21.89.04.19.06.39.12.58.06.21.1.42.08.64-.01.15.09.31.16.45.1.21.18.72.13.95-.01.05-.04.12-.02.16.16.31.12.66.15.99,0,.08.05.17.08.25.15.37.16.71.02,1.1.35.46.36,1.03.46,1.57.05.24.13.48.17.73.04.27.05.54.08.81,0,.06,0,.14.02.19.2.44.22.91.27,1.37.03.31.05.63.1.94.03.2.1.4.04.61-.02.06.02.15.06.21.14.21.13.43.1.66-.02.15-.03.31,0,.45.06.42.12.84.08,1.27-.02.22,0,.44.02.65.03.25-.03.48-.13.7-.02.04-.03.09-.02.12.16.33.01.64-.04.96-.03.21-.08.42-.06.65.02.26-.07.54-.11.81-.02.14-.06.27-.08.41-.02.19-.01.39-.14.56-.05.06-.05.16-.07.25-.07.38-.14.75-.21,1.13,0,.04-.02.09-.01.13.05.34-.09.62-.32.87.21.39,0,.74-.12,1.1-.04.14-.09.29-.13.43-.02.06-.03.13-.06.19-.18.39-.3.78-.4,1.2-.08.35-.28.67-.34,1.04-.05.28-.3.45-.59.51-.15.42-.29.83-.43,1.24-.03.08-.07.16-.11.24-.03.06-.09.12-.08.17.06.41-.24.72-.29,1.09-.03.25-.13.48-.2.72-.04.12-.09.24-.14.36-.03.07-.06.14-.08.21-.03.13-.03.26-.06.39-.07.32-.2.62-.19.98,0,.2-.14.4-.14.63,0,.05-.04.13-.02.16.23.34.26.79.59,1.08.21.18.4.37.61.54.07.05.18.06.27.07.25.03.51-.03.72.19.18-.1.34-.11.54-.04.18.06.39.04.58.07.13.02.25.06.37.1.06.02.12.07.18.07.26,0,.48.06.56.35,0,.02.04.05.07.06.41.13.5.49.59.84.04.15.13.27.17.4.15.4.43.77.32,1.24-.04.18.01.39.03.59.03.23-.03.38-.22.47-.28.12-.56.27-.85.32-.41.07-.83.07-1.24.09-.12,0-.24.02-.36.03-.13,0-.27.03-.39,0-.24-.07-.47-.05-.71,0-.06.01-.15.04-.19.01-.36-.23-.79-.11-1.17-.24-.3-.1-.61-.15-.92-.22-.04-.01-.1-.02-.12-.05-.16-.3-.52-.23-.75-.4-.05-.04-.18-.04-.23,0-.17.14-.36.14-.56.1-.15-.03-.29-.04-.44.01-.28.1-.56.02-.84-.05-.06-.02-.13-.05-.19-.04-.39.07-.73-.05-1.07-.21-.05-.02-.1-.05-.15-.06-.61-.09-1.16-.37-1.71-.63-.18-.09-.29-.19-.29-.42,0-.28-.08-.56-.11-.84-.01-.1.03-.21.05-.32.02-.12.05-.25.07-.37,0-.04,0-.1.01-.13.24-.4.16-.85.24-1.28.02-.1.07-.18.09-.28.04-.17.09-.34.1-.51.02-.43.1-.84.23-1.25.08-.25.1-.53.15-.79,0-.04,0-.09.03-.13.19-.28.18-.62.25-.93.05-.23.03-.48.21-.68.05-.06.04-.19.03-.28-.05-.37.02-.71.21-1.03.05-.08.07-.2.04-.28-.07-.27,0-.5.14-.72.2-.33.14-.7.13-1.05,0-.07-.09-.18-.17-.22-.28-.16-.44-.39-.49-.7,0-.06-.04-.12-.08-.17-.14-.2-.15-.4-.03-.62.05-.08.07-.18.09-.27.02-.1,0-.2.04-.29.12-.34.04-.72.22-1.05.01-.03,0-.07,0-.1-.1-.41-.03-.82,0-1.24.02-.31.02-.63.02-.95,0-.3.02-.59.11-.88.02-.07.03-.16.02-.23-.09-.36-.11-.72-.03-1.09.04-.18-.06-.38-.08-.57-.03-.28-.13-.56.03-.83.02-.03,0-.09-.02-.12-.21-.49-.23-1.01-.3-1.52-.03-.22-.07-.43-.1-.65-.02-.16-.02-.32-.03-.49,0-.08-.03-.16-.05-.24-.02-.07-.09-.15-.08-.21.06-.24.02-.46-.07-.68-.05-.12-.08-.24-.12-.36-.03-.08-.07-.17-.08-.25-.01-.39-.11-.75-.25-1.11-.06-.15-.04-.32-.09-.48-.15-.48-.2-1-.43-1.45-.06-.12.03-.3-.2-.36,0,.13.02.27-.03.37-.16.3-.09.6-.09.91,0,.26.01.57-.17.81-.02.03-.04.05-.05.08-.03.29-.06.57-.09.86,0,.04,0,.1-.01.13-.25.35-.12.8-.32,1.16-.05.1-.02.24-.05.35-.12.44-.25.87-.36,1.32-.07.27-.08.56-.17.83-.1.3-.11.62-.33.88-.06.08-.12.2-.11.3.03.47-.21.87-.32,1.29-.02.08-.04.17-.06.25-.12.39-.27.78-.37,1.18-.09.35-.38.65-.32,1.05,0,.01,0,.03,0,.03-.22.25-.23.59-.38.87-.12.21-.21.43-.28.66-.09.32-.2.65-.48.87-.06.05-.09.16-.11.25-.05.14-.07.3-.13.44-.15.34-.31.67-.46,1.01-.08.17-.1.36-.27.48-.05.03-.04.14-.06.21-.06.21-.23.39-.42.33-.28-.08-.51.03-.78.07-.06.52-.4.92-.62,1.38-.11.22-.14.49-.37.64-.02.01-.03.06-.03.09-.01.45-.28.8-.47,1.18-.14.29-.23.62-.42.88-.23.32-.32.68-.42,1.04-.06.21-.11.42-.13.63-.02.18,0,.37.03.56,0,.08.03.18.08.24.11.17.2.34.2.55,0,.04.02.08.05.12.26.42.53.85.83,1.24.03.04.07.08.11.12.3.28.6.56.91.85.04.04.08.07.13.1.57.35,1.06.8,1.49,1.3.13.15.21.33.3.51.07.14.12.28.17.42.02.08.02.17.02.26,0,.12-.04.25-.01.36.09.37-.12.55-.38.74-.54.38-1.16.46-1.8.49-.12,0-.24-.05-.35-.05-.28.01-.56.05-.82-.09-.04-.02-.1.04-.16.04-.17,0-.35,0-.52-.02-.14-.02-.28-.06-.41-.1-.07-.02-.16-.04-.21-.08-.15-.13-.31-.25-.52-.22-.01,0-.02,0-.03,0-.36-.31-.87-.39-1.14-.79-.46-.02-.91.02-1.34-.13-.27-.09-.59-.08-.83-.22-.29-.16-.61-.25-.85-.52-.19-.21-.33-.49-.62-.61-.09-.04-.14-.22-.16-.34-.05-.31-.08-.62-.1-.94-.01-.25.02-.5.01-.75-.01-.29-.01-.59.06-.87.04-.16.05-.32.08-.48,0-.03.04-.07.03-.09-.12-.26.05-.51.03-.77-.01-.13.04-.26.05-.39.01-.11.02-.21.04-.32.01-.09,0-.19.04-.26.17-.3.19-.61.14-.94,0-.01,0-.02,0-.03.15-.56.08-1.14.21-1.7.04-.15.1-.29.14-.44.05-.24.09-.49.14-.74.03-.14.06-.28.09-.41.04-.2.07-.4.11-.61.02-.12.06-.23.09-.35.09-.32.2-.64.26-.97.03-.15-.05-.32-.08-.48-.01-.06-.07-.13-.05-.19.11-.34-.02-.69.03-1.03.01-.08.02-.15.06-.22.13-.26.26-.52.39-.79.03-.06.04-.12.05-.18,0-.14.07-.24.17-.34.06-.06.1-.16.12-.25.03-.15,0-.32.08-.44.21-.39.14-.86.32-1.24.14-.29.09-.6.18-.89.18-.6.37-1.19.53-1.79.11-.41.16-.83.24-1.24.05-.28.12-.55.18-.83.02-.07.03-.15.04-.22,0-.06-.02-.15.01-.19.17-.25.14-.54.21-.81.1-.37.11-.76.16-1.14.03-.28,0-.57.19-.82.03-.04.05-.11.03-.15-.08-.19-.01-.36,0-.54.03-.41,0-.82,0-1.23,0-.37,0-.74,0-1.11,0-.1.02-.2,0-.29-.09-.34-.1-.68-.08-1.04.02-.3-.05-.6-.08-.9,0-.09-.06-.19-.03-.25.11-.23-.02-.41-.07-.62-.08-.35-.23-.7-.2-1.08,0-.08,0-.2-.04-.25-.23-.23-.22-.54-.28-.82-.01-.06,0-.14-.03-.19-.21-.33-.18-.72-.25-1.08-.04-.21-.12-.41-.17-.62-.03-.14-.04-.28-.06-.42,0-.06,0-.14-.03-.19-.2-.38-.27-.8-.35-1.21-.04-.2.01-.41.02-.66-.06-.03-.15-.07-.24-.1-.11-.04-.24-.06-.33-.13-.28-.22-.61-.2-.93-.23-.2-.02-.39-.03-.57-.12-.11-.06-.25-.06-.38-.09-.14-.03-.31-.02-.41-.1-.26-.2-.57-.12-.84-.22-.06-.02-.13.02-.19,0-.4-.09-.43-.12-.43-.55,0-.24.05-.48.08-.71,0-.03.03-.07.02-.1-.11-.58.06-1.14.05-1.72,0-.47,0-.94,0-1.41,0-.07,0-.13,0-.2.1-.41.14-.83.07-1.25,0-.05-.02-.12,0-.16.15-.26.07-.52.05-.79-.02-.21.05-.43.08-.64,0-.04.02-.08.02-.13,0-.34-.01-.67,0-1.01,0-.29.04-.59.06-.88.02-.28-.01-.57.14-.83.03-.06.02-.15,0-.23-.05-.22-.04-.43-.01-.65.02-.18.03-.36,0-.55-.03-.22.06-.45.1-.68.02-.11.04-.22.02-.32-.06-.41-.06-.81.2-1.18-.25-.22-.17-.51-.14-.77.05-.37.06-.73.07-1.1,0-.33-.06-.66.1-1,.11-.23.02-.51-.15-.73-.02-.02-.05-.05-.07-.06-.39-.12-.56-.4-.61-.79,0-.04-.02-.09-.04-.12-.33-.35-.26-.79-.3-1.21-.03-.29-.03-.58-.04-.87-.01-.4.16-.77.22-1.16.03-.17.22-.32.33-.48.05-.08.1-.16.12-.25.05-.22.14-.42.35-.53.13-.07.17-.16.14-.29-.03-.14.04-.24.13-.35.16-.19.29-.41.54-.51.07-.28.35-.37.52-.57.16-.2.39-.34.59-.51.05-.04.12-.07.15-.12.24-.36.57-.62.91-.88.2-.15.36-.34.54-.52.07-.07.15-.13.21-.2.06-.06.1-.14.15-.2.2-.24.24-.53.26-.84.02-.27.08-.53.03-.8-.01-.07,0-.15.02-.23,0-.04.04-.08.03-.13-.01-.36-.02-.72-.06-1.07-.01-.12-.1-.24-.18-.33-.2-.22-.43-.4-.63-.62-.14-.16-.27-.35-.37-.54-.15-.3-.27-.61-.49-.87-.13-.17-.2-.38-.31-.58-.05-.09-.1-.21-.18-.27-.18-.13-.24-.31-.28-.5-.11-.54-.24-1.08-.33-1.62-.08-.47-.12-.95-.15-1.43-.02-.28.02-.56.01-.84,0-.38-.03-.76-.04-1.14,0-.22.03-.44.03-.66,0-.19-.03-.39-.03-.58,0-.15,0-.31.05-.44.12-.31.25-.63.43-.91.18-.28.43-.52.65-.77.34-.03.47-.37.74-.51.27-.14.53-.31.8-.45.16-.09.34-.15.5-.23.2-.1.39-.22.59-.33.51-.27,1.05-.4,1.63-.39.04,0,.1-.01.13,0,.38.22.84.09,1.24.26.39.16.81.26,1.22.39.35.11.7.23,1.05.34.06.02.15.04.17.08.11.25.37.23.57.32.22.1.42.24.61.38.23.16.44.35.66.52.06.05.14.08.17.15.19.41.59.65.79,1.06.03.07.09.13.1.2.02.15.09.26.21.36.06.05.1.15.11.23.04.29.1.58.09.86-.01.31-.06.63-.15.93-.06.2-.08.38.04.55.12.18.15.36.03.56.19.13.2.33.24.52.07.41.07.82.1,1.23.03.3.09.6.13.9.03.29.06.58.07.88,0,.12-.07.25-.12.4.13.14.18.33.12.55-.02.09.01.19.02.29,0,.09.03.19,0,.26-.14.3-.06.6-.05.9,0,.13.02.27,0,.39-.03.2-.11.4-.04.61.01.04,0,.11-.04.15-.13.19-.12.39-.11.6,0,.1-.01.2-.04.29-.07.26-.15.32-.42.31-.11,0-.22-.01-.35-.02-.11.27-.36.31-.61.37-.23.05-.45.15-.68.21-.09.03-.2.05-.29.03-.3-.08-.57.11-.86.09-.03,0-.07.04-.11.07.01.15.02.29.04.47.37-.11.75.02,1.13-.1.29-.09.6-.17.89-.15.5.03,1-.15,1.49.07.28-.06.53.04.77.16.25.13.51.25.74.41.38.27.77.54,1.11.86.21.2.48.3.67.5.25.25.56.41.82.62.44.36.9.69,1.31,1.08.41.39.88.7,1.24,1.16.12-.21.19-.41.32-.55.15-.15.35-.25.54-.36.11-.06.23-.13.35-.16.22-.07.44-.11.66-.17.08-.02.18-.03.24-.09.14-.14.33-.15.48-.23.3-.15.68-.18.85-.58.12-.29.38-.52.58-.77.03-.04.06-.09.08-.13.03-.06.05-.15.09-.17.24-.08.25-.31.33-.49.12-.25.24-.49.5-.63.06-.03.11-.11.15-.17.28-.55.62-1.05,1.06-1.48.05-.04.08-.1.12-.16.16-.28.4-.5.64-.71.02-.01.04-.02.05-.04.18-.24.39-.47.53-.74.24-.45.57-.82.94-1.17.16-.15.28-.36.41-.54.05-.06.08-.13.13-.19.29-.29.45-.69.82-.91.08-.04.12-.15.16-.24.19-.42.54-.7.84-1.03.14-.15.24-.34.38-.49.2-.21.32-.51.62-.62.03-.01.07-.06.08-.1.15-.47.6-.68.89-1.03.06-.07.13-.14.19-.21.06-.07.11-.17.18-.23.12-.1.23-.2.26-.36,0-.05.04-.1.08-.14.21-.23.43-.46.64-.69.09-.11.17-.23.26-.34.17-.19.27-.46.54-.56.02,0,.04-.02.05-.04.25-.48.71-.78.98-1.24.05-.09.14-.17.22-.24.3-.28.61-.55.82-.91.07-.12.21-.21.33-.3.07-.06.16-.09.21-.15.14-.2.25-.44.41-.62.22-.25.35-.59.72-.69.04,0,.08-.05.09-.08.12-.4.45-.62.74-.89.22-.21.41-.45.61-.68.03-.03.05-.09.08-.1.33-.09.41-.39.58-.63.2-.28.49-.49.75-.73.14-.13.31-.25.4-.42.12-.22.3-.37.48-.52.21-.18.39-.41.59-.61.22-.22.49-.4.62-.7.02-.05.1-.08.15-.12.06-.05.13-.08.18-.14.21-.23.41-.47.63-.69.17-.17.37-.3.54-.47.56-.56,1.11-1.14,1.67-1.7.22-.22.46-.42.69-.63.12-.11.2-.28.33-.36.3-.16.44-.47.67-.69.09-.08.18-.16.28-.23.14-.11.29-.2.41-.32.29-.33.63-.59.97-.86.29-.22.58-.47.82-.73.32-.34.73-.56,1.06-.88.42-.41.91-.71,1.36-1.08.32-.26.72-.41.96-.76.04-.06.12-.1.19-.13.2-.09.41-.16.61-.25.12-.05.21-.05.3.04.09.09.11.2.04.3-.11.17-.23.35-.38.49-.25.23-.53.42-.8.63-.08.07-.15.16-.23.23-.18.15-.36.31-.56.44-.57.37-.97.93-1.54,1.31-.23.16-.42.36-.68.49-.2.1-.33.34-.5.51-.1.1-.22.17-.34.25-.05.04-.12.06-.15.11-.2.3-.45.53-.75.72-.13.09-.25.21-.37.32-.42.37-.84.73-1.25,1.11-.13.11-.23.26-.35.37-.46.44-.94.88-1.4,1.32-.17.17-.3.38-.48.53-.31.26-.53.62-.84.87-.19.15-.29.34-.43.52-.14.19-.36.32-.52.49-.25.26-.59.44-.74.8-.04.09-.11.18-.19.21-.25.1-.36.3-.48.51-.03.05-.05.11-.09.14-.56.38-.86,1.01-1.35,1.46-.37.33-.6.77-.92,1.14-.16.19-.33.38-.49.57-.3.36-.59.73-.89,1.09-.14.17-.27.34-.41.51-.11.13-.23.26-.35.39-.07.07-.17.13-.2.22-.09.29-.35.44-.51.68-.07.11-.22.16-.37.26-.01.29-.21.53-.45.73-.21.17-.29.47-.56.58-.03.01-.03.1-.06.14-.06.09-.11.21-.19.25-.16.09-.24.2-.29.37-.07.23-.22.39-.42.53-.08.05-.14.13-.2.2-.19.23-.25.57-.58.69-.02,0-.04.05-.05.08-.11.32-.38.53-.6.77-.07.08-.13.17-.18.27-.13.23-.23.48-.47.62-.04.02-.08.06-.09.09-.04.31-.27.51-.46.71-.28.29-.49.64-.78.92-.05.05-.1.09-.14.14-.37.63-.88,1.15-1.28,1.75-.16.23-.3.48-.47.7-.09.13-.22.24-.33.36-.03.03-.07.05-.09.09-.1.16-.18.32-.28.47-.27.39-.54.78-.82,1.17-.04.05-.08.11-.14.14-.14.07-.21.16-.23.32-.01.09-.08.18-.15.25-.28.27-.45.61-.65.93-.09.15-.22.26-.33.4-.04.06-.08.12-.11.19-.03.07-.03.18-.09.21-.29.17-.35.48-.52.73-.07.11-.17.2-.25.3-.03.03-.08.06-.09.09-.06.38-.4.59-.54.95.42-.08.71.18,1.04.35.21.11.43.19.58.4.14.2.3.37.43.57.21.34.41.69.58,1.05.12.25.24.51.24.81,0,.24.03.48.09.71.07.29-.03.49-.22.63-.02.21.02.44-.07.55-.2.22-.25.48-.37.73-.12.27-.35.49-.54.73-.02.02-.05.05-.08.05-.26.02-.39.23-.57.4.06.09.12.18.18.26.06.08.15.15.17.23.08.27.3.46.41.7.15.3.26.62.38.94.09.24.22.49.11.76.14.32-.03.59-.14.87-.02.06-.04.14-.08.17-.28.19-.45.53-.81.63-.06.02-.11.1-.17.14-.11.07-.21.2-.32.21-.41,0-.76.27-1.17.27-.29,0-.57.04-.86.06-.26.02-.54.02-.81.04-.25.02-.5-.01-.74-.1-.12-.04-.25-.03-.38-.05-.01.02-.02.04-.03.06Z"/>
      <path class="cls-1" d="m3.89,85.79c.12-.36.18-.7.16-1.05,0-.09.04-.19.07-.27.05-.13.09-.27.16-.39.14-.25.31-.49.28-.8.18-.16.3-.36.31-.59.02-.44.3-.78.36-1.2.07-.5.22-1,.31-1.5.07-.4.1-.8.18-1.2.08-.39.19-.78.29-1.16.08-.3.16-.61.24-.91.02-.07.05-.14.07-.22.03-.11.06-.23.08-.34.01-.05,0-.11.01-.16.23-.46.2-.98.34-1.46.06-.21.07-.43.1-.65,0-.02.01-.04.01-.06-.02-.19-.1-.4-.05-.57.05-.19.04-.35.04-.54,0-.4.07-.8.11-1.19.01-.1.03-.19.03-.29,0-.16,0-.33,0-.49,0-.05.03-.12.02-.16-.16-.37,0-.76-.04-1.13-.01-.16-.06-.32-.07-.48-.03-.32-.05-.64-.08-.96-.01-.11-.05-.23-.1-.33-.07-.12-.1-.23-.07-.37.04-.19.07-.39-.05-.57-.02-.03-.02-.09-.01-.13.05-.24-.06-.42-.18-.61-.05-.08-.09-.18-.09-.27,0-.21-.03-.41-.13-.6-.09-.18-.14-.38-.13-.6,0-.19-.09-.38-.13-.57-.06-.31-.09-.62-.15-.93-.03-.14-.09-.27-.13-.4-.01-.04-.05-.08-.05-.12-.04-.54-.31-1.04-.33-1.59,0-.03,0-.06,0-.11.14-.03.28-.02.4.06.05.04.12.09.18.08.28-.04.55.05.83.07.33.02.66.03.99.01.34-.02.68-.04,1.02-.09.44-.06.58-.25.61-.65,0-.13.13-.25.05-.4-.01-.03.01-.09.04-.12.2-.27.23-.57.21-.9-.02-.33.07-.67.06-1.01-.02-.4.14-.8.03-1.21-.01-.05.03-.11.03-.16,0-.22,0-.44-.03-.65-.03-.21-.04-.41.07-.61.48.12.97.08,1.45.08.22,0,.43.02.64-.09.05-.03.13-.01.19,0,.2.08.4.07.58-.02.26-.14.53-.14.81-.12.11,0,.23,0,.32-.04.19-.08.37-.07.57-.06.24.02.5-.05.74-.11.54-.14,1.09-.12,1.63-.14.43-.02.85-.05,1.26-.19.22-.07.43-.08.65-.07.1,0,.22.03.29-.01.25-.15.54-.18.81-.24.09-.02.16-.09.27-.15.11.29.24.56.31.85.12.54.41,1.02.55,1.56.23.19.12.49.21.72.1.26.16.52.39.7.05.04.08.15.08.23,0,.25.12.43.36.46.24.03.5.09.74-.07.03-.02.08-.05.12-.04.44.09.85-.05,1.28-.13.25-.04.29.01.37.25.1.32.22.63.32.94.03.08.06.17.05.25-.04.29.07.53.21.77.06.1.11.21.14.32.1.35.19.69.27,1.05.06.23.11.47.13.71.01.19.05.36.16.52.05.07.09.16.08.24-.04.31.01.61.08.9.02.07.03.15.08.21.07.1.06.19.07.3,0,.26.07.51.1.77.02.15.07.3.07.45,0,.35.09.67.33.96-.24.56-.03,1.12.09,1.68.08.35.15.7.19,1.05.02.17.03.32.12.47.02.03.04.08.04.12-.03.55.1,1.08.23,1.61.05.21.05.43.07.65.02.24,0,.48.15.7.03.04.01.13-.01.18-.09.2-.03.39,0,.58.03.17.06.34.07.52.02.4.05.8.05,1.21,0,.25-.03.5-.05.75,0,.04-.03.09-.02.13.13.57-.14,1.11-.08,1.67,0,.09-.01.2-.05.28-.15.31-.13.66-.19.99-.02.1-.03.21-.04.32-.03.19-.05.39-.08.58,0,.07-.02.15-.03.22-.08.4-.16.79-.25,1.18-.01.06-.04.12-.07.18-.13.27-.13.55-.02.84-.33.24-.28.62-.36.95-.04.15-.09.29-.14.43-.03.08-.06.16-.09.25-.14.4-.22.81-.41,1.2-.13.26-.21.55-.3.82-.1.29-.3.4-.55.43-.52.05-1.05.02-1.56.12-.52.1-1.01.06-1.52-.03-.23-.04-.48-.02-.72,0-.31.02-.56-.17-.85-.22-.16-.03-.32-.05-.47-.11-.17-.07-.33-.16-.47-.27-.14-.12-.24-.29-.36-.42-.22-.25-.21-.5-.05-.77.07-.13.12-.29.12-.43.01-.33.1-.66,0-1-.01-.05-.02-.12,0-.16.16-.27.12-.58.14-.87.04-.56.06-1.11.08-1.67,0-.1,0-.2-.01-.29-.05-.26-.06-.5.02-.77.06-.23.14-.51.02-.77-.02-.04-.03-.09-.02-.13.12-.34.05-.68-.02-1-.07-.3-.09-.59-.1-.9-.01-.52-.14-1.03-.21-1.55-.02-.12-.01-.24-.03-.36-.02-.12-.03-.25-.09-.34-.08-.13-.12-.25-.09-.4.03-.18-.06-.32-.21-.42,0-.32.03-.64,0-.94-.04-.31-.14-.61-.23-.92-.07-.23-.16-.45-.22-.68-.04-.14-.04-.3-.06-.45,0-.06-.01-.13-.03-.19-.09-.31-.16-.64-.3-.93-.22-.45-.31-.99-.83-1.26.02-.4.06-.8.06-1.2,0-.17-.05-.35-.11-.51-.07-.17-.08-.31.03-.46.09-.12.09-.26.08-.4-.03-.44-.02-.89-.05-1.33-.02-.34-.07-.67-.1-1.01-.04-.39-.07-.78-.1-1.17-.03-.32-.24-.51-.51-.63-.21-.1-.45.1-.44.34,0,.03,0,.07.02.1.37.65.21,1.41.39,2.1.09.36.06.75.04,1.14-.02.31-.11.65.09.95.05.07.02.23-.03.31-.2.33-.16.68-.12,1.02.04.3-.05.59-.03.88,0,.06-.03.14-.02.19.1.32-.04.62-.09.93-.02.1-.04.21,0,.29.08.19.03.36-.04.54-.13.33-.18.67-.12,1.02,0,.02.01.05,0,.06-.07.26-.14.52-.21.77-.02.06-.08.13-.07.18.09.4-.17.74-.17,1.12,0,.1-.08.2-.1.31-.11.45-.21.91-.33,1.36-.08.28-.2.55-.26.84-.06.3-.25.56-.2.88.02.1-.04.24-.11.33-.14.2-.21.42-.26.66-.08.37-.2.73-.33,1.09-.17.5-.29,1.02-.4,1.54-.06.29-.33.53-.31.86-.19.12-.21.32-.26.51-.05.17-.16.33-.24.5-.15.3-.34.58-.35.94,0,.08-.09.16-.14.24-.09.14-.21.28-.28.43-.19.4-.37.81-.55,1.22-.02.04-.04.11-.07.11-.34.05-.53.48-.94.37-.07-.02-.17.03-.25.05-.2.06-.41.07-.61.01-.07-.02-.15-.04-.23-.03-.48.09-.97.08-1.46.05-.4-.02-.8.1-1.21-.09-.17-.08-.42,0-.64.01-.02,0-.05.01-.07,0-.51-.14-1.02-.28-1.53-.43-.04-.01-.07-.05-.13-.08Z"/>
      <path class="cls-1" d="m10,46.81c-.32-.32-.67-.6-1.11-.76-.11-.04-.19-.13-.29-.2-.08-.05-.16-.11-.25-.16-.44-.25-.87-.5-1.31-.74-.28-.15-.57-.27-.84-.43-.4-.22-.79-.45-1.19-.68-.12-.07-.25-.13-.38-.18-.21-.07-.41-.13-.53-.35-.03-.06-.12-.11-.19-.13-.3-.09-.55-.27-.79-.45-.14-.1-.3-.17-.46-.24-.3-.13-.6-.26-.84-.5-.05-.06-.11-.13-.18-.14-.29-.07-.36-.31-.47-.54,0-.02,0-.05-.02-.06-.26-.26-.23-.61-.31-.93-.09-.33-.14-.66-.13-1,0-.16.09-.33.06-.48-.03-.19.02-.32.1-.48.09-.19.11-.42.14-.63.02-.13.07-.23.17-.33.28-.29.57-.57.9-.8.08-.06.13-.17.18-.26.35-.1.69-.23,1.04-.29.34-.06.69-.06,1.07-.09.14.22.36.26.56.23.18.12.31.24.46.31.3.15.42.47.66.66.18.14.36.28.54.41.05.04.1.08.14.13.09.09.17.19.27.28.32.29.63.61.98.85.31.22.51.57.9.69.06.02.12.12.14.2.05.15.14.24.29.28.25.07.44.22.61.42.3.35.63.69,1.09.85.1.03.21.02.32,0,.19-.03.37-.13.58-.05.06.02.15-.02.22-.04.27-.06.55-.13.82-.19.25-.06.52-.07.73-.26.02-.02.05-.05.08-.06.29-.08.59-.16.88-.23.23-.06.47-.09.69-.19.26-.12.52-.21.8-.28.47-.13.94-.3,1.4-.47.26-.09.5-.23.78-.18.03,0,.07,0,.1-.01.31-.11.61-.22.91-.32.22-.08.45-.15.71-.23.03.15.05.3.07.45.01.06,0,.13.03.19.19.46.38.93.59,1.38.04.09.15.15.23.23.12.12.27.23.2.43-.22.12-.43.23-.64.35-.07.04-.15.08-.18.14-.09.17-.25.24-.41.31-.26.11-.52.23-.77.35-.07.03-.12.09-.18.14-.06.04-.12.1-.18.12-.22.06-.42.14-.6.31-.15.15-.41.19-.61.28-.04.02-.09.03-.12.05-.38.3-.85.42-1.27.64-.11.06-.22.15-.31.24-.21.22-.44.37-.75.4-.24.03-.49.11-.71.22-.17.08-.3.24-.44.36-.16.06-.33.11-.48.19-.25.13-.49.27-.74.41-.05.02-.11.02-.16.04-.16.06-.33.12-.48.19-.38.18-.76.39-1.15.56-.1.05-.23.05-.35.05-.18,0-.37,0-.58,0Z"/>
      <path class="cls-2" d="m1.56,50.23c-.03-.33-.06-.6-.08-.86,0-.07,0-.16.03-.23.1-.22.07-.45.08-.67.02-.44.09-.88.04-1.33,0-.05.01-.11.03-.16.15-.41.16-.81,0-1.13.05-.28.11-.49.12-.7.02-.29,0-.59,0-.88,0-.26.07-.51.07-.77,0-.23,0-.45-.12-.72.24.1.41.2.57.32.15.12.32.22.49.33.24.15.48.29.73.44.06.03.12.09.17.09.27,0,.43.17.62.32.17.14.36.25.55.36.3.17.63.3.91.5.72.48,1.56.73,2.25,1.26.22.17.5.26.75.39.1.05.19.11.28.17.13.1.18.24.14.41-.03.1-.03.21-.05.32-.06.26-.01.52,0,.78.01.32-.05.64-.05.96,0,.37-.03.74.16,1.08-.25.34-.2.74-.23,1.11-.02.25-.01.5.07.75.05.14,0,.32-.01.49-.03.26-.07.52-.1.78,0,.02,0,.04,0,.07,0,.29.19.55.09.88-.08.26.03.58.04.87,0,.13-.02.26-.04.39-.02.1-.06.19-.07.29-.02.3-.03.61-.04.91-.02.47-.02.94-.05,1.4-.02.36-.07.71-.1,1.06,0,.07,0,.15.02.23.03.2-.01.37-.15.48-.3.02-.58.05-.86.05-.39,0-.78-.02-1.17-.04-.25-.01-.51-.04-.76-.06-.11-.01-.21-.03-.32-.06-.18-.04-.36-.09-.53-.15-.08-.03-.18-.06-.23-.12-.13-.16-.28-.17-.47-.12-.14.03-.3.05-.44-.06-.05-.04-.13-.07-.18-.05-.22.07-.4-.02-.59-.11-.1-.04-.21-.04-.32-.06-.11-.02-.22,0-.32-.05-.24-.1-.48-.2-.76-.16-.04,0-.08-.03-.12-.05-.17-.1-.34-.2-.54-.31,0-.21-.11-.44.02-.69.07-.13.02-.32.03-.48.01-.28.03-.56.05-.85.18-.05.35-.06.53.05.11.06.25.11.37.1.36-.02.7.08,1.04.19.25.08.49.18.76.15.02,0,.05,0,.06,0,.4.22.85.12,1.27.21.07.02.14.06.21.09.37.17.66.03.75-.38.08-.36.22-.72.24-1.08.02-.41.24-.8.09-1.22,0-.02-.02-.05,0-.06.18-.29.06-.62.14-.95.07,0,.14,0,.21-.02.31-.05.4-.19.33-.49-.01-.05,0-.1,0-.15.07-.37.13-.75.21-1.12.04-.2.09-.4.15-.6.1-.4-.05-.61-.46-.63-.26-.02-.51-.06-.77-.09-.39-.04-.78-.08-1.17-.13-.21-.03-.43-.07-.64-.11-.15-.03-.3-.07-.45-.09-.39-.05-.77-.11-1.16-.15-.22-.02-.45-.03-.68-.04-.22-.02-.43-.04-.62-.06Z"/>
      <path class="cls-1" d="m7.34,24.04c.22-.14.38-.25.54-.36.04-.03.09-.08.13-.08.2-.01.34-.14.5-.23.27-.14.57-.24.86-.36.23-.09.46-.19.69-.27.09-.03.19-.03.29-.03.09,0,.2.02.26-.02.39-.28.91-.23,1.31-.49.02-.02.06-.01.1-.02.38-.07.75-.14,1.13-.2.33-.05.66-.09,1-.13.16.28-.17.64.15.8,0,.25-.02.45,0,.65.05.44.12.88.16,1.32.02.21,0,.43,0,.65,0,.29,0,.58.02.87.01.15.08.29.14.47-.1.12-.18.3-.1.53.02.06-.02.15-.04.22-.02.09-.07.18-.04.25.11.34.01.67,0,1-.01.17.02.35.03.52,0,.09.03.18,0,.26-.04.13-.03.25,0,.38.06.21.05.41-.18.54-.09.05-.15.15-.23.24-.22-.1-.42-.02-.63.05-.22.07-.46.09-.69.13-.06.01-.14.02-.19.05-.29.19-.62.13-.94.17-.21.02-.42.08-.62.15-.13.05-.18.19-.1.3.1.13.04.24.05.37,0,.2.04.41.08.61.02.09.07.18.11.28-.03.04-.05.08-.08.11-.24.21-.25.28-.08.54.1.15.2.31.3.46-.25.21-.48.34-.78.37-.2.02-.4.12-.6.16-.13.03-.28,0-.42,0-.2-.01-.39-.05-.58-.05-.25,0-.3-.04-.32-.3-.03-.31-.1-.49-.49-.54-.34-.04-.67-.16-1.02-.19-.27-.03-.57-.08-.8-.31-.09-.09-.25-.13-.36-.19.02-.25.04-.48.05-.72,0-.25,0-.5,0-.75,0-.34,0-.69,0-1.03,0-.22-.04-.43-.06-.65-.04-.35.13-.6.38-.82.14-.12.27-.26.38-.4.05-.06.09-.16.09-.24,0-.12.05-.21.16-.26.15-.07.22-.19.16-.35-.05-.14-.17-.22-.31-.19-.37.07-.59-.21-.84-.38-.27-.19-.15-.77.15-.94.23-.12.46-.23.74-.1.19.09.31,0,.36-.21.08-.34.17-.67.22-1.01.03-.23,0-.47,0-.64Z"/>
      <path class="cls-1" d="m16.88,44.63c.02.18.01.32.06.43.04.11.13.2.08.33-.01.04,0,.09.02.13.27.38.2.87.42,1.26.02.04.02.1.05.12.25.2.19.51.27.77.05.16.1.32.17.55-.18.37-.39.81-.6,1.25-.1.22-.19.44-.28.66-.07.16-.09.33-.26.44-.11.07-.1.19-.03.29.09.11.17.24.28.32.23.15.46.29.71.4.3.12.58-.03.73-.32.09-.17.22-.32.38-.53.1.31.2.56.27.82.08.3.13.62.21.92.08.28.17.56.27.84.03.09.1.16.16.24.04.06.08.12.12.17-.26.02-.5.08-.72.04-.36-.07-.69,0-1.01.15-.05.02-.11.02-.16.01-.59-.06-1.16.04-1.73.16-.58.12-1.17.16-1.76.17-.04,0-.1-.02-.13,0-.35.17-.77.07-1.11.21-.28.12-.53.12-.81.09-.04,0-.09-.01-.13,0-.45.2-.94.09-1.4.16-.37.06-.75.05-1.12.07-.13-.27-.19-.51-.09-.78.12-.31.04-.63,0-.94-.05-.32-.09-.64.02-.97.05-.15.04-.33.02-.48-.05-.36.04-.75-.18-1.08.18-.41.17-.83.19-1.27,0-.36-.05-.73.06-1.1.08-.26.02-.56.02-.87.08.03.14.04.19.06.17.09.34.15.53.05.04-.02.09-.04.13-.03.35.06.67-.04.99-.17.41-.16.81-.31,1.17-.57.05-.04.1-.1.16-.11.31-.04.54-.24.79-.38.14-.07.26-.18.44-.31.4.02.76-.19,1.05-.53.21-.24.46-.35.76-.37.2-.01.39-.04.55-.19.05-.05.13-.06.26-.12Z"/>
      <path class="cls-2" d="m28.23,97.93c-.45.1-.93.19-1.41.3-.52.12-1.03.08-1.55.02-.22-.03-.43-.06-.64-.09-.02,0-.05,0-.06-.02-.27-.22-.62-.2-.92-.32-.03-.01-.07-.01-.09-.03-.38-.29-.83-.31-1.27-.35-.18-.01-.36.04-.61.07-.14-.1-.36-.14-.61-.1-.09.01-.19-.03-.28-.04-.13-.02-.26-.04-.38-.06-.09-.01-.19-.02-.28-.03-.11-.02-.22-.08-.32-.05-.21.06-.36-.05-.51-.16-.3-.2-.64-.35-.99-.4-.26-.04-.43-.21-.64-.31-.11-.05-.1-.2-.04-.32.19-.39.24-.8.27-1.23.02-.25.08-.49.13-.74.03-.16.07-.32.1-.48.06-.34.08-.69.19-1.01.17-.5.16-1.04.37-1.53.05-.11.05-.26.03-.38-.03-.15,0-.28.08-.4.19-.3.23-.63.21-.97,0-.12.03-.25.06-.37.04-.19.14-.38.12-.57-.03-.32.01-.61.2-.89.19.05.39.1.59.15.14.03.28.05.42.07.09.01.18,0,.26.04.61.26,1.24.19,1.87.12.06,0,.13-.04.19-.02.23.06.45.04.68,0,.34-.05.69-.06,1.07-.08-.01.1-.02.2-.05.3-.07.27-.14.54-.21.82-.01.04,0,.1-.03.12-.29.3-.25.73-.42,1.08-.1.2-.16.43-.22.65-.04.15-.04.32-.07.48-.03.16-.1.31-.13.47-.04.18-.07.36-.11.54-.02.1-.07.2-.11.3-.03.08-.11.16-.1.23.02.24-.07.44-.12.66-.07.28-.04.5.3.62-.14.25-.06.46.04.67.22.44.51.81.95,1.06.03.02.06.04.09.05.37.04.66.29,1.01.36.16.03.35-.05.5,0,.16.06.3.1.47.09.32,0,.65.02.97.03.14.2.46.18.53.47.02.11.11.21.19.3.21.24.34.5.27.87Z"/>
      <path class="cls-2" d="m4.1,86.67c.33-.04.6.06.87.14.11.03.23.03.35.05.06,0,.14,0,.19.02.38.19.76.24,1.17.11.07-.02.19-.01.25.03.22.14.47.16.7.11.34-.07.67,0,1-.03.27-.03.54-.04.82-.06-.02.08-.04.2-.08.3-.17.36-.39.69-.5,1.06-.1.33-.33.58-.47.87-.17.34-.3.7-.45,1.06-.03.07-.04.16-.08.21-.19.24-.25.52-.29.82,0,.05-.01.12-.04.15-.24.23-.25.56-.33.84-.08.27-.08.58-.06.88.02.29.1.58.17.87.01.05.03.12.07.15.2.17.23.42.33.63.19.38.44.71.76,1,.06.05.12.1.16.17.27.43.63.74,1.07.98.02.01.04.03.05.04.39.36.79.72,1.16,1.09.13.13.21.32.33.5-.28.07-.53.13-.79.19-.04,0-.09,0-.13,0-.43-.05-.86-.11-1.29-.14-.16-.01-.29-.06-.43-.12-.16-.07-.33-.13-.49-.2-.08-.03-.17-.06-.23-.12-.25-.26-.6-.27-.93-.43.01.02-.01,0-.01-.02,0-.35-.32-.5-.64-.36-.22.1-.46.14-.7.1-.4-.08-.81-.12-1.2-.28-.13-.05-.27-.08-.4-.13-.07-.02-.14-.06-.2-.1-.23-.14-.45-.3-.68-.44-.12-.07-.27-.1-.39-.17-.06-.03-.13-.11-.12-.16.01-.25.05-.5.07-.74.02-.3.03-.6.04-.91,0-.09.03-.19.04-.28.06-.33.12-.66.17-.99.02-.13.03-.26.04-.39,0-.09.03-.18,0-.26-.09-.31,0-.6.1-.89,0-.02.02-.04.02-.06.02-.54.25-1.03.32-1.55,0-.06.03-.13.03-.2-.02-.42.1-.82.22-1.21.02-.07.02-.15.03-.23.05-.2.11-.4.15-.6.03-.17.03-.35.07-.52.06-.26.13-.52.21-.81Z"/>
      <path class="cls-2" d="m3.17,24.01c-.17-.39-.12-.8-.16-1.2-.03-.28-.04-.56-.09-.83-.07-.42-.08-.84-.05-1.26.02-.22-.01-.44-.04-.65-.05-.42,0-.8.23-1.17.1-.17.16-.38.24-.57.02-.05.04-.12.08-.14.3-.16.51-.45.84-.56.08-.03.17-.05.24-.09.22-.14.43-.29.65-.44.22-.15.47-.28.66-.46.39-.38.87-.39,1.36-.41.25,0,.5-.02.75,0,.12,0,.24.07.37.1.37.09.74.17,1.11.26.27.07.55.15.82.25.31.11.61.25.91.37.01,0,.02.01.03.01.31-.08.46.17.66.32.11.09.23.17.36.23.27.14.52.3.68.58,0,0,.01.02.02.03.38.19.45.65.76.91.12.1.21.24.29.33-.39.07-.82.14-1.24.21-.11.02-.21.05-.32.06-.41.05-.82.08-1.22.13-.14.02-.27.08-.4.12-.04.01-.08.06-.12.05-.27-.05-.48.13-.71.21-.05.02-.1.05-.15.06-.49.05-.94.23-1.38.45-.39.19-.79.33-1.19.5-.04.02-.09.02-.12.05-.4.32-.95.41-1.31.78-.05.05-.12.11-.19.12-.31.05-.53.25-.77.41-.09.06-.19.1-.28.16-.23.17-.45.34-.67.52-.21.18-.4.37-.62.57Z"/>
      <path class="cls-2" d="m11.47,33.26c.43-.36.78-.68,1.33-.65.41.02.82-.06,1.23-.09.36-.03.72-.04,1.12-.07.07.12.16.26.25.39.13.19.25.38.39.56.21.28.44.54.64.82.09.12.09.32.19.41.25.22.37.53.56.8.12.18.19.39.37.53.02.01.03.04.04.05.31.14.36.46.51.72.09.16.17.3.34.37.15.06.25.16.22.35-.01.09.05.19.09.27.1.18.21.36.33.57-.29.05-.48.3-.79.27-.07,0-.16.03-.21.07-.22.2-.49.2-.75.27-.58.16-1.15.33-1.73.49-.15.04-.3.06-.47.09-.06-.08-.13-.16-.19-.25-.18-.32-.33-.65-.59-.93-.09-.1-.11-.27-.16-.41-.02-.05-.01-.12-.04-.16-.23-.28-.27-.7-.65-.9.04-.25-.03-.45-.21-.62-.04-.03-.07-.09-.08-.14-.03-.24-.12-.44-.35-.56-.03-.01-.04-.05-.06-.08-.23-.45-.46-.9-.69-1.36-.03-.06-.03-.13-.04-.19-.01-.16-.1-.25-.23-.34-.12-.08-.23-.19-.38-.32Z"/>
      <path class="cls-1" d="m23.1,46.91c-.03-.18-.05-.32-.07-.47-.02-.19-.05-.39-.06-.58-.02-.37.03-.75-.22-1.07-.02-.02-.04-.06-.03-.09.08-.42-.25-.68-.38-1.09.2-.37.44-.8.7-1.26.2.32.52.48.82.67.11.07.2.16.3.24.03.03.06.07.1.08.44.09.82.34,1.32.29.39-.04.77-.07,1.15-.14.23-.04.45-.14.72-.23.09.11.19.28.33.39.38.29.46.75.66,1.14.05.09.05.21.07.32.04.21.09.43.1.64,0,.2-.02.41-.09.6-.06.17-.14.35-.36.44-.15.06-.27.14-.44.15-.13,0-.27.05-.37.12-.15.11-.31.15-.49.13-.04,0-.09,0-.13.01-.2.07-.4.19-.61.21-.21.02-.42-.01-.64.02-.21.03-.45-.05-.67-.08-.16-.03-.32-.07-.48-.1-.21-.03-.44-.04-.64-.09-.21-.06-.4-.17-.58-.25Z"/>
      <path class="cls-1" d="m14.33,39.75c-.27.12-.51.26-.78.36-.14.05-.3.03-.44.08-.29.09-.57.22-.86.32-.25.08-.53.1-.75.28-.1.08-.25.03-.36-.11-.25-.32-.52-.62-.89-.84-.29-.17-.56-.4-.6-.81-.03-.26-.18-.51-.26-.77-.05-.16-.08-.32-.12-.48-.03-.14-.04-.29-.11-.41-.11-.19-.13-.38-.15-.59-.06-.49-.16-.98-.23-1.48-.02-.1.02-.21.03-.32.35,0,.69,0,1.02,0,.24,0,.47.06.71-.04.06-.03.13-.03.19-.05.29-.13.59-.27.9-.42.25.42.49.83.73,1.24.02.04.03.08.03.12,0,.04-.02.1,0,.13.11.2.25.38.33.58.08.21.12.43.39.49-.05.44.27.72.39,1.07.06.16.25.22.32.4.15.42.34.83.51,1.24Z"/>
      <path class="cls-2" d="m22.61,57.96c-.15-.02-.35-.05-.59-.08-.09-.3-.18-.63-.28-.95,0-.03,0-.07-.03-.09-.21-.21-.2-.51-.31-.76-.11-.25-.15-.52-.24-.78-.05-.14-.15-.27-.21-.4-.19-.44-.38-.88-.56-1.32-.02-.05-.06-.11-.04-.15.08-.2-.03-.36-.09-.53-.14-.41-.27-.83-.43-1.24-.08-.21-.19-.41-.29-.61-.11-.24-.22-.47-.32-.71-.03-.07-.04-.16,0-.22.18-.37.38-.73.57-1.09.02-.04.06-.06.1-.1.19.19.4.28.66.1.26.23.58.2.89.2.31,0,.61-.02.92-.03.11,0,.22-.01.32-.04.47-.13.56-.27.5-.76,0-.04,0-.08,0-.16.2.13.13.33.21.47.08.15.13.32.22.53-.23.08-.45.16-.68.23-.23.07-.47.1-.68.21-.3.16-.67.15-.96.39-.15.13-.4.15-.61.19-.25.05-.35.15-.3.41.06.31.08.63.26.91.05.07.07.16.1.24.15.5.47.77,1,.75.02,0,.04.01.08.03.1.33.22.67.32,1.01.12.41.28.8.51,1.17.09.13.15.29.21.44.15.41.38.47.76.28.3-.15.63-.24.94-.35.15-.06.31-.11.46-.18.14-.06.28-.14.45-.04.01.03.03.07.04.11.1.53.25,1.04.47,1.52.03.07.04.15.06.22.06.32-.16.63-.49.61-.33-.02-.59.13-.88.21-.15.04-.28.13-.44.05-.03-.02-.09-.01-.13,0-.3.07-.59.15-.89.22-.2.05-.4.08-.64.14Z"/>
      <path class="cls-1" d="m26.89,37.45c.04.2.08.37.13.58-.09.03-.17.06-.25.08-.24.05-.4.18-.46.42-.05.22.01.4.19.56.19.17.2.37.02.56-.13.14-.24.29-.39.4-.22.17-.26.36-.17.61.02.05.02.1.04.18-.31.06-.42.28-.43.61-.16-.03-.32-.02-.43-.09-.4-.27-.9-.27-1.31-.5-.34.01-.58-.23-.89-.31-.12-.03-.22-.03-.35.02-.11.05-.25.02-.37.06-.24.08-.52.12-.65.41-.02,0-.04-.02-.06-.02-.3-.78-.6-1.55-.91-2.36.13-.03.22-.04.32-.07.1-.03.2-.08.3-.12.1-.04.19-.09.28-.15.24-.17.48-.35.7-.54.07-.06.09-.17.12-.27.03-.08.03-.17.06-.26.15-.45.41-.76.91-.85.12-.02.22-.12.34-.18.2-.1.38-.32.66-.14-.01.04-.02.08-.04.12-.17.29-.34.58-.51.87-.07.13-.06.25.03.37.11.13.25.15.41.13.39-.05.79-.07,1.18-.1.06,0,.13,0,.19.02.43.16.86.08,1.31,0Z"/>
      <path class="cls-2" d="m1.18,56.17c0-.09.03-.18.03-.28,0-.34.01-.67.02-1.01,0-.27-.02-.55.03-.81.05-.26.09-.51-.04-.8.23.02.43.04.63.07.19.03.38.08.57.1.41.04.81.12,1.21.25.03.01.07.03.09.02.34-.09.68.08,1.02.02.03,0,.07-.01.1,0,.27.05.54.12.82.17.11.02.22.02.35.04-.02.13-.03.27-.05.4-.02.13-.03.26-.05.39,0,.06,0,.13-.04.19-.12.22-.12.46-.16.69-.07.38-.11.75-.16,1.13-.01.1-.12.19-.19.29-.35-.11-.67-.21-.98-.31-.07-.02-.15,0-.23,0-.05,0-.12.02-.15,0-.24-.15-.52-.14-.78-.18-.36-.05-.72-.09-1.06-.24-.1-.05-.24-.06-.35-.03-.22.06-.41.02-.63-.08Z"/>
      <path class="cls-2" d="m26.77,36.04c.17.24.34.37.58.44.31.09.48.39.69.62.1.11.18.25.28.36.35.38.54.83.68,1.32.08.3.27.58.2.92-.05.21-.04.41.08.6-.19.17-.33.34-.31.6,0,.05-.03.11-.06.15-.19.22-.4.43-.58.66-.21.26-.52.37-.77.56-.39.31-.83.48-1.3.57-.24.05-.5.08-.77.02-.36-.09-.73-.06-1.09-.17-.09-.03-.2-.04-.27-.1-.21-.2-.42-.41-.44-.73,0-.06,0-.12.02-.22.27.08.52.17.77.24.12.04.25.05.38.08.1.03.21.06.31.1.2.07.38.09.54-.08.05-.05.13-.07.2-.1.17-.08.3-.2.39-.38.06-.12.13-.26.24-.34.19-.16.27-.33.19-.58,0-.03,0-.06,0-.12.08-.05.18-.1.26-.17.08-.07.15-.16.2-.25.06-.11.11-.23.14-.36.03-.1.05-.22.02-.31-.06-.17-.16-.33-.25-.53.04-.16.12-.31.3-.41.06-.03.14-.1.14-.16.02-.29.16-.57.09-.87-.07-.29-.22-.48-.51-.52-.22-.03-.45-.01-.68-.02-.05,0-.1,0-.18-.02.17-.27.33-.51.51-.8Z"/>
      <path class="cls-2" d="m2.96,35.4c.03-.1.03-.15.06-.18.21-.2.44-.39.65-.59.19-.17.39-.34.57-.53.3-.33.59-.67.89-1.01.21.14.38.25.55.36.06.04.14.11.2.1.31-.02.55.22.84.23.03,0,.06.02.09.03.19.07.38.15.58.19.19.03.39,0,.62,0,0,.22.02.43.01.63-.02.41.08.79.15,1.19.08.45.14.91.32,1.33,0,0,0,.02,0,.03-.08.41.09.77.21,1.14.01.04,0,.1-.02.2-.45-.38-.85-.75-1.29-1.08-.24-.18-.46-.38-.64-.62-.12-.16-.25-.32-.39-.48-.05-.06-.11-.12-.17-.15-.3-.15-.58-.34-.91-.41-.07-.01-.14-.09-.19-.16-.13-.18-.29-.26-.51-.2-.07.02-.16.03-.22,0-.37-.22-.77-.09-1.15-.07-.07,0-.15.02-.27.04Z"/>
      <path class="cls-2" d="m1.41,52.65c-.13-.64,0-1.22.1-1.84.39.09.75.17,1.1.24.07.02.15.02.23.03.32.05.64.1.96.15.13.02.26.06.39.05.4-.04.79.01,1.17.11.43.12.86.1,1.29.17.03,0,.06.02.11.03.06.29-.02.55-.1.82-.09.28-.17.56-.27.87-.09.02-.24.04-.37-.08-.03-.03-.08-.04-.12-.04-.31,0-.62,0-.94,0-.05,0-.11-.01-.16-.03-.06-.02-.13-.07-.19-.06-.38.1-.69-.19-1.07-.18-.37.02-.74-.12-1.12-.18-.16-.03-.32-.03-.48-.04-.17-.01-.35-.02-.53-.03Z"/>
      <path class="cls-1" d="m33.51,25.33c0,.17-.07.31-.21.42-.1.08-.19.19-.25.3-.13.22-.27.41-.48.57-.16.12-.25.32-.37.49-.23.33-.45.66-.69.99-.15.2-.31.4-.47.58-.15.18-.28.35-.36.58-.05.16-.21.29-.33.43-.17.2-.23.48-.49.6-.12.33-.47.52-.53.89,0,.05-.06.12-.11.15-.18.09-.26.26-.36.41-.13.2-.28.38-.43.57-.17.21-.36.41-.44.69-.04.14-.2.24-.29.37-.08.12-.1.3-.21.39-.23.19-.39.41-.47.69-.01.04-.02.1-.05.12-.34.25-.45.66-.72.96-.22.25-.32.59-.48.88-.09.17-.19.34-.3.55-.16-.02-.34-.06-.52-.07-.18-.01-.37,0-.59,0,.15-.22.28-.44.45-.62.3-.35.57-.71.8-1.12.14-.25.32-.47.48-.7.09-.13.15-.3.27-.39.13-.11.19-.22.22-.38,0-.05.08-.1.13-.14.27-.21.51-.45.61-.79.02-.06.06-.12.11-.16.49-.4.87-.89,1.19-1.42.03-.06.08-.1.13-.15.23-.22.36-.5.5-.78.02-.03.02-.06.04-.09.19-.21.35-.45.57-.62.4-.31.68-.7.95-1.12.14-.22.28-.44.51-.58.05-.03.1-.09.14-.14.23-.34.59-.58.74-.98.03-.09.14-.17.23-.22.38-.23.56-.63.82-.96.08-.1.14-.19.28-.19h0Z"/>
      <path class="cls-1" d="m17.35,97.86c.05-.28.1-.54.15-.8.23.04.41.09.55.25.05.06.14.1.22.13.33.13.66.29,1.04.25.04,0,.11-.02.13,0,.23.26.59.17.86.33.05.03.11.06.15.06.31-.05.6.06.9.09.01,0,.02,0,.03,0,.24-.12.49-.09.75-.08.12,0,.25-.1.41-.17.13.09.27.22.44.31.2.11.41.19.63.27.37.15.74.29,1.12.42.17.06.36.08.55.09.29.03.59.04.88.05.02,0,.05,0,.07,0,.29-.15.62-.06.92-.14.42-.11.85-.17,1.29-.25.03.14.07.29.11.47-.34.03-.67.06-1.01.09-.04,0-.09,0-.13,0-.3.15-.62.09-.93.11-.14,0-.29.04-.42.09-.18.07-.34.06-.51,0-.07-.03-.16-.08-.22-.06-.41.15-.76-.1-1.15-.13-.27-.02-.53-.09-.77-.24-.1-.06-.25-.05-.36-.09-.17-.11-.34-.21-.51-.31-.03-.02-.06-.02-.09-.03-.18-.06-.31.2-.52.05-.17-.11-.36,0-.54.04-.09.02-.19.01-.28,0-.13,0-.27-.07-.39-.04-.41.1-.79-.07-1.18-.12-.45-.06-.87-.19-1.28-.39-.21-.1-.46-.12-.69-.18-.06-.02-.12-.05-.21-.09Z"/>
      <path class="cls-2" d="m24.36,51.61c.22.31.31.69.39,1.07.02.09.07.18.11.27.03.06.09.12.08.18-.08.4.26.66.3,1.06-.11.04-.24.09-.38.13-.19.06-.37.11-.56.18-.22.08-.44.18-.67.26-.09.03-.19.02-.25.03-.32-.83-.62-1.63-.93-2.44.07-.1.14-.2.22-.31.23.05.47.06.64-.16,0,0,.02-.01.03-.02.33-.08.67-.17,1.01-.25Z"/>
      <path class="cls-1" d="m21.6,37.53c-.31.13-.58.26-.85.37-.08.03-.17.08-.24.06-.24-.07-.46-.05-.65.17-.16-.28-.3-.53-.45-.77-.06-.09-.13-.19-.22-.23-.17-.07-.23-.21-.23-.36,0-.22-.11-.37-.27-.5-.14-.11-.29-.23-.41-.36-.07-.08-.06-.21-.12-.3-.16-.26-.34-.51-.5-.76-.14-.21-.34-.37-.4-.63-.02-.07-.08-.14-.15-.17-.29-.13-.35-.43-.53-.65.22.1.42.22.59.39.26.26.57.46.83.73.14.15.38.18.55.34.41.38.86.73,1.29,1.09.15.12.31.23.46.35.05.04.08.1.13.15.1.11.2.23.32.33.28.25.57.5.85.75Z"/>
      <path class="cls-2" d="m21.15,42.32c-.27.5-.54,1-.82,1.52-.18-.11-.32,0-.48.08-.3.13-.52.38-.81.52-.35.17-.56.6-.43,1.09.1.37.25.75.15,1.15-.02.07-.03.15-.06.22-.08.17-.17.34-.26.52-.1-.2-.27-.38-.28-.68-.01-.3-.2-.59-.32-.88-.05-.14-.11-.28-.16-.42-.01-.03-.01-.07-.03-.09-.11-.2-.21-.4-.33-.58-.16-.24-.12-.43.15-.49.35-.08.61-.31.91-.48.25-.14.55-.2.73-.44.46-.12.77-.47,1.16-.7.05-.03.09-.06.14-.08.25-.08.5-.16.73-.24Z"/>
      <path class="cls-1" d="m11.54,99.35c.1.18-.03.22-.12.24-.51.12-1.03.2-1.53.35-.33.1-.67-.04-.99.07-.02,0-.05,0-.06,0-.27-.22-.63-.17-.93-.29-.03-.01-.06-.03-.09-.03-.23,0-.43-.03-.57-.23-.47-.09-.75-.54-1.22-.63-.28-.3-.64-.27-1.01-.25-.21,0-.43-.03-.65-.03-.29,0-.5-.2-.74-.3-.31-.14-.62-.31-.9-.51-.13-.09-.2-.25-.3-.4.05-.07.1-.15.14-.22.35.19.69.34,1.01.55.2.13.38.27.61.35.46.15.92.31,1.42.28.27-.02.54-.07.81-.1.09-.01.17-.02.24-.03.26.34.5.68.95.74.07,0,.14.06.21.08.26.09.52.17.77.26.2.07.41.15.61.23.33.13.66.11,1,.06.14-.02.28-.02.42-.03.23-.02.45-.05.68-.08.08-.01.16-.03.24-.05Z"/>
      <path class="cls-1" d="m6.65,24.46c-.05.25-.1.51-.15.78-.11,0-.22,0-.33.01-.22.01-.4.08-.58.25-.17.16-.37.29-.48.51-.26.51-.13,1.16.32,1.5q.34.26.66.27c-.19.31-.37.6-.58.94-.2-.23-.36-.43-.53-.63-.24-.28-.47-.57-.73-.82-.11-.1-.18-.21-.24-.34-.09-.18-.19-.34-.3-.51.86-.81,1.81-1.48,2.85-2.03.03.02.06.04.09.06Z"/>
      <path class="cls-2" d="m24.15,50.89c-.34.17-.64.32-.94.47-.04.02-.08.04-.12.03-.24-.05-.39.08-.52.28-.34-.19-.66.02-.98.06-.25-.23-.33-.54-.41-.87.21-.1.38-.25.64-.27.24-.03.46-.17.69-.26.39-.14.77-.28,1.16-.42.05-.02.1-.02.17-.03.14.33.38.62.31,1Z"/>
      <path class="cls-1" d="m19.77,47.55c-.04.13-.05.25-.1.35-.23.41-.47.81-.7,1.22-.1.17-.2.34-.26.52-.16.45-.51.78-.67,1.23-.23.03-.39-.14-.61-.21.08-.16.15-.31.23-.46.29-.54.59-1.06.86-1.61.1-.21.28-.39.26-.66,0-.1.06-.21.11-.3.05-.1.14-.16.27-.14.18.03.37.04.63.07Z"/>
      <path class="cls-1" d="m21.3,45.43c.34-.3.51-.73.7-1.2.05.18.05.33.13.45.09.14.03.27.04.41.01.28.07.56.1.84.01.1.05.19.04.29-.03.32-.06.63.07.94-.08.04-.13.09-.19.09-.53.06-1.06.11-1.6.17-.08,0-.16.01-.23-.01-.05-.02-.07-.08-.11-.12.4-.1.8-.16,1.17-.28.19-.06.36-.2.52-.33.1-.08.11-.21.04-.33-.07-.13-.2-.19-.36-.14-.23.07-.45.14-.68.22-.07-.09-.01-.14.04-.22.11-.16.21-.33.29-.5.03-.07,0-.17,0-.27Z"/>
      <path class="cls-1" d="m20.49,45.88c-.06-.23-.11-.44-.15-.59.11-.24.19-.45.29-.65.15-.28.32-.54.47-.81.08-.15.15-.31.22-.47.14-.33.3-.64.52-.93.15-.2.25-.43.35-.66.1-.23.23-.42.44-.55.04-.03.12-.02.17,0,.03.01.04.09.04.14,0,.03,0,.07-.02.1-.11.23-.23.47-.35.7-.13.25-.28.49-.43.72-.12.19-.25.38-.37.57-.07.11-.11.24-.16.35-.03.07-.05.15-.1.21-.27.35-.44.75-.51,1.18,0,.02,0,.06,0,.06-.23.14-.24.42-.41.64Z"/>
      <path class="cls-2" d="m5.93,22.74c.46-.23.89-.44,1.32-.65.19.35,0,.75.27,1.03-.41.25-.85.42-1.31.66-.05-.19-.09-.36-.13-.53-.05-.17-.1-.33-.15-.51Z"/>
      <path class="cls-2" d="m9.4,21.22c.05-.03.06-.03.07-.04.39-.23.83-.29,1.28-.37.02.02.08.06.08.1,0,.31.19.56.31.85-.22.11-.41.21-.64.21-.12,0-.24.09-.35.14-.07.04-.14.09-.23.16-.18-.37-.35-.71-.52-1.05Z"/>
      <path class="cls-2" d="m9.01,21.37c.1.39.18.73.26,1.07-.13.12-.26.19-.44.2-.1,0-.2.07-.29.11-.13.06-.27.12-.43.2-.09-.42-.35-.75-.28-1.17.38-.14.76-.27,1.17-.42Z"/>
      <path class="cls-2" d="m4.72,24.85c-.08-.33-.13-.65-.22-.96-.06-.21,0-.34.17-.44.26-.15.52-.29.82-.45,0,.34.07.62.19.89.09.21.03.32-.15.44-.27.18-.54.35-.81.52Z"/>
      <path class="cls-2" d="m11.21,20.71c.43-.1.83-.2,1.24-.29.14.32.27.62.41.94-.35.09-.68.17-1.06.27-.1-.11-.2-.25-.26-.45-.05-.15-.19-.28-.33-.47Z"/>
      <path class="cls-2" d="m3.87,24c.12.41.24.8.37,1.22-.21.23-.45.49-.71.78-.05-.17-.1-.32-.14-.48-.06-.27-.13-.55-.18-.82-.02-.11.01-.2.12-.28.19-.13.36-.28.54-.43Z"/>
      <path class="cls-1" d="m19.56,46.78c-.1-.49-.18-.9-.28-1.31-.07-.32.09-.62.41-.74.15-.06.28-.15.41-.23-.2.55-.27,1.14-.28,1.74,0,.13-.03.26-.07.38-.02.06-.11.1-.19.16Z"/>
      <path class="cls-1" d="m22.55,48.38c-.27.02-.53.05-.79.05-.38,0-.76-.05-1.14.12-.1-.14-.15-.28-.07-.48.37-.03.76-.05,1.15-.08.15-.01.3-.04.45-.08.24-.06.32-.03.38.21.02.07.01.15.02.26Z"/>
      <path class="cls-2" d="m13.79,20.11c.11.1.16.23.17.39,0,.23.03.47.04.74-.17.03-.33.05-.53.08-.12-.31-.24-.59-.36-.88.23-.11.45-.22.67-.33Z"/>
      <path class="cls-1" d="m34.11,24.63c.06-.13.13-.26.19-.4.02.01.04.02.06.03-.06.14-.12.27-.17.41-.03-.02-.05-.03-.08-.05Z"/>
      <path class="cls-1" d="m35.03,23.48c.08-.14.16-.28.24-.43-.02.22-.04.25-.25.42h0Z"/>
      <path class="cls-1" d="m35.02,23.47c-.03.16-.06.32-.26.41.05-.18.14-.31.27-.4,0,0,0,0,0,0Z"/>
      <path class="cls-1" d="m33.52,25.34c.08-.12.16-.24.23-.36.02.02.05.04.07.05-.09.11-.17.23-.31.3,0,0,0,0,0,0Z"/>
      <path d="m13.06,26.56c-.01-.08,0-.14-.03-.16-.28-.3-.28-.72-.46-1.07-.13-.25-.17-.54-.25-.81-.02-.06-.01-.13,0-.19.06-.23.23-.29.42-.13.06.05.11.11.13.18.14.33.26.67.4,1,.06.15.16.29.21.45.09.28.18.56.24.84.02.09-.03.22-.1.29-.14.14-.3.27-.54.28-.28.02-.55.1-.82.15-.07.01-.16.03-.23,0-.09-.04-.2-.11-.23-.2-.02-.06.05-.17.11-.25.04-.05.11-.08.17-.1.26-.07.52-.12.78-.18.06-.01.12-.05.19-.08Z"/>
      <path d="m13.49,28.77c.03.59-.32.97-.78,1.21-.1.05-.27.03-.37-.02-.61-.3-.82-.88-.57-1.52.06-.16.1-.31.23-.45.2-.21.45-.24.7-.29.09-.02.24.02.3.09.25.29.52.57.49.99Z"/>
      <path class="cls-2" d="m10.24,25.82c.16.06.33.1.48.19.26.15.29.46.03.62-.24.15-.45.36-.77.39-.27.03-.47-.05-.69-.15-.18-.08-.19-.34-.06-.52.2-.27.48-.41.8-.47.06-.01.13-.01.2-.01,0-.02.01-.03.02-.05Z"/>
      <path d="m10.6,25.06c0,.19-.25.47-.43.47-.27,0-.5-.18-.5-.41,0-.23.22-.49.43-.5.28,0,.49.18.5.45Z"/>
      <path d="m13.81,24.68c-.26,0-.44-.15-.43-.38,0-.28.18-.44.46-.43.18,0,.37.2.37.39,0,.21-.19.42-.4.42Z"/>
      <path class="cls-1" d="m12.51,28.26c.24.07.32.22.33.42,0,.16.01.33,0,.49-.02.33-.06.35-.43.3-.11-.41-.22-.81.1-1.21Z"/>
    </g>
  </g>
</svg>