<?xml version="1.0" encoding="UTF-8" standalone="no"?>
<svg
   width="599"
   height="135"
   viewBox="0 0 599 135"
   fill="none"
   version="1.1"
   id="svg19"
   sodipodi:docname="wave-section1 .svg"
   inkscape:version="1.2.2 (732a01da63, 2022-12-09)"
   xmlns:inkscape="http://www.inkscape.org/namespaces/inkscape"
   xmlns:sodipodi="http://sodipodi.sourceforge.net/DTD/sodipodi-0.dtd"
   xmlns="http://www.w3.org/2000/svg"
   xmlns:svg="http://www.w3.org/2000/svg">
  <defs
     id="defs23" />
  <sodipodi:namedview
     id="namedview21"
     pagecolor="#ffffff"
     bordercolor="#000000"
     borderopacity="0.25"
     inkscape:showpageshadow="2"
     inkscape:pageopacity="0.0"
     inkscape:pagecheckerboard="0"
     inkscape:deskcolor="#d1d1d1"
     showgrid="false"
     inkscape:zoom="2.9716194"
     inkscape:cx="226.13933"
     inkscape:cy="103.98371"
     inkscape:window-width="1920"
     inkscape:window-height="991"
     inkscape:window-x="-9"
     inkscape:window-y="-9"
     inkscape:window-maximized="1"
     inkscape:current-layer="svg19" />
  <path
     d="M 78,100.993 C 64.5,94.501 22.000655,80.761947 6.558e-4,95.443947 L -0.00565087,-0.01481105 310.981,6.10352e-5 599.02581,-0.02097127 599.00478,95.576738 C 578.70578,108.33484 525.223,133.955 475.705,133.955 c -61.896,0 -92.844,-41.2172 -152.744,-38.2731 -59.9,2.944 -56.42909,37.45547 -129.30709,38.92747 C 120.77591,136.08137 127.747,124.918 78,100.993 Z"
     fill="#ffea20"
     id="path17"
     sodipodi:nodetypes="ccccccscsc" />
  <path
     style="fill:#00ffff;stroke:#00ffff"
     d="M 0.0078125,95.460937 0.00552427,135.00768 599.00391,135.00781 V 95.575425 c 0,0 -65.05414,38.781395 -124.31641,38.424575 -59.26227,-0.35682 -93.20339,-39.247692 -145.17574,-38.717362 -51.97235,0.530331 -57.27565,21.036432 -92.63099,32.880462 -35.35534,11.84404 -97.22718,6.67332 -116.36326,-4.02167 C 101.38143,113.44644 69.915183,91.835493 34.471456,89.095454 -0.97227182,86.355415 -7.6013979,103.67953 -7.6013979,103.67953 Z"
     id="path865" />
</svg>
