<?xml version="1.0" encoding="UTF-8"?>
<svg id="_レイヤー_1" data-name=" レイヤー 1" xmlns="http://www.w3.org/2000/svg" viewBox="0 0 287.23 87.55">
  <defs>
    <style>
      .cls-1 {
        stroke-width: 2.5px;
      }

      .cls-1, .cls-2 {
        fill: none;
        stroke: #30acd0;
        stroke-miterlimit: 10;
      }

      .cls-3 {
        fill: #30acd0;
      }

      .cls-4 {
        fill: tomato;
      }

      .cls-2 {
        stroke-width: 3px;
      }
    </style>
  </defs>
  <g>
    <path class="cls-1" d="M282.03,29.74c-18.08-9.88-49.03-23.7-89.8-27.5C129.26-3.62,81.05,17.96,61.48,28.09"/>
    <path class="cls-4" d="M54.33,35.33c-1.01,.96-2.61,.91-3.57-.1-.14-.15-.26-.32-.36-.49,.55,.37,1.3,.32,1.79-.15,.58-.55,.61-1.47,.06-2.05-.51-.54-1.34-.6-1.92-.16,.13-.26,.3-.5,.53-.72,1.01-.96,2.61-.91,3.57,.1,.96,1.01,.91,2.61-.1,3.57Z"/>
    <path class="cls-4" d="M28.82,41.99c-.81,1.32-1.5,2.67-2.11,4.02,.82-.24,1.71-.37,2.72-.29,4.13,.35,5.97,3.59,8.45,5.74-.36-.59-.47-1.3-.29-1.95-.82,.17-1.71-.07-2.33-.72s-.81-1.55-.59-2.36c-.82,.17-1.71-.07-2.33-.72-.95-1-.9-2.58,.1-3.53,.15-.14,.38-.13,.52,0,.14,.15,.13,.38,0,.52-.7,.66-.73,1.78-.07,2.48s1.78,.73,2.48,.07c.15-.14,.38-.13,.52,0,.14,.15,.13,.38,0,.52-.7,.67-.73,1.78-.07,2.48,.67,.7,1.78,.73,2.48,.07,.15-.14,.38-.13,.52,0,.14,.15,.13,.38,0,.52-.7,.66-.73,1.78-.07,2.48s1.78,.73,2.48,.07c.15-.14,.38-.13,.52,0,.14,.15,.13,.38,0,.52-.36,.34-.54,.79-.55,1.24,.42,.09,.86,.16,1.34,.16,2.14,.02,3.65-.93,5.01-2.16-.61-.04-1.2-.29-1.65-.77-.62-.65-.81-1.55-.59-2.36-.82,.17-1.71-.07-2.33-.72s-.81-1.55-.59-2.36c-.82,.17-1.71-.07-2.33-.72s-.81-1.55-.59-2.36c-.82,.17-1.71-.07-2.33-.72-.95-1-.9-2.58,.1-3.53,.15-.14,.38-.13,.52,0,.14,.15,.13,.38,0,.52-.7,.66-.73,1.78-.07,2.48s1.78,.73,2.48,.07c.15-.14,.38-.13,.52,0,.14,.15,.13,.38,0,.52-.7,.66-.73,1.78-.07,2.48,.67,.7,1.78,.73,2.48,.07,.15-.14,.38-.13,.52,0s.13,.38,0,.52c-.7,.66-.73,1.78-.07,2.48s1.78,.73,2.48,.07c.15-.14,.38-.13,.52,0,.14,.15,.13,.38,0,.52-.7,.67-.73,1.78-.07,2.48,.55,.58,1.4,.69,2.08,.35,1.99-2.02,3.88-4.33,7.31-4.57,.52-.04,1.01,0,1.49,.05,3.23-6.15,4.37-12.57,4.59-16.19l-.04,.04s.03-.06,.04-.08c.09-.15,.11-.51-.05-.9-.02-.05-.08-.19-.31-.5-.14-.19-.37-.5-.75-.86-.2-.19-.47-.42-.82-.65-2.8-.13-6.6,0-10.92,1.1-6.82,1.74-11.65,5.04-14.35,7.23-.37-.03-.78-.02-1.23,.04l-3.76,.57c-2.93,.44-3.81,2.7-1.96,5.01l1.1,1.38v.07Zm21.66-10.87c1.31-1.24,3.38-1.18,4.61,.13,1.24,1.31,1.18,3.38-.13,4.61-1.31,1.24-3.38,1.18-4.61-.13-1.24-1.31-1.18-3.38,.13-4.61Zm-8.09,2.08c.02-.31,.28-.54,.59-.52s.54,.28,.52,.58c0,.04-.18,4.13,3.16,7.66,3.33,3.52,7.29,3.44,7.33,3.44,.31,0,.56,.23,.57,.53,0,.17-.06,.32-.17,.42-.09,.09-.22,.15-.36,.15-.18,0-4.48,.11-8.17-3.79-3.68-3.89-3.47-8.3-3.46-8.49v.02Z"/>
    <path class="cls-2" d="M29.62,47.08c6.21,.52,7.24,7.61,13.06,7.66,5.91,.05,7.06-7.22,13.29-7.66,7.03-.49,9.34,8.49,16.44,8.11,1.62-.09,2.94-.63,4.11-1.4,.26-1.78,.4-3.6,.4-5.45,0-20.83-16.88-37.71-37.71-37.71S1.9,27.14,1.53,47.65c3.98,1.8,6.56,6.88,12.33,6.87,7.22-.02,9.07-8,15.77-7.43h-.01Z"/>
    <path class="cls-2" d="M72.42,64.54c-7.1,.38-9.42-8.6-16.44-8.11-6.23,.44-7.38,7.71-13.29,7.66-5.83-.05-6.85-7.13-13.06-7.66-6.7-.56-8.55,7.41-15.77,7.43-5.2,0-7.81-4.12-11.19-6.25,1.4,5.55,4.04,10.61,7.59,14.87,1.06,.45,2.24,.73,3.6,.73,7.22-.02,9.07-8,15.77-7.43,6.21,.52,7.24,7.61,13.06,7.66,5.91,.05,7.06-7.22,13.29-7.66,5.31-.37,7.93,4.67,11.96,6.99,2.14-2.52,3.96-5.31,5.39-8.33-.29,.05-.59,.09-.91,.11h0Z"/>
    <path class="cls-2" d="M29.62,56.43c6.21,.52,7.24,7.61,13.06,7.66,5.91,.05,7.06-7.22,13.29-7.66,7.03-.49,9.34,8.49,16.44,8.11,.31-.02,.61-.06,.91-.11,1.56-3.31,2.66-6.89,3.2-10.64-1.17,.77-2.5,1.31-4.11,1.4-7.1,.38-9.42-8.6-16.44-8.11-6.23,.44-7.38,7.71-13.29,7.66-5.83-.05-6.85-7.13-13.06-7.66-6.7-.56-8.55,7.41-15.77,7.43-5.77,0-8.35-5.07-12.33-6.87,0,.23-.02,.46-.02,.7,0,3.2,.4,6.3,1.15,9.27,3.38,2.13,5.99,6.26,11.19,6.25,7.22-.02,9.07-8,15.77-7.43h.01Z"/>
    <path class="cls-2" d="M55.97,65.78c-6.23,.44-7.38,7.71-13.29,7.66-5.83-.05-6.85-7.13-13.06-7.66-6.7-.56-8.55,7.41-15.77,7.43-1.36,0-2.54-.28-3.6-.73,6.92,8.29,17.32,13.57,28.96,13.57s21.8-5.16,28.72-13.29c-4.03-2.32-6.65-7.36-11.96-6.99h0Z"/>
    <path class="cls-3" d="M134.5,58.08v-.14c-.15-.69-.03-1.34,.36-1.95,.39-.6,.93-.98,1.63-1.13,6.4-1.39,11.1-2.08,14.12-2.08,9.29,0,13.94,3.88,13.94,11.63,0,9.26-7.06,14.13-21.18,14.62-.72,.03-1.37-.2-1.92-.7-.56-.5-.85-1.11-.88-1.83v-.04c-.06-.69,.14-1.29,.61-1.79s1.05-.76,1.74-.79c5.58-.21,9.61-1.06,12.08-2.56,2.47-1.49,3.71-3.66,3.71-6.49,0-2.32-.69-4.03-2.06-5.11-1.37-1.09-3.57-1.63-6.58-1.63-2.5,0-6.67,.65-12.49,1.95-.66,.15-1.3,.04-1.92-.34s-1-.91-1.15-1.61h-.01Z"/>
    <path class="cls-3" d="M184.36,79.3c-.69,0-1.29-.25-1.79-.75s-.75-1.09-.75-1.79V44.46c0-.69,.25-1.29,.75-1.79s1.09-.75,1.79-.75h1.22c.69,0,1.3,.25,1.81,.75s.77,1.09,.77,1.79v9.77c0,.27,.11,.42,.32,.45,7.18,1.75,14.48,3.94,21.9,6.56,.66,.24,1.15,.68,1.47,1.31s.35,1.3,.11,1.99l-.27,.86c-.24,.66-.67,1.15-1.29,1.45-.62,.3-1.26,.35-1.92,.14-7.15-2.5-13.82-4.54-20-6.11-.09-.03-.17,0-.23,.07-.06,.08-.09,.16-.09,.25v15.57c0,.69-.26,1.29-.77,1.79-.51,.5-1.12,.75-1.81,.75h-1.22Z"/>
    <path class="cls-3" d="M223.28,63.09l-.41-.32c-.51-.45-.78-1.03-.81-1.74-.03-.71,.18-1.32,.63-1.83,3.77-4.31,6.24-9.25,7.42-14.8,.15-.72,.5-1.31,1.06-1.76,.56-.45,1.2-.66,1.92-.63l.77,.04c.69,.06,1.27,.36,1.72,.91,.45,.54,.62,1.15,.5,1.81-.03,.3-.11,.68-.23,1.13-.06,.24,.05,.36,.32,.36h16.97c.72,0,1.34,.25,1.86,.75,.51,.5,.75,1.09,.72,1.79-.21,9.59-2.52,16.78-6.92,21.56s-11.33,7.73-20.77,8.85c-.72,.09-1.38-.09-1.97-.54-.59-.45-.94-1.04-1.06-1.76l-.09-.36c-.12-.66,.03-1.27,.45-1.83,.42-.56,.98-.88,1.67-.97,7.45-1,12.87-3.13,16.27-6.4,3.39-3.27,5.36-8.36,5.91-15.27,0-.24-.12-.36-.36-.36h-14.3c-.27,0-.45,.12-.54,.36-1.6,3.95-3.94,7.59-7.01,10.91-.48,.54-1.09,.82-1.81,.84s-1.36-.22-1.9-.7v-.04Z"/>
  </g>
  <path class="cls-3" d="M266.21,69.62c-.67-.3-1.04-1.01-1.11-2.1-.07-1.1,.17-2.3,.72-3.59l13.8-32.08c.53-1.24,1.22-2.22,2.09-2.93,.86-.71,1.61-.92,2.25-.62l2.26,1.03c.64,.29,.98,.99,1.01,2.11,.03,1.11-.24,2.28-.83,3.5l-15.06,31.51c-.61,1.27-1.35,2.24-2.23,2.91-.88,.67-1.65,.85-2.32,.55l-.59-.27v-.02Zm-1.01,4.92c.64,.29,1.07,.81,1.29,1.54,.22,.74,.17,1.46-.16,2.18l-.55,1.21c-.32,.72-.84,1.23-1.54,1.55s-1.37,.33-2.01,.04l-1.42-.65c-.64-.29-1.07-.8-1.29-1.54s-.17-1.46,.16-2.18l.55-1.21c.32-.71,.84-1.23,1.54-1.55s1.37-.33,2.01-.04l1.42,.65Z"/>
</svg>