<?xml version="1.0" encoding="UTF-8"?>
<svg id="_レイヤー_1" data-name=" レイヤー 1" xmlns="http://www.w3.org/2000/svg" viewBox="0 0 559 330">
  <defs>
    <style>
      .cls-1 {
        fill: #33d130;
      }

      .cls-2 {
        fill: #154913;
      }
    </style>
  </defs>
  <path class="cls-1" d="m187.48-58.74l1.43-8.58,1.43-5.01,4.29-4.29,2.86-2.86h6.44l5.72-5.01h5.48l3.82,1.43h2.86l5.72-3.58,6.44-2.86h5.01l3.58,2.15h5.01l4.77-2.15,3.1-1.43h6.12l3.18,3.58,5.72.72,5.01,4.29,5.01-.72,3.58-2.86h14.31l2.86.72,1.35-5.72,7.23-2.15,7.15,9.3,10.73,5.01,10.73,5.01,7.87-6.44,1.43-6.44v-6.44l7.15-12.88,9.3-2.15h7.07l4.37-6.44,9.3-2.86,20.03-2.15,7.15,2.86h4.29l2.86-.72h2.86l2.86-2.15-5.72-2.86,11.45-5.01v6.92l1.43,4.53v3.74l-4.29,2.7,2.86,5.72,5.01,5.72,8.66,5.01,4.21,2.15,5.01,1.43,5.72.72-2.15,7.87-4.29,6.44-5.72,9.3-4.29-2.15-5.72-.72,6.44,5.01,7.15,2.86v3.58l-2.86,2.86h-4.13l-3.74,5.01-.72,6.44-4.29-2.86,2.15,7.87h1.83l.32,12.88-34.34-15.02-11.45.72,15.02,5.01,6.44,3.58,10.02,5.72,10.02,5.72-1.43,7.15-2.86,3.58-5.72-2.15-2.54,2.15,2.54,2.86h6.99l3.02,2.86-.72,3.58s-.79-1.43-3.26,0c-2.46,1.43-4.61,1.43-4.61,1.43l4.29,3.58h3.18l-3.18,2.86,2.15,4.29h3.26l1.03,3.58-2.86,1.43,1.43,5.72h1.67l-.95,2.86,2.86,4.29h4.13l1.59,1.43,10.02-4.29-2.86-1.43.72-5.72,6.44,2.46,3.58,6.12,5.72,12.88,2.15,6.44,5.72,6.44h3.5l9.38,4.29-5.72,3.58h3.34l-7.63,5.01h12.4l3.34,5.01h-10.33l8.19,3.58-1.43,10.73-.4,3.58h-5.41l-3.5,6.44-.72,4.29-2.86,2.15-3.58,1.43h-7.79l1.35,3.58s1.43,1.43,1.43,2.15-4.29,1.43-4.29,1.43h-8.03l-3.42,9.3,5.72-2.86,2.86-2.15-.72,5.01,1.43,2.86-2.15,3.58-.72,1.43,9.3-1.43s.72-.72,4.29-.72,7.87-1.43,7.87-1.43h15.02s6.44,4.29,5.01,5.01-6.36,0-6.36,0c0,0-5.8.72-7.23,1.43-1.43.72-4.29,2.15-4.29,2.15v2.86s2.31-.72,2.94,0c.64.72,5.25.72,7.95,0s4.13-.72,5.56-.72,5.01-1.43,5.01-1.43l6.44-3.58,4.29,1.43,2.86,4.83s-8.58,4.47-9.3,4.47-7.15,2.15-7.15,2.15l-6.44,5.01s-5.01,1.43-6.44,2.15-5.72,2.86-6.44,3.58-18.6,10.02-18.6,10.02l-2.86,1.43-1.43,3.58h-2.7l-.16-2.15h-7.87l-4.29,3.58-2.86,3.58-2.86,3.58-2.15,2.15s-.64-.72-1.75,0-3.26-1.43-3.26-1.43l-4.29-.72-1.67,2.29-4.77,2.72,3.58,5.01-1.43,3.58-1.43,4.29-2.15,4.29-2.15,2.15-4.29-2.86.72-4.29s-2.86,1.43-2.86,2.15-1.43,2.15-1.43,2.15l-3.18,2.86.32,2.86,1.43,3.58-6.44,2.86-3.58,3.58-6.44,4.29-5.72,4.29-4.29,2.15-5.01,2.15s-1.43.72-2.86,2.86c-1.43,2.15-5.72,4.29-5.72,4.29l-7.15,2.86-4.29,4.29h-4.29l-2.15,2.86h-6.44l-3.58,1.43-3.58,3.58-2.15,2.15-2.15-1.43h-2.15l-4.29,3.58-5.72,3.58-2.86,3.58-3.58,3.58-4.29,4.29,10.73,2.15h2.62l-2.62,4.29-5.01,3.58-5.72,6.44-3.58,3.58,6.44,3.58-1.43,2.86h-15.1l-1.35,1.43h8.35l3.82,2.15-.72,2.15h-12.32l-4.85-2.15h-2.86l-2.86,3.58-2.86,2.15-.72,5.01,2.15,2.86,4.29,2.86-1.43,5.01-3.58,1.43-2.86-5.01s-3.58-1.43-5.01-1.43-5.72-1.43-7.87-1.43-5.01-.72-5.01-.72l-3.58,2.86h-6.44l-10.73-.72-3.58-3.58-7.87-4.29-10.02,3.58-2.86-7.15s.72-5.01-2.15-6.44c-2.86-1.43-8.58-7.15-8.58-7.15,0,0,1.43-6.44.72-7.15s-5.72-2.86-5.72-2.86l-3.58-4.29-2.86-7.87,5.01-3.58,8.58-5.72,2.86-5.72-3.58-3.58-.72-12.16,2.15-2.15s-3.58-3.18-4.29-3.74c-.72-.56-6.44-1.27-6.44-1.27h-8.58l-6.44-5.72h-7.87l-12.88,2.86-8.58,1.43h-5.72c-2.15,0-2.86-2.86-2.86-2.86l2.15-5.01s1.43-5.01,1.43-6.44v-12.88l-3.58-5.72s.72-4.69,0-6.99c-.72-2.31,0-7.63,0-7.63,0,0,1.43-6.2,0-7.95s-2.86-6.04-2.86-6.04l-2.86-3.58v-4.05l-3.58-3.82-1.43-7.87s-2.15-2.86-2.15-3.58,2.15-5.09,0-5.41-1.43-.32-4.29-.32-11.45,2.86-11.45,2.86l-7.87,2.15-3.58-11.45-10.73,2.15s-7.15,2.86-6.44,3.58-.05,4.21-.05,4.21v4.77l-4.24,10.33h-6.44c-.72,0-7.87,2.86-7.87,2.86l-5.01,2.15-7.15-3.58-3.58-3.58-7.87-1.43-3.58-3.58s-7.15-12.88-7.87-13.59c-.72-.72-4.29-3.58-4.29-3.58l-5.72-6.44s-6.44,1.43-8.58,3.58c-2.15,2.15-5.01,3.58-5.01,3.58H2.91l-11.45-2.15s-5.01.72-7.15.72-5.72.72-5.72.72c0,0-4.29-.72-5.01-2.15s-3.58-5.72-3.58-5.72h-15.74l-12.16-3.58-5.72-4.29-9.3-12.16,8.58-5.72,1.91-3.22v-6.8l.24-2.15.72-2.86,3.58-1.43,2.86-3.58-3.58-2.15-2.86-2.86,1.43-5.01,4.29-4.29,2.15-2.15.72-1.43-1.43-2.86-1.43-6.44s-2.86-1.43-2.86-2.15v-6.44c0-.72-2.15-5.01-2.15-5.01l.72-5.01,3.58-7.87-2.15-6.44,14.31-2.15,5.72-2.15,3.58-13.59,8.57-10.08,7.87-3.58,5.01-7.15,5.01-1.43,4.29-5.72,3.58,1.43,2.15,4.29,2.86,2.15h4.29l6.44-2.15v-7.87l2.15-5.72,8.58-2.15h2.15l2.86.72,2.86-5.01s4.29-.72,5.01,0,5.72,1.43,5.72,1.43l8.58-2.86h3.58s4.29.72,4.29,2.15,4.29-1.43,4.29-1.43l4.29-2.86,3.58-2.86,7.15-.72,1.43,7.87,5.01,7.87,2.86,2.15s2.86.72,4.29,2.15l4.29,4.29,7.15,2.15,7.15,1.43,2.86-3.58,2.15-4.29,9.3-.72,2.86-3.58,1.43-4.29,3.58-2.86,5.01-4.29,1.43-7.87,5.72,4.29h2.86l7.15-2.86s7.15,2.15,7.87,2.15,6.44-.72,6.44-.72l7.15-2.86,7.15-5.01,2.15-4.29h.02Z"/>
  <polygon class="cls-1" points="284.06 326.14 287.63 329 289.86 326.14 286.96 323.99 284.06 326.14"/>
  <polygon class="cls-1" points="341.29 263.9 341.29 268.03 344.15 268.19 344.15 266.05 341.29 263.9"/>
  <path class="cls-1" d="m376.34,260.32v3.58l-1.27,2.15s1.51-.72,3.18,0c1.67.72,3.5,2.15,3.5,2.15,0,0,.64.72,1.91,0s2.7-5.72,2.7-5.72c0,0-3.42.32-5.64.16s-4.37-2.31-4.37-2.31h-.01Z"/>
  <polygon class="cls-1" points="552.32 132.27 550.18 130.12 550.18 125.27 553.44 125.27 555.19 122.97 556.62 120.82 558.84 126.55 556.62 127.98 557.57 132.27 552.32 132.27"/>
  <polygon class="cls-1" points="465.76 125.12 465.76 120.82 467.91 117.25 473.63 115.82 473.63 118.92 469.7 120.82 469.7 125.12 465.76 125.12"/>
  <polygon class="cls-1" points="514.41 128.69 509.88 128.69 512.14 123.68 518.15 126.19 515.92 128.69 514.41 128.69"/>
  <polygon class="cls-1" points="544.46 130.84 541.04 126.55 544.46 125.12 550.18 132.27 547.32 133.7 544.46 130.84"/>
  <g>
    <path class="cls-2" d="m310.77,28.3c-.29,0-.54-.23-.54-.5,0-.14.05-.27.18-.4,1.35-1.24,2.45-3.02,3.02-4.81.07-.22.25-.31.43-.31.29,0,.58.2.58.5,0,.43-1.3,3.38-3.22,5.31-.14.14-.31.2-.45.2Zm6.75-9.78c0-.36.25-.52.52-.52.25,0,.5.16.5.52v9.69l.04,2.02v.04c0,1.1-.67,2.25-2.81,2.25-.49,0-1.06-.07-1.71-.2-.32-.07-.47-.29-.47-.5,0-.27.2-.54.49-.54.04,0,.09,0,.13.02.59.13,1.15.22,1.64.22,1.01,0,1.67-.38,1.67-1.4v-11.58Zm6.99,8.75c-.76-1.49-2.14-3.19-3.37-4.32-.11-.09-.14-.2-.14-.31,0-.23.22-.43.49-.43.79,0,4.11,4.12,4.11,4.83,0,.34-.29.59-.58.59-.18,0-.38-.11-.5-.36Z"/>
    <path class="cls-2" d="m330.84,24.34c-.68,1.33-1.57,2.74-2.3,3.62-.11.14-.25.2-.38.2-.27,0-.5-.22-.5-.47,0-.09.05-.2.14-.31.86-.92,2.29-2.94,3.04-4.68l-.02-.61-2.2.02c-.29,0-.43-.22-.43-.43s.14-.43.43-.43l2.2.02-.04-3.51c0-.29.23-.43.49-.43.23,0,.47.14.47.43l-.02,3.51,1.84-.02c.29,0,.41.22.41.43s-.13.43-.41.43l-1.84-.02v1.84c0,.67.04,8.46.04,8.46,0,.29-.23.41-.49.41-.23,0-.49-.13-.49-.41l.05-8.05Zm2.41,2.12c-.38-.54-.92-1.1-1.33-1.42-.07-.05-.11-.13-.11-.22,0-.18.2-.38.43-.38.32,0,1.82,1.28,1.82,1.73,0,.25-.23.49-.47.49-.13,0-.25-.05-.34-.2Zm.9,5.51c-.31,0-.47-.23-.47-.47,0-.22.13-.43.4-.45l1.42-.16c.86-2,1.62-4.66,1.96-6.54.05-.27.25-.38.45-.38.29,0,.58.2.58.5,0,.13-.88,3.8-2,6.28,1.69-.22,3.35-.5,4.95-.9-.47-.77-1.01-1.48-1.55-2.05-.07-.07-.09-.16-.09-.23,0-.22.22-.41.47-.41.81,0,3.13,4.03,3.13,4.52,0,.32-.29.56-.56.56-.18,0-.38-.13-.47-.38-.14-.43-.32-.86-.54-1.28-3.55.97-7.44,1.39-7.69,1.39Zm-.32-6.81c0-.09.04-.2.13-.29,1.22-1.24,1.93-2.97,2.25-4.27.05-.22.22-.31.4-.31.25,0,.54.2.54.47,0,.56-1.82,4.86-2.81,4.86-.27,0-.5-.22-.5-.47Zm3.04-5.85h-.02c-.27,0-.41-.22-.41-.41,0-.22.14-.43.41-.43l2.18-.05h.05c.88,0,1.48.47,1.64,1.19.43,1.93,1.3,3.56,2.84,5.08.13.13.18.25.18.4,0,.29-.27.54-.56.54-.74,0-2.74-3.11-3.29-5.58-.11-.49-.43-.79-1.03-.79h-.05l-1.95.07Z"/>
    <path class="cls-2" d="m349.72,25.85v.41c0,.72.45,1.01,1.15,1.01h1.35c2.09,0,5.46.02,6.86.02,1.06,0,1.67.45,1.67,1.33,0,.77-.5,1.98-.65,2.25-.61,1.13-1.69,1.84-3.42,1.84-.56,0-1.19-.07-1.89-.23-.2-.04-.31-.22-.31-.4,0-.23.16-.49.45-.49.05,0,.09,0,.14.02.58.16,1.13.23,1.64.23,1.04,0,1.91-.36,2.41-1.19.31-.52.61-1.53.61-1.93,0-.47-.32-.67-.97-.68-.56-.02-1.66-.02-2.88-.02s-2.57,0-3.67.02v2.56c.99,0,1.93-.02,2.43-.04.52-.02.74-.27.76-.67v-1.03c0-.25.23-.38.47-.38.25,0,.49.13.5.4v.76c0,.94-.23,1.62-1.64,1.69-.67.02-1.84.04-2.99.04s-2.32-.02-2.97-.04c-1.39-.05-1.62-.7-1.62-1.48,0-.38.02-.9.02-1.1,0-.29.23-.43.49-.43.23,0,.49.14.49.43v1.13c0,.34.14.65.68.67.52.02,1.44.04,2.43.04v-2.56l-.43.02h-.05c-1.3,0-1.96-.56-1.98-1.55v-6.03c0-.94.5-1.49,1.69-1.55.43-.02,1.17-.04,2.02-.04.11-.43.36-1.42.36-1.42.05-.22.29-.32.52-.32.27,0,.54.14.54.41,0,.18-.25.9-.41,1.33,1.21,0,2.41.02,3.02.04,1.33.04,1.64.77,1.67,1.22.02.2.02.52.02.86,0,.47,0,.99-.02,1.24-.02.77-.4,1.44-1.69,1.48-.72.02-2.34.04-3.91.04-1.1,0-2.18-.02-2.9-.02v1.3h11.2c.25,0,.38.2.38.4s-.13.4-.38.4h-11.2Zm.02-4.16c0,.41-.02.86-.02,1.35.56,0,1.44.02,2.4.02,1.66,0,3.51-.02,4.23-.05.67-.04.94-.36.96-.85,0-.13.02-.29.02-.47h-7.58Zm7.58-.68c0-.92-.09-1.3-.95-1.33-.47-.02-1.6-.04-2.75-.04s-2.32.02-2.86.04c-.7.02-.97.36-.99.95,0,.13-.02.25-.02.38h7.58Z"/>
    <path class="cls-2" d="m364.89,20.9c-.29,0-.45-.23-.45-.45,0-.23.16-.45.45-.45l6.48.02-.02-2.25c0-.32.25-.47.52-.47.25,0,.5.14.5.47l-.02,2.25,6.39-.02c.31,0,.45.22.45.45,0,.22-.14.45-.45.45h-13.86Zm12.75,8.41c0,1.17-.68,1.93-2.21,1.93-.38,0-.81-.05-1.3-.14-.23-.05-.34-.23-.34-.43,0-.25.16-.5.4-.5h.07c.45.09.83.13,1.17.13.79,0,1.22-.27,1.22-.99v-.04c0-.13,0-3.49-.02-4.07-.02-.59-.32-1.01-1.04-1.03-.88-.02-2.04-.02-3.22-.02l.02,8.26c0,.32-.25.49-.5.49s-.5-.16-.5-.49v-8.26c-1.13,0-2.21.02-3.06.02-.72,0-1.08.4-1.1,1.1-.02.34-.02,1.26-.02,2.25,0,1.39,0,2.95.02,3.55v.02c0,.29-.23.43-.49.43s-.5-.14-.5-.47c0-.5-.02-1.73-.02-2.97s.02-2.5.02-3.02c.02-1.01.63-1.71,1.94-1.73.94-.02,2.05-.02,3.21-.02l.02-1.53c0-.29.23-.43.49-.43.23,0,.49.14.49.43v1.53c1.17,0,2.36,0,3.44.02,1.13.02,1.78.65,1.82,1.73.02.5.02,2.05.02,3.04v1.22Z"/>
  </g>
  <g>
    <path class="cls-2" d="m370.89,89.4c.97,0,2.12,0,2.12,1.19,0,.47-.58,1.98-.85,2.57-.16.36-.23.61-.23.83,0,.32.14.58.42,1.03.54.9.81,1.53.81,2.56,0,1.4-.86,2.47-2.2,2.47-.88,0-.99-.36-.99-.54,0-.23.14-.45.36-.45.02,0,.05.02.09.02.16.05.32.07.47.07.77,0,1.35-.65,1.35-1.58s-.38-1.76-.77-2.4c-.27-.43-.4-.77-.4-1.12,0-.31.09-.63.23-1.03.54-1.44.7-2.02.7-2.29,0-.47-.41-.52-.92-.52-.27,0-.56.02-.77.02-.54.02-.77.31-.77.81-.04,2.99-.02,8.5-.04,12.8,0,.32-.23.49-.47.49s-.49-.16-.49-.49c0-3.33.02-9.47.07-12.96.04-1.46,1.03-1.48,2.27-1.48Zm9.99,1.33h-6.79c-.29,0-.43-.22-.43-.43s.14-.43.43-.43h9c.29,0,.43.22.43.43s-.14.43-.43.43h-1.26v9.45l.04,1.78v.04c0,1.17-.61,2.05-2.5,2.05-.41,0-.92-.05-1.48-.14-.29-.05-.41-.25-.41-.47,0-.25.18-.5.45-.5h.07c.58.11,1.08.16,1.51.16.86,0,1.37-.29,1.37-1.28v-11.09Zm-4.18,8.7c-.97,0-2.21-.02-2.25-1.28-.02-.68-.04-1.48-.04-2.25,0-.65.02-1.28.04-1.87.04-.68.49-1.22,1.22-1.26.32-.02.65-.04.96-.04.32,0,.63.02.9.04.68.04,1.24.47,1.26,1.13.02.68.04,1.42.04,2.14s-.02,1.44-.04,2.09c-.04,1.19-1.24,1.3-2.09,1.3Zm1.24-3.35c0-.61-.02-1.24-.04-1.76-.02-.65-.27-.76-1.28-.76-.74,0-1.26.02-1.3.76-.02.59-.04,1.3-.04,1.98,0,.58.02,1.13.04,1.6.02.65.58.65,1.39.65.56,0,1.15-.04,1.19-.68.02-.54.04-1.15.04-1.78Z"/>
    <path class="cls-2" d="m400.05,101.97v.09c0,1.12-.56,2.07-2.56,2.07-.45,0-.95-.04-1.55-.14-.29-.05-.43-.29-.43-.5,0-.23.14-.45.43-.45h.07c.61.09,1.13.16,1.57.16.94,0,1.48-.31,1.48-1.3,0-2.09,0-4.32-.05-6.27-.04-1.08-.49-1.46-1.46-1.48-1.3-.02-2.7-.04-4.07-.04s-2.7.02-3.89.04c-1.1.02-1.37.43-1.39,1.42-.04,2.47-.04,5.19-.05,8.35,0,.29-.25.43-.49.43-.25,0-.5-.14-.5-.43.02-3.01.05-6.09.09-8.75.02-.99.59-1.82,1.95-1.84,1.26-.02,2.56-.04,3.89-.04v-1.85h-6.41c-.29,0-.45-.22-.45-.43s.16-.43.45-.43h6.39v-1.55c0-.29.25-.43.5-.43.23,0,.49.14.49.43v1.55h6.39c.29,0,.41.22.41.43s-.13.43-.41.43h-6.39l-.02,1.85c1.28,0,2.59.02,3.94.04,1.17.02,1.96.74,1.98,1.98.04,1.84.04,3.96.07,5.13l.02,1.51Zm-6.01-1.48v2.9c0,.31-.23.45-.47.45-.25,0-.49-.14-.49-.45l.02-2.9-3.13.02c-.25,0-.4-.2-.4-.4s.14-.4.4-.4l3.13.02v-1.84h-3.31c-.25,0-.38-.2-.38-.38,0-.2.13-.38.38-.38l3.75.02h.59c.31-.56.61-1.24.94-2.18.05-.16.2-.23.36-.23.27,0,.56.18.56.43,0,.16-.56,1.3-.95,1.98l2.29-.02c.25,0,.38.18.38.38,0,.18-.13.38-.38.38h-3.29v1.84l3.13-.02c.25,0,.38.2.38.4s-.13.4-.38.4l-3.12-.02Zm-2.21-3.82c-.25-.52-.63-1.03-.92-1.37-.04-.05-.05-.11-.05-.16,0-.2.2-.4.45-.4.59,0,1.35,1.4,1.35,1.64,0,.29-.25.52-.49.52-.14,0-.27-.07-.34-.23Z"/>
    <path class="cls-2" d="m404.58,92.34c-.29,0-.45-.23-.45-.45,0-.23.16-.45.45-.45l6.48.02-.02-2.25c0-.32.25-.47.52-.47.25,0,.5.14.5.47l-.02,2.25,6.39-.02c.31,0,.45.22.45.45,0,.22-.14.45-.45.45h-13.86Zm12.75,8.41c0,1.17-.68,1.93-2.21,1.93-.38,0-.81-.05-1.3-.14-.23-.05-.34-.23-.34-.43,0-.25.16-.5.4-.5h.07c.45.09.83.13,1.17.13.79,0,1.22-.27,1.22-.99v-.04c0-.13,0-3.49-.02-4.07-.02-.59-.32-1.01-1.04-1.03-.88-.02-2.03-.02-3.22-.02l.02,8.26c0,.32-.25.49-.5.49s-.5-.16-.5-.49v-8.26c-1.13,0-2.21.02-3.06.02-.72,0-1.08.4-1.1,1.1-.02.34-.02,1.26-.02,2.25,0,1.39,0,2.95.02,3.55v.02c0,.29-.23.43-.49.43s-.5-.14-.5-.47c0-.5-.02-1.73-.02-2.97s.02-2.5.02-3.02c.02-1.01.63-1.71,1.95-1.73.94-.02,2.05-.02,3.21-.02l.02-1.53c0-.29.23-.43.49-.43.23,0,.49.14.49.43v1.53c1.17,0,2.36,0,3.44.02,1.13.02,1.78.65,1.82,1.73.02.5.02,2.05.02,3.04v1.22Z"/>
  </g>
  <g>
    <path class="cls-2" d="m339.28,182.02c1.06,1.82,3.19,3.29,6.23,3.38.36,0,.52.23.52.49s-.2.52-.58.52c-.47,0-4.86-.32-6.97-4.09-1.64,3.89-6.86,4.23-6.97,4.23-.32,0-.49-.23-.49-.49,0-.22.13-.41.41-.45,3.4-.4,5.38-1.66,6.18-3.6l-5.83.05c-.27,0-.4-.2-.4-.41s.14-.43.41-.43l6.07.02c.09-.4.14-.83.16-1.28,0-.34.25-.5.49-.5.25,0,.49.16.49.43,0,.2-.14,1.21-.18,1.35l6.43-.02c.27,0,.4.22.4.43s-.13.41-.38.41l-6-.05Zm-.74-2.84l-6.82.02c-.29,0-.43-.22-.43-.41,0-.22.14-.41.41-.41l6.3.02v-1.82l-4.5.02c-.27,0-.4-.2-.4-.4s.13-.4.4-.4l4.5.02v-1.73l-5.55.02c-.27,0-.4-.2-.4-.4s.13-.4.4-.4h3.91s-.07-.07-.09-.13c-.34-.7-.79-1.17-1.3-1.66-.05-.05-.09-.13-.09-.2,0-.2.23-.41.5-.41.5,0,1.73,1.5,1.73,1.98,0,.18-.09.32-.22.41h2.84c.47-.67.9-1.6,1.13-2.16.09-.23.29-.32.47-.32.27,0,.52.18.52.45,0,.38-.96,1.73-1.17,2.03h3.85c.25,0,.38.2.38.4s-.13.4-.38.4l-5.58-.02v1.73l4.54-.02c.25,0,.38.2.38.4s-.12.4-.38.4l-4.54-.02v1.82l6.37-.02c.27,0,.4.2.4.41,0,.2-.13.41-.4.41l-6.81-.02Z"/>
    <path class="cls-2" d="m351.43,178.02c-.72-.54-1.55-.92-2.34-1.17-.16-.05-.25-.18-.25-.34,0-.22.2-.49.49-.49.22,0,2.88.77,2.88,1.58,0,.27-.2.52-.47.52-.09,0-.2-.04-.31-.11Zm-1.8,8.16c-.29,0-.52-.25-.52-.52,0-.13.04-.23.13-.34,1.17-1.31,1.89-2.75,2.67-4.66.07-.2.25-.29.41-.29.25,0,.49.18.49.47,0,.31-1.19,3.29-2.68,5.08-.16.18-.32.27-.49.27Zm2.74-12.03c-.68-.68-1.62-1.24-2.2-1.53-.14-.07-.2-.18-.2-.29,0-.23.23-.47.5-.47.34,0,2.72,1.21,2.72,1.87,0,.29-.25.56-.52.56-.11,0-.21-.05-.31-.14Zm8.79,3.31c1.13.02,1.57.5,1.57,1.15,0,.36-.58,2.58-2.27,4.61,1.01.94,2.27,1.69,3.65,2.21.22.09.31.25.31.45,0,.27-.22.56-.56.56-.32,0-2.18-.77-4-2.54-1.87,1.94-4.09,2.68-4.34,2.68-.31,0-.52-.23-.52-.49,0-.16.11-.34.38-.43,1.6-.56,2.88-1.44,3.85-2.43-1.69-1.87-2.16-3.48-2.16-3.71,0-.27.23-.43.49-.43.16,0,.34.09.4.27.36,1.17,1.01,2.25,1.87,3.21,1.42-1.76,1.84-3.51,1.84-3.78,0-.36-.23-.52-.72-.52h-.79c-1.33,0-3.37.02-4.43.04-.11,2.88-.54,5.83-2.52,7.96-.13.14-.29.22-.45.22-.27,0-.52-.22-.52-.47,0-.09.04-.2.12-.29,2.14-2.3,2.45-5.4,2.45-8.43,0-.76-.02-1.53-.04-2.27v-.04c0-.85.54-1.51,1.76-1.55.58-.02,1.42-.04,2.32-.04v-1.96c0-.29.23-.43.47-.43s.47.14.47.43v1.96c.94,0,1.85.02,2.54.04.83.04,1.35.49,1.35,1.13,0,.56-.52,1.66-.68,1.93-.13.22-.32.29-.5.29-.25,0-.49-.16-.49-.4,0-.07.02-.13.05-.2.11-.22.61-1.28.61-1.51,0-.45-.22-.45-2.88-.45l-.02,3.22h1.39Zm-2.3-3.22c-.85,0-1.6,0-2.07.02-.77.02-1.03.43-1.03,1.03v2.18h3.11l-.02-3.22Z"/>
    <path class="cls-2" d="m378.32,174.46l-3.83.02c.02.94.02,2.09.02,3.24,0,1.39,0,2.75-.04,3.65-.04.94-.72,1.57-1.76,1.62-.61.04-1.24.05-1.89.05-.56,0-1.12-.02-1.67-.05-.96-.05-1.58-.68-1.6-1.62-.02-1.01-.02-2.47-.02-3.92s0-2.88.02-3.85c.02-.88.5-1.53,1.69-1.6.58-.04,1.17-.04,1.76-.04s1.21,0,1.75.04c1.1.05,1.71.58,1.73,1.51v.11l7.36-.02c.31,0,.45.22.45.43,0,.23-.14.45-.45.45l-2.54-.02v8.25l.02,1.66v.04c0,1.19-.59,2.05-2.57,2.05-.45,0-.99-.04-1.6-.14-.32-.05-.45-.27-.45-.47,0-.25.18-.5.49-.5h.11c.63.11,1.17.16,1.6.16.92,0,1.44-.29,1.44-1.28v-9.76Zm-7.78-1.73c-1.6,0-2.07.11-2.11,1.06-.02.7-.04,1.8-.04,2.95h2.14v-4.02Zm0,4.77h-2.14c0,1.39.02,2.79.04,3.69.04,1.03.81,1.04,2.11,1.04v-4.74Zm3.08-.76c0-1.15,0-2.25-.02-2.97-.04-1.03-.76-1.04-2.18-1.04v4.02h2.2Zm-2.2.76v4.75c1.53,0,2.16-.11,2.18-1.08.02-.9.02-2.29.02-3.67h-2.2Z"/>
  </g>
  <g>
    <path class="cls-2" d="m235.24,236.96c-.76-.54-1.49-.88-2.27-1.13-.16-.05-.23-.18-.23-.32,0-.23.18-.47.49-.47.52,0,1.94.63,2.54,1.04.18.13.25.29.25.45,0,.27-.22.54-.49.54-.09,0-.18-.04-.29-.11Zm-1.58,8.26c-.27,0-.52-.23-.52-.5,0-.11.04-.22.13-.32,1.17-1.37,1.85-2.72,2.61-4.66.07-.18.23-.27.41-.27.25,0,.5.16.5.45,0,.32-1.15,3.17-2.63,5.04-.16.2-.34.27-.5.27Zm2.5-12.23c-.63-.72-1.57-1.31-2.05-1.6-.13-.07-.18-.18-.18-.29,0-.22.25-.45.52-.45.25,0,2.54,1.31,2.54,1.94,0,.29-.25.54-.52.54-.11,0-.22-.04-.31-.14Zm3.46-.29c-.52.81-1.12,1.64-1.78,2.38-.13.13-.27.18-.4.18-.27,0-.52-.2-.52-.43,0-.09.04-.2.14-.31,1.24-1.28,2.12-2.74,2.81-4.21.07-.18.25-.25.41-.25.25,0,.5.16.5.43,0,.2-.49,1.06-.67,1.39l7.53-.05c.29,0,.43.22.43.43,0,.23-.14.45-.43.45h-8.03Zm6.73,10.37c-.45,1.84-1.42,2.68-2.9,2.68-.41,0-.86-.07-1.35-.2-.18-.05-.25-.22-.25-.4,0-.25.14-.5.41-.5.04,0,.09,0,.14.02.41.13.77.18,1.1.18,1.01,0,1.55-.61,1.89-1.76l-5.56.04h-.05c-1.19,0-1.76-.56-1.76-1.31,0-.16.04-.32.07-.49.16-.63.31-1.39.43-2.2h-1.12c-.29,0-.43-.2-.43-.41,0-.2.14-.41.43-.41h1.24l.27-2.12c.16-1.17.72-1.66,2.03-1.69.74-.02,1.6-.04,2.43-.04.59,0,1.17.02,1.67.02.95.02,1.84.47,1.84,1.42,0,.7-.02,1.55-.05,2.41h1.64c.29,0,.41.2.41.41,0,.2-.13.41-.41.41h-1.67c-.05,1.15-.14,2.29-.29,3.17l1.49-.02c.27,0,.4.2.4.4s-.13.4-.4.4h-1.66Zm-4.61-.74c.14-.94.27-2.09.38-3.24h-2.72c-.13.85-.25,1.66-.36,2.2-.04.14-.04.25-.04.36,0,.52.32.67,1.01.68h1.73Zm.45-4c.11-1.15.2-2.29.25-3.15-.61,0-1.21.02-1.62.04-.63.04-.97.4-1.04,1.01l-.27,2.11h2.68Zm.83.76c-.13,1.17-.27,2.3-.41,3.22l2.99-.02c.16-.9.25-2.05.31-3.21h-2.88Zm2.92-.76c.02-.76.02-1.5.02-2.11,0-.58-.32-.97-1.03-1.01-.41-.02-.99-.04-1.6-.04-.05.86-.13,2-.23,3.15h2.84Z"/>
    <path class="cls-2" d="m254.18,230.71c1.06,0,2.16.02,2.16,1.12,0,.29-.07.67-.94,2.52-.14.31-.22.52-.22.72,0,.25.13.49.38.85.59.88.92,1.48.92,2.48,0,1.98-1.4,2.39-2.21,2.39-.41,0-1.03-.05-1.03-.54,0-.23.14-.45.36-.45.04,0,.05.02.09.02.18.04.34.07.49.07.63,0,1.39-.4,1.39-1.53,0-.9-.41-1.64-.85-2.25-.27-.4-.41-.68-.41-1.03,0-.25.07-.52.22-.86.7-1.6.79-2.14.79-2.25,0-.43-.4-.49-.95-.49-1.15,0-1.57,0-1.57.76-.04,2.81-.02,8.79-.04,13.09,0,.32-.23.49-.47.49-.25,0-.5-.16-.5-.49,0-3.33.04-9.92.09-13.23.04-1.35.92-1.39,2.3-1.39Zm9.79,9.6c-1.39,3.94-4.2,5.6-4.66,5.6-.25,0-.43-.2-.43-.42,0-.14.07-.29.27-.4,1.85-.99,3.15-2.63,3.96-4.79h-1.8c-1.57,3.19-4.48,4.81-4.97,4.81-.25,0-.41-.2-.41-.41,0-.14.07-.29.27-.38,1.85-.86,3.26-2.16,4.19-4.02-.59,0-1.19.02-1.69.02-1.19,1.33-2.5,2.25-2.79,2.25-.25,0-.43-.22-.43-.43,0-.14.07-.29.23-.38,1.6-.99,2.66-2.04,3.58-3.55h-2.02c-.25,0-.4-.2-.4-.4s.14-.4.4-.4h8.95c.27,0,.4.2.4.4s-.13.4-.4.4l-6-.02c-.29.49-.59.97-.95,1.42,1.51-.02,3.69-.02,5.13-.02.95,0,1.51.5,1.51,1.58,0,.74-.25,2.23-.49,2.86-.4,1.08-1.22,1.6-2.3,1.6s-1.39-.27-1.39-.59c0-.23.16-.45.41-.45.05,0,.09,0,.14.02.31.09.59.13.86.13.65,0,1.13-.29,1.42-1.03.23-.61.45-2.04.45-2.54,0-.56-.23-.88-.85-.88h-.22Zm-2.75-4.16c-1.94,0-3.29,0-3.33-1.39,0-.34-.02-.72-.02-1.1,0-.56.02-1.12.04-1.62.04-.74.59-1.35,1.67-1.39.5-.02,1.1-.04,1.69-.04s1.19.02,1.69.04c.99.04,1.57.59,1.62,1.26.04.5.05,1.1.05,1.67,0,2.32,0,2.56-3.42,2.56Zm2.52-3.17c0-1.55-.02-1.58-2.16-1.58-.67,0-1.37,0-1.87.02-.94.02-.94.54-.94,1.57h4.97Zm0,.72h-4.97c0,.34,0,.67.02.9.04.76.49.79,2.34.79,2.07,0,2.57-.02,2.61-.83v-.86Z"/>
    <path class="cls-2" d="m280.6,233.56l-3.83.02c.02.94.02,2.09.02,3.24,0,1.39,0,2.75-.04,3.65-.04.94-.72,1.57-1.76,1.62-.61.04-1.24.05-1.89.05-.56,0-1.12-.02-1.67-.05-.95-.05-1.58-.68-1.6-1.62-.02-1.01-.02-2.47-.02-3.92s0-2.88.02-3.85c.02-.88.5-1.53,1.69-1.6.58-.04,1.17-.04,1.76-.04s1.21,0,1.75.04c1.1.05,1.71.58,1.73,1.51v.11l7.36-.02c.31,0,.45.22.45.43,0,.23-.14.45-.45.45l-2.54-.02v8.25l.02,1.66v.04c0,1.19-.59,2.05-2.57,2.05-.45,0-.99-.04-1.6-.14-.32-.05-.45-.27-.45-.47,0-.25.18-.5.49-.5h.11c.63.11,1.17.16,1.6.16.92,0,1.44-.29,1.44-1.28v-9.76Zm-7.78-1.73c-1.6,0-2.07.11-2.11,1.06-.02.7-.04,1.8-.04,2.95h2.14v-4.02Zm0,4.77h-2.14c0,1.39.02,2.79.04,3.69.04,1.03.81,1.04,2.11,1.04v-4.74Zm3.08-.76c0-1.15,0-2.25-.02-2.97-.04-1.03-.76-1.04-2.18-1.04v4.02h2.2Zm-2.2.76v4.75c1.53,0,2.16-.11,2.18-1.08.02-.9.02-2.29.02-3.67h-2.2Z"/>
  </g>
</svg>