<?xml version="1.0" encoding="UTF-8"?><svg id="_レイヤー_1" xmlns="http://www.w3.org/2000/svg" viewBox="0 0 941.53 693"><defs><style>.cls-1{fill:#30add1;}</style></defs><path class="cls-1" d="M388.08,115.14l2.13-12.79,2.13-7.46,6.4-6.4,4.26-4.26h9.6l8.53-7.46h8.17l5.69,2.13h4.26l8.53-5.33,9.6-4.26h7.46l5.33,3.2h7.46l7.11-3.2,4.62-2.13h9.12l4.74,5.33,8.53,1.07,7.46,6.4,7.46-1.07,5.33-4.26h21.32l4.26,1.07,2.01-8.53,10.78-3.2,10.66,13.86,15.99,7.46,15.99,7.46,11.73-9.6,2.13-9.6v-9.6l10.66-19.19,13.86-3.2h10.54l6.52-9.6,13.86-4.26,29.85-3.2,10.66,4.26h6.4l4.26-1.07h4.26l4.26-3.2-8.53-4.26,17.06-7.46v10.31l2.13,6.75v5.57l-6.4,4.03,4.26,8.53,7.46,8.53,12.91,7.46,6.28,3.2,7.46,2.13,8.53,1.07-3.2,11.73-6.4,9.6-8.53,13.86-6.4-3.2-8.53-1.07,9.6,7.46,10.66,4.26v5.33l-4.26,4.26h-6.16l-5.57,7.46-1.07,9.6-6.4-4.26,3.2,11.73h2.72l.47,19.19-51.18-22.39-17.06,1.07,22.39,7.46,9.6,5.33,14.93,8.53,14.93,8.53-2.13,10.66-4.26,5.33-8.53-3.2-3.79,3.2,3.79,4.26h10.42l4.5,4.26-1.07,5.33s-1.18-2.13-4.86,0c-3.67,2.13-6.87,2.13-6.87,2.13l6.4,5.33h4.74l-4.74,4.26,3.2,6.4h4.86l1.54,5.33-4.26,2.13,2.13,8.53h2.49l-1.42,4.26,4.26,6.4h6.16l2.37,2.13,14.93-6.4-4.26-2.13,1.07-8.53,9.6,3.67,5.33,9.12,8.53,19.19,3.2,9.6,8.53,9.6h5.21l13.98,6.4-8.53,5.33h4.98l-11.37,7.46h18.48l4.98,7.46h-15.4l12.2,5.33-2.13,15.99-.59,5.33h-8.06l-5.21,9.6-1.07,6.4-4.26,3.2-5.33,2.13h-11.61l2.01,5.33s2.13,2.13,2.13,3.2-6.4,2.13-6.4,2.13h-11.96l-5.09,13.86,8.53-4.26,4.26-3.2-1.07,7.46,2.13,4.26-3.2,5.33-1.07,2.13,13.86-2.13s1.07-1.07,6.4-1.07,11.73-2.13,11.73-2.13h22.39s9.6,6.4,7.46,7.46c-2.13,1.07-9.48,0-9.48,0,0,0-8.65,1.07-10.78,2.13-2.13,1.07-6.4,3.2-6.4,3.2v4.26s3.44-1.07,4.38,0c.95,1.07,7.82,1.07,11.85,0,4.03-1.07,6.16-1.07,8.29-1.07s7.46-2.13,7.46-2.13l9.6-5.33,6.4,2.13,4.26,7.2s-12.79,6.66-13.86,6.66-10.66,3.2-10.66,3.2l-9.6,7.46s-7.46,2.13-9.6,3.2-8.53,4.26-9.6,5.33c-1.07,1.07-27.72,14.93-27.72,14.93l-4.26,2.13-2.13,5.33h-4.03l-.24-3.2h-11.73l-6.4,5.33-4.26,5.33-4.26,5.33-3.2,3.2s-.95-1.07-2.61,0c-1.66,1.07-4.86-2.13-4.86-2.13l-6.4-1.07-2.49,3.42-7.11,4.05,5.33,7.46-2.13,5.33-2.13,6.4-3.2,6.4-3.2,3.2-6.4-4.26,1.07-6.4s-4.26,2.13-4.26,3.2-2.13,3.2-2.13,3.2l-4.74,4.26,.47,4.26,2.13,5.33-9.6,4.26-5.33,5.33-9.6,6.4-8.53,6.4-6.4,3.2-7.46,3.2s-2.13,1.07-4.26,4.26c-2.13,3.2-8.53,6.4-8.53,6.4l-10.66,4.26-6.4,6.4h-6.4l-3.2,4.26h-9.6l-5.33,2.13-5.33,5.33-3.2,3.2-3.2-2.13h-3.2l-6.4,5.33-8.53,5.33-4.26,5.33-5.33,5.33-6.4,6.4,15.99,3.2h3.91l-3.91,6.4-7.46,5.33-8.53,9.6-5.33,5.33,9.6,5.33-2.13,4.26h-22.51l-2.01,2.13h12.44l5.69,3.2-1.07,3.2h-18.36l-7.23-3.2h-4.26l-4.26,5.33-4.26,3.2-1.07,7.46,3.2,4.26,6.4,4.26-2.13,7.46-5.33,2.13-4.26-7.46s-5.33-2.13-7.46-2.13-8.53-2.13-11.73-2.13-7.46-1.07-7.46-1.07l-5.33,4.26h-9.6l-15.99-1.07-5.33-5.33-11.73-6.4-14.93,5.33-4.26-10.66s1.07-7.46-3.2-9.6-12.79-10.66-12.79-10.66c0,0,2.13-9.6,1.07-10.66-1.07-1.07-8.53-4.26-8.53-4.26l-5.33-6.4-4.26-11.73,7.46-5.33,12.79-8.53,4.26-8.53-5.33-5.33-1.07-18.12,3.2-3.2s-5.33-4.74-6.4-5.57c-1.07-.83-9.6-1.9-9.6-1.9h-12.79l-9.6-8.53h-11.73l-19.19,4.26-12.79,2.13h-8.53c-3.2,0-4.26-4.26-4.26-4.26l3.2-7.46s2.13-7.46,2.13-9.6v-19.19l-5.33-8.53s1.07-6.99,0-10.42c-1.07-3.44,0-11.37,0-11.37,0,0,2.13-9.24,0-11.85-2.13-2.61-4.26-9-4.26-9l-4.26-5.33v-6.04l-5.33-5.69-2.13-11.73s-3.2-4.26-3.2-5.33,3.2-7.58,0-8.06c-3.2-.47-2.13-.47-6.4-.47s-17.06,4.26-17.06,4.26l-11.73,3.2-5.33-17.06-15.99,3.2s-10.66,4.26-9.6,5.33-.07,6.28-.07,6.28v7.11l-6.32,15.4h-9.6c-1.07,0-11.73,4.26-11.73,4.26l-7.46,3.2-10.66-5.33-5.33-5.33-11.73-2.13-5.33-5.33s-10.66-19.19-11.73-20.26c-1.07-1.07-6.4-5.33-6.4-5.33l-8.53-9.6s-9.6,2.13-12.79,5.33c-3.2,3.2-7.46,5.33-7.46,5.33h-10.66l-17.06-3.2s-7.46,1.07-10.66,1.07-8.53,1.07-8.53,1.07c0,0-6.4-1.07-7.46-3.2-1.07-2.13-5.33-8.53-5.33-8.53h-23.46l-18.12-5.33-8.53-6.4L0,362.49l12.79-8.53,2.84-4.8v-10.13l.36-3.2,1.07-4.26,5.33-2.13,4.26-5.33-5.33-3.2-4.26-4.26,2.13-7.46,6.4-6.4,3.2-3.2,1.07-2.13-2.13-4.26-2.13-9.6s-4.26-2.13-4.26-3.2v-9.6c0-1.07-3.2-7.46-3.2-7.46l1.07-7.46,5.33-11.73-3.2-9.6,21.32-3.2,8.53-3.2,5.33-20.26,12.79-14.93,11.73-5.33,7.46-10.66,7.46-2.13,6.4-8.53,5.33,2.13,3.2,6.4,4.26,3.2h6.4l9.6-3.2v-11.73l3.2-8.53,12.79-3.2h3.2l4.26,1.07,4.26-7.46s6.4-1.07,7.46,0c1.07,1.07,8.53,2.13,8.53,2.13l12.79-4.26h5.33s6.4,1.07,6.4,3.2,6.4-2.13,6.4-2.13l6.4-4.26,5.33-4.26,10.66-1.07,2.13,11.73,7.46,11.73,4.26,3.2s4.26,1.07,6.4,3.2c2.13,2.13,6.4,6.4,6.4,6.4l10.66,3.2,10.66,2.13,4.26-5.33,3.2-6.4,13.86-1.07,4.26-5.33,2.13-6.4,5.33-4.26,7.46-6.4,2.13-11.73,8.53,6.4h4.26l10.66-4.26s10.66,3.2,11.73,3.2,9.6-1.07,9.6-1.07l10.66-4.26,10.66-7.46,3.2-6.4Z"/><polygon class="cls-1" points="532.01 688.74 537.34 693 540.66 688.74 536.33 685.54 532.01 688.74"/><polygon class="cls-1" points="617.3 595.98 617.3 602.14 621.57 602.38 621.57 599.18 617.3 595.98"/><path class="cls-1" d="M669.54,590.65v5.33l-1.9,3.2s2.25-1.07,4.74,0c2.49,1.07,5.21,3.2,5.21,3.2,0,0,.95,1.07,2.84,0,1.9-1.07,4.03-8.53,4.03-8.53,0,0-5.09,.47-8.41,.24s-6.52-3.44-6.52-3.44Z"/><polygon class="cls-1" points="931.82 399.81 928.62 396.61 928.62 389.38 933.48 389.38 936.08 385.95 938.22 382.75 941.53 391.28 938.22 393.41 939.64 399.81 931.82 399.81"/><polygon class="cls-1" points="802.81 389.15 802.81 382.75 806.01 377.42 814.54 375.29 814.54 379.91 808.68 382.75 808.68 389.15 802.81 389.15"/><path class="cls-1" d="M755.9,34.12v-8.17l-2.13-5.69s-1.07-5.33,2.13-7.46c3.2-2.13,6.4-8.53,6.4-8.53l7.46-4.26s3.2,3.2,3.2,5.33,2.25,7.46,2.25,7.46c0,0,1.18,3.2,0,4.26-1.18,1.07-7.58,3.2-7.58,3.2,0,0-1.66,4.03-2.96,5.21-1.3,1.18-3.44,5.45-3.44,6.52s-5.33,2.13-5.33,2.13Z"/><polygon class="cls-1" points="764.67 52 757.68 52 753.6 45.84 753.6 42.05 762.3 41.58 766.56 38.38 771.42 38.38 771.42 41.11 764.67 45.19 769.53 45.19 764.67 52"/><path class="cls-1" d="M782.56,65.04l-4.26-6.4-6.87-3.32-2.37-3.32,4.26-6.81,4.98-3.61,.71-7.46h-5.21l.24-7.46,4.5-9.6,4.03,3.67,7.82-3.67,7.11-4.26-5.33,10.66-6.52,14.93-2.37,6.81s-1.42,5.03,0,8.71c1.42,3.67-.71,11.14-.71,11.14Z"/><path class="cls-1" d="M760.17,192.97h-3.91l3.91-10.66h8.88s.12,6.4-4.38,8.53l-4.5,2.13Z"/><polygon class="cls-1" points="875.31 394.48 868.56 394.48 871.94 387.01 880.88 390.75 877.56 394.48 875.31 394.48"/><polygon class="cls-1" points="920.09 397.68 915 391.28 920.09 389.15 928.62 399.81 924.36 401.94 920.09 397.68"/></svg>