<?xml version="1.0" encoding="UTF-8"?>
<svg id="_レイヤー_1" data-name=" レイヤー 1" xmlns="http://www.w3.org/2000/svg" viewBox="0 0 559 330">
  <defs>
    <style>
      .cls-1 {
        fill: #33d130;
      }

      .cls-2 {
        fill: #154913;
      }
    </style>
  </defs>
  <path class="cls-1" d="m-133.18,165.04l3.06-18.33,3.05-10.7,9.17-9.17,6.11-6.11h13.75l12.22-10.7h11.71l8.16,3.06h6.11l12.22-7.64,13.75-6.11h10.7l7.64,4.59H-4.83l10.18-4.59,6.62-3.06h13.07l6.79,7.64,12.22,1.54,10.7,9.17,10.7-1.54,7.64-6.11h30.56l6.11,1.54,2.89-12.22,15.44-4.59,15.28,19.86,22.92,10.7,22.92,10.7,16.81-13.75,3.06-13.75v-13.75l15.28-27.52,19.86-4.59h15.1l9.33-13.75,19.86-6.11,42.78-4.59,15.28,6.11h9.17l6.11-1.54h6.11l6.11-4.59-12.22-6.11,24.46-10.7v14.78l3.06,9.68v7.99l-9.17,5.76,6.11,12.22,10.7,12.22,18.5,10.7,9,4.59,10.7,3.06,12.22,1.54-4.59,16.81-9.17,13.75-12.22,19.86-9.17-4.59-12.22-1.54,13.75,10.7,15.28,6.11v7.64l-6.11,6.11h-8.82l-7.99,10.7-1.54,13.75-9.17-6.11,4.59,16.81h3.91l.68,27.52-73.36-32.09-24.46,1.54,32.09,10.7,13.75,7.64,21.41,12.22,21.41,12.22-3.06,15.28-6.11,7.64-12.22-4.59-5.43,4.59,5.43,6.11h14.93l6.45,6.11-1.54,7.64s-1.69-3.06-6.96,0c-5.25,3.06-9.85,3.06-9.85,3.06l9.17,7.64h6.79l-6.79,6.11,4.59,9.17h6.96l2.21,7.64-6.11,3.06,3.06,12.22h3.57l-2.03,6.11,6.11,9.17h8.82l3.39,3.06,21.41-9.17-6.11-3.06,1.54-12.22,13.75,5.25,7.64,13.07,12.22,27.52,4.59,13.75,12.22,13.75h7.48l20.03,9.17-12.22,7.64h7.14l-16.3,10.7h26.49l7.14,10.7h-22.07l17.49,7.64-3.06,22.92-.85,7.64h-11.56l-7.48,13.75-1.54,9.17-6.11,4.59-7.64,3.06h-16.64l2.89,7.64s3.06,3.06,3.06,4.59-9.17,3.06-9.17,3.06h-17.16l-7.31,19.86,12.22-6.11,6.11-4.59-1.54,10.7,3.06,6.11-4.59,7.64-1.54,3.06,19.86-3.06s1.54-1.54,9.17-1.54,16.81-3.06,16.81-3.06h32.09s13.75,9.17,10.7,10.7c-3.06,1.54-13.59,0-13.59,0,0,0-12.39,1.54-15.44,3.06-3.06,1.54-9.17,4.59-9.17,4.59v6.11s4.93-1.54,6.28,0c1.36,1.54,11.21,1.54,16.98,0,5.76-1.54,8.82-1.54,11.88-1.54s10.7-3.06,10.7-3.06l13.75-7.64,9.17,3.06,6.11,10.31s-18.33,9.55-19.86,9.55-15.28,4.59-15.28,4.59l-13.75,10.7s-10.7,3.06-13.75,4.59-12.22,6.11-13.75,7.64-39.73,21.41-39.73,21.41l-6.11,3.06-3.06,7.64h-5.76l-.35-4.59h-16.81l-9.17,7.64-6.11,7.64-6.11,7.64-4.59,4.59s-1.36-1.54-3.74,0c-2.37,1.54-6.96-3.06-6.96-3.06l-9.17-1.54-3.57,4.89-10.18,5.81,7.64,10.7-3.06,7.64-3.06,9.17-4.59,9.17-4.59,4.59-9.17-6.11,1.54-9.17s-6.11,3.06-6.11,4.59-3.06,4.59-3.06,4.59l-6.79,6.11.68,6.11,3.06,7.64-13.75,6.11-7.64,7.64-13.75,9.17-12.22,9.17-9.17,4.59-10.7,4.59s-3.06,1.54-6.11,6.11c-3.06,4.59-12.22,9.17-12.22,9.17l-15.28,6.11-9.17,9.17h-9.17l-4.59,6.11h-13.75l-7.64,3.06-7.64,7.64-4.59,4.59-4.59-3.06h-4.59l-9.17,7.64-12.22,7.64-6.11,7.64-7.64,7.64-9.17,9.17,22.92,4.59h5.6l-5.6,9.17-10.7,7.64-12.22,13.75-7.64,7.64,13.75,7.64-3.06,6.11h-32.25l-2.89,3.06h17.84l8.16,4.59-1.54,4.59h-26.32l-10.36-4.59h-6.11l-6.11,7.64-6.11,4.59-1.54,10.7,4.59,6.11,9.17,6.11-3.06,10.7-7.64,3.06-6.11-10.7s-7.64-3.06-10.7-3.06-12.22-3.06-16.81-3.06-10.7-1.54-10.7-1.54l-7.64,6.11H2.75l-22.92-1.54-7.64-7.64-16.81-9.17-21.41,7.64-6.11-15.28s1.54-10.7-4.59-13.75c-6.11-3.06-18.33-15.28-18.33-15.28,0,0,3.06-13.75,1.54-15.28s-12.22-6.11-12.22-6.11l-7.64-9.17-6.11-16.81,10.7-7.64,18.33-12.22,6.11-12.22-7.64-7.64-1.54-25.98,4.59-4.59s-7.64-6.79-9.17-7.99c-1.54-1.2-13.75-2.71-13.75-2.71h-18.33l-13.75-12.22h-16.81l-27.52,6.11-18.33,3.06h-12.22c-4.59,0-6.11-6.11-6.11-6.11l4.59-10.7s3.06-10.7,3.06-13.75v-27.52l-7.64-12.22s1.54-10.02,0-14.93c-1.54-4.93,0-16.3,0-16.3,0,0,3.06-13.24,0-16.98s-6.11-12.9-6.11-12.9l-6.11-7.64v-8.65l-7.64-8.16-3.06-16.81s-4.59-6.11-4.59-7.64,4.59-10.88,0-11.56c-4.59-.68-3.06-.68-9.17-.68s-24.46,6.11-24.46,6.11l-16.81,4.59-7.64-24.46-22.92,4.59s-15.28,6.11-13.75,7.64-.11,9-.11,9v10.18l-9.06,22.07h-13.75c-1.54,0-16.81,6.11-16.81,6.11l-10.7,4.59-15.28-7.64-7.64-7.64-16.81-3.06-7.64-7.64s-15.28-27.52-16.81-29.03c-1.54-1.54-9.17-7.64-9.17-7.64l-12.22-13.75s-13.75,3.06-18.33,7.64c-4.59,4.59-10.7,7.64-10.7,7.64h-15.21l-24.46-4.59s-10.7,1.54-15.28,1.54-12.22,1.54-12.22,1.54c0,0-9.17-1.54-10.7-4.59s-7.64-12.22-7.64-12.22h-33.62l-25.98-7.64-12.22-9.17-19.86-25.98,18.33-12.22,4.08-6.88v-14.53l.51-4.59,1.54-6.11,7.64-3.06,6.11-7.64-7.64-4.59-6.11-6.11,3.06-10.7,9.17-9.17,4.59-4.59,1.54-3.06-3.06-6.11-3.06-13.75s-6.11-3.06-6.11-4.59v-13.75c0-1.54-4.59-10.7-4.59-10.7l1.54-10.7,7.64-16.81-4.59-13.75,30.56-4.59,12.22-4.59,7.64-29.03,18.33-21.41,16.81-7.64,10.7-15.28,10.7-3.06,9.17-12.22,7.64,3.06,4.59,9.17,6.11,4.59h9.17l13.75-4.59v-16.81l4.59-12.22,18.33-4.59h4.59l6.11,1.54,6.11-10.7s9.17-1.54,10.7,0,12.22,3.06,12.22,3.06l18.33-6.11h7.64s9.17,1.54,9.17,4.59,9.17-3.06,9.17-3.06l9.17-6.11,7.64-6.11,15.28-1.54,3.06,16.81,10.7,16.81,6.11,4.59s6.11,1.54,9.17,4.59l9.17,9.17,15.28,4.59,15.28,3.06,6.11-7.64,4.59-9.17,19.86-1.54,6.11-7.64,3.06-9.17,7.64-6.11,10.7-9.17,3.06-16.81,12.22,9.17h6.11l15.28-6.11s15.28,4.59,16.81,4.59,13.75-1.54,13.75-1.54l15.28-6.11,15.28-10.7,4.59-9.17.02-.15-.03.03-.02.13Z"/>
  <path class="cls-1" d="m394.04,48.9v-11.71l-3.06-8.16s-1.54-7.64,3.06-10.7,9.17-12.22,9.17-12.22l10.7-6.11s4.59,4.59,4.59,7.64,3.22,10.7,3.22,10.7c0,0,1.69,4.59,0,6.11-1.69,1.54-10.88,4.59-10.88,4.59,0,0-2.37,5.76-4.25,7.48-1.86,1.69-4.93,7.82-4.93,9.33s-7.64,3.06-7.64,3.06l.02-.02h-.01.01Z"/>
  <polygon class="cls-1" points="406.59 74.53 396.58 74.53 390.72 65.71 390.72 60.28 403.2 59.59 409.31 55.01 416.27 55.01 416.27 58.91 406.59 64.77 413.56 64.77 406.59 74.53"/>
  <path class="cls-1" d="m432.23,93.22l-6.11-9.17-9.85-4.77-3.39-4.77,6.11-9.76,7.14-5.17,1.03-10.7h-7.48l.35-10.7,6.45-13.75,5.76,5.25,11.21-5.25,10.18-6.11-7.64,15.28-9.33,21.41-3.39,9.76s-2.03,7.22,0,12.48-1.03,15.96-1.03,15.96v.02h0Z"/>
  <path class="cls-1" d="m400.15,276.58h-5.6l5.6-15.28h12.74s.17,9.17-6.28,12.22l-6.45,3.06h0Z"/>
  <g>
    <path class="cls-2" d="m277.09,103.69c0-1.15.02-2.3.02-3.17.02-.76.49-1.37,1.33-1.4.25-.02.5-.02.76-.02s.5,0,.77.02c.88.04,1.3.67,1.31,1.4.02.68.04,1.53.04,2.41,0,1.39-.02,2.84-.04,3.98-.04,1.31-.92,1.51-2.14,1.51-.81,0-2,0-2.03-1.49,0-.92-.02-2.09-.02-3.24Zm3.35.81c0-1.35-.02-2.79-.04-3.75,0-.72-.31-.85-1.26-.85-.45,0-1.13.04-1.13.85-.02.9-.02,2.2-.02,3.46,0,.92,0,1.84.02,2.54.02.77.47.85,1.19.85,1.03,0,1.19-.25,1.21-.86.04-.63.04-1.4.04-2.23Zm.52,7.24c0-.09.04-.2.14-.29.43-.41,1.06-1.62,1.21-2.47.04-.22.22-.32.41-.32.22,0,.45.14.45.4,0,.41-.77,3.08-1.73,3.08-.27,0-.49-.18-.49-.4Zm2.84-6.05v.68c0,.76.5.81,1.1.81h4.9c1.01,0,1.55.45,1.55,1.44,0,.43-.22,4.23-3.24,4.23-.58,0-1.24-.11-2.05-.38-.22-.07-.31-.27-.31-.45,0-.25.14-.49.43-.49.07,0,.14.02.23.05.65.25,1.19.4,1.67.4,2.05,0,2.29-3.08,2.29-3.29,0-.52-.31-.77-.92-.77h-1.24c-1.06,0-2.25,0-3.4.02h-.09c-1.17,0-1.76-.32-1.78-1.26-.02-1.3-.04-2.63-.04-3.89,0-.88.02-1.75.02-2.54,0-.9.34-1.4,2.38-1.4l.32-1.4c.05-.2.27-.31.49-.31.23,0,.47.13.47.41,0,.18-.22.9-.36,1.3.74,0,1.51.02,2.09.04,1.19.04,1.48.65,1.51,1.1.04.29.04.7.04,1.12,0,1.55,0,2.45-1.58,2.5-.67.02-1.53.04-2.47.04-.67,0-1.35-.02-2-.02,0,.47-.02.92-.02,1.31h7.65c.23,0,.36.18.36.38,0,.18-.13.38-.36.38h-7.63Zm0-4.1v1.33h1.15c1.12,0,2.36-.02,3.08-.04.61-.02.86-.31.88-.79,0-.14.02-.31.02-.5h-5.13Zm5.13-.67c0-1.35-.02-1.35-2.54-1.35-2.23,0-2.54,0-2.57.83v.52h5.11Zm-4.3,10.37c-.2,0-.38-.11-.38-.36,0-.59-.11-1.42-.18-1.89v-.05c0-.2.16-.29.34-.29.16,0,.34.09.38.25.18.74.29,1.67.29,1.93,0,.27-.23.41-.45.41Zm2.23-.43c-.16,0-.31-.09-.34-.29-.11-.54-.4-1.06-.65-1.55-.02-.05-.04-.09-.04-.14,0-.14.16-.23.34-.23.13,0,.25.04.34.16.05.09.77,1.26.77,1.64,0,.25-.23.41-.43.41Zm2.05-.54c-.09,0-.18-.05-.23-.14-.25-.47-.68-1.06-.94-1.31-.05-.05-.07-.11-.07-.16,0-.14.16-.25.34-.25.32,0,1.33,1.13,1.33,1.46,0,.22-.23.41-.43.41Z"/>
    <path class="cls-2" d="m295.02,112.44c.13-3.35.11-8.97.13-12.98,0-1.53,1.06-1.58,2.81-1.58.63,0,1.28,0,1.62.02.92.04,1.44.58,1.46,1.26.02.52.04,1.21.04,1.85,0,.47-.02.92-.02,1.3-.02.79-.43,1.44-1.58,1.49-.43.02-1.15.05-1.91.05-.52,0-1.04-.02-1.49-.05v1.8c0,2-.02,4.23-.07,6.82,0,.31-.25.45-.5.45-.23,0-.47-.14-.47-.41v-.02Zm5.17-11.97c0-1.82-.02-1.82-1.8-1.82-2.3,0-2.32.02-2.32,1.82h4.12Zm-4.12.74v1.82c.47.04,1.26.04,1.96.04,2.14,0,2.16,0,2.16-1.85h-4.12Zm10.48,2.65c-.81,0-1.58-.04-2.02-.05-1.13-.05-1.57-.72-1.58-1.49,0-.36-.02-.79-.02-1.26,0-.65.02-1.33.04-1.89.02-.7.5-1.22,1.42-1.26.34-.02,1.03-.02,1.69-.02.49,0,.95,0,1.26.02,1.31.07,1.67.79,1.67,1.49.04,3.17.04,6.32.04,9.04,0,.86.02,1.64.02,2.27,0,1.1-.38,2.09-2.38,2.09-1.4,0-1.58-.18-1.58-.56,0-.23.16-.47.43-.47h.07c.45.07.85.11,1.17.11.86,0,1.3-.31,1.31-1.3.02-.59.02-1.21.02-1.82,0-1.31-.02-2.66-.02-4.1v-.85c-.45.04-1.01.05-1.55.05Zm1.53-3.38c0-1.08-.04-1.73-.9-1.8-.18-.02-.86-.02-1.46-.02-1.8,0-1.91,0-1.91,1.82h4.27Zm.02.74h-4.29c0,1.82.02,1.85,2.23,1.85.74,0,1.58,0,2.05-.04v-1.82Z"/>
    <path class="cls-2" d="m313.09,100.86c-.29,0-.45-.23-.45-.45,0-.23.16-.45.45-.45l6.48.02-.02-2.25c0-.32.25-.47.52-.47.25,0,.5.14.5.47l-.02,2.25,6.39-.02c.31,0,.45.22.45.45,0,.22-.14.45-.45.45h-13.86Zm12.75,8.41c0,1.17-.68,1.93-2.21,1.93-.38,0-.81-.05-1.3-.14-.23-.05-.34-.23-.34-.43,0-.25.16-.5.4-.5h.07c.45.09.83.13,1.17.13.79,0,1.22-.27,1.22-.99v-.04c0-.13,0-3.49-.02-4.07-.02-.59-.32-1.01-1.04-1.03-.88-.02-2.03-.02-3.22-.02l.02,8.26c0,.32-.25.49-.5.49s-.5-.16-.5-.49v-8.26c-1.13,0-2.21.02-3.06.02-.72,0-1.08.4-1.1,1.1-.02.34-.02,1.26-.02,2.25,0,1.39,0,2.95.02,3.55v.02c0,.29-.23.43-.49.43s-.5-.14-.5-.47c0-.5-.02-1.73-.02-2.97s.02-2.5.02-3.02c.02-1.01.63-1.71,1.95-1.73.94-.02,2.05-.02,3.21-.02l.02-1.53c0-.29.23-.43.49-.43.23,0,.49.14.49.43v1.53c1.17,0,2.36,0,3.44.02,1.13.02,1.78.65,1.82,1.73.02.5.02,2.05.02,3.04v1.22Z"/>
  </g>
  <g>
    <path class="cls-2" d="m300.94,162.45c-.68,1.33-1.57,2.74-2.3,3.62-.11.14-.25.2-.38.2-.27,0-.5-.22-.5-.47,0-.09.05-.2.14-.31.86-.92,2.29-2.94,3.04-4.68l-.02-.61-2.2.02c-.29,0-.43-.22-.43-.43s.14-.43.43-.43l2.2.02-.04-3.51c0-.29.23-.43.49-.43.23,0,.47.14.47.43l-.02,3.51,1.84-.02c.29,0,.41.22.41.43s-.13.43-.41.43l-1.84-.02v1.84c0,.67.04,8.46.04,8.46,0,.29-.23.41-.49.41-.23,0-.49-.13-.49-.41l.05-8.05Zm2.41,2.12c-.38-.54-.92-1.1-1.33-1.42-.07-.05-.11-.13-.11-.22,0-.18.2-.38.43-.38.32,0,1.82,1.28,1.82,1.73,0,.25-.23.49-.47.49-.13,0-.25-.05-.34-.2Zm.9,5.51c-.31,0-.47-.23-.47-.47,0-.22.13-.43.4-.45l1.42-.16c.86-2,1.62-4.66,1.96-6.54.05-.27.25-.38.45-.38.29,0,.58.2.58.5,0,.13-.88,3.8-2,6.28,1.69-.22,3.35-.5,4.95-.9-.47-.77-1.01-1.48-1.55-2.05-.07-.07-.09-.16-.09-.23,0-.22.22-.41.47-.41.81,0,3.13,4.03,3.13,4.52,0,.32-.29.56-.56.56-.18,0-.38-.13-.47-.38-.14-.43-.32-.86-.54-1.28-3.55.97-7.44,1.39-7.69,1.39Zm-.32-6.81c0-.09.04-.2.13-.29,1.22-1.24,1.93-2.97,2.25-4.27.05-.22.22-.31.4-.31.25,0,.54.2.54.47,0,.56-1.82,4.86-2.81,4.86-.27,0-.5-.22-.5-.47Zm3.04-5.85h-.02c-.27,0-.41-.22-.41-.41,0-.22.14-.43.41-.43l2.18-.05h.05c.88,0,1.48.47,1.64,1.19.43,1.93,1.3,3.56,2.84,5.08.13.13.18.25.18.4,0,.29-.27.54-.56.54-.74,0-2.74-3.11-3.29-5.58-.11-.49-.43-.79-1.03-.79h-.05l-1.95.07Z"/>
    <path class="cls-2" d="m320.07,170.79c-.31,0-.49-.25-.49-.49,0-.22.13-.43.43-.47,2.32-.29,4.25-1.08,5.8-2.43-.79-1.53-1.28-3.28-1.57-5.2-1.37,0-2.67.02-3.92.02-.67,0-1.06.43-1.06,1.01v.4c0,2.05-.18,5.01-2.12,6.82-.16.14-.32.2-.47.2-.29,0-.52-.22-.52-.49,0-.13.05-.27.2-.38,1.87-1.57,1.98-3.69,1.98-6.73,0-.85.65-1.62,1.85-1.62,1.31,0,2.63-.02,3.98-.02-.09-.79-.18-1.82-.18-1.89,0-.29.23-.43.47-.43s.47.14.49.43c.04.63.07,1.26.14,1.89,1.8,0,3.64,0,5.58.02.27,0,.41.2.41.4,0,.18-.14.38-.4.38-1.87-.02-3.73-.02-5.49-.02.23,1.6.63,3.17,1.33,4.56.79-.83,1.44-1.84,2-3.02.07-.16.2-.22.34-.22.25,0,.56.22.56.5,0,.22-.92,2.02-2.45,3.55.18.31,1.4,2.21,2.38,2.21.52,0,.88-.58,1.19-1.69.07-.27.27-.38.47-.38.25,0,.54.2.54.49,0,.23-.56,2.58-2.16,2.58-.5,0-1.62-.22-3.12-2.58-2.74,2.27-6.14,2.61-6.19,2.61Zm6.75-12.69v1.1c0,.29-.23.43-.47.43s-.45-.13-.45-.4v-1.13h-4.09v1.67c0,.29-.23.41-.47.41-.22,0-.45-.13-.45-.4v-1.69h-3.85c-.29,0-.45-.22-.45-.43,0-.2.16-.41.45-.41l3.85.02v-1.55c0-.25.23-.38.47-.38.22,0,.45.13.45.38v1.55h4.09v-1.55c0-.25.23-.38.47-.38.22,0,.45.13.45.38v1.55l4.01-.02c.31,0,.47.22.47.41,0,.22-.16.43-.47.43h-4.01Zm2.12,3.02c-.47-.52-1.08-.85-1.69-1.12-.09-.04-.14-.13-.14-.22,0-.18.2-.41.43-.41.13,0,2.03.72,2.03,1.35,0,.27-.2.5-.41.5-.07,0-.14-.04-.22-.11Z"/>
    <path class="cls-2" d="m345.76,158.81l-3.83.02c.02.94.02,2.09.02,3.24,0,1.39,0,2.75-.04,3.65-.04.94-.72,1.57-1.76,1.62-.61.04-1.24.05-1.89.05-.56,0-1.12-.02-1.67-.05-.95-.05-1.58-.68-1.6-1.62-.02-1.01-.02-2.47-.02-3.92s0-2.88.02-3.85c.02-.88.5-1.53,1.69-1.6.58-.04,1.17-.04,1.76-.04s1.21,0,1.75.04c1.1.05,1.71.58,1.73,1.51v.11l7.36-.02c.31,0,.45.22.45.43,0,.23-.14.45-.45.45l-2.54-.02v8.25l.02,1.66v.04c0,1.19-.59,2.05-2.57,2.05-.45,0-.99-.04-1.6-.14-.32-.05-.45-.27-.45-.47,0-.25.18-.5.49-.5h.11c.63.11,1.17.16,1.6.16.92,0,1.44-.29,1.44-1.28v-9.76Zm-7.78-1.73c-1.6,0-2.07.11-2.11,1.06-.02.7-.04,1.8-.04,2.95h2.14v-4.02Zm0,4.77h-2.14c0,1.39.02,2.79.04,3.69.04,1.03.81,1.04,2.11,1.04v-4.74Zm3.08-.76c0-1.15,0-2.25-.02-2.97-.04-1.03-.76-1.04-2.18-1.04v4.02h2.2Zm-2.2.76v4.75c1.53,0,2.16-.11,2.18-1.08.02-.9.02-2.29.02-3.67h-2.2Z"/>
  </g>
  <g>
    <path class="cls-2" d="m247.94,274.51l.25-7.62c-.41.41-1.94,1.82-2.39,1.82-.29,0-.47-.23-.47-.49,0-.16.07-.32.25-.43,1.6-.99,3.44-2.83,4.5-4.59.11-.16.23-.23.38-.23.27,0,.54.23.54.5,0,.29-.99,1.55-1.85,2.45l-.18,8.59c-.02.31-.27.45-.54.45-.23,0-.49-.14-.49-.43v-.02Zm-1.8-10.17c-.31,0-.52-.22-.52-.47,0-.14.09-.31.31-.43,1.49-.86,2.92-2.38,3.78-3.76.11-.18.27-.25.43-.25.25,0,.5.22.5.49,0,.68-3.71,4.43-4.5,4.43Zm3.66,9.09c0-.11.05-.2.14-.29.65-.54,1.42-1.66,1.71-2.67.05-.2.22-.29.36-.29.23,0,.5.2.5.45,0,.65-1.46,3.26-2.21,3.26-.29,0-.5-.23-.5-.47Zm6.39-11.15v1.82c.95,0,1.91,0,2.85.02,1.46.02,1.46,1.08,1.46,1.64,0,.43,0,.97-.02,1.28-.04.7-.4,1.28-1.44,1.3-1.08.02-2.16.02-3.21.02s-2.05,0-3.04-.02c-1.55-.02-1.57-.9-1.57-1.73,0-.41,0-.95.02-1.24.04-.65.41-1.22,1.48-1.24.81-.02,1.66-.02,2.54-.02v-1.82l-4.11.02c-.27,0-.41-.22-.41-.43,0-.2.14-.41.41-.41h4.11l-.02-1.58c0-.34.25-.5.49-.5.25,0,.49.16.49.5l-.02,1.58h4.5c.29,0,.41.22.41.41,0,.22-.13.43-.41.43l-4.5-.02Zm-2.18,2.58c-.41,0-.79.02-1.13.02-.81.02-.85.31-.85,1.37s0,1.37.86,1.37h1.12v-2.75Zm1.78,9.81c-1.71,0-2.48-.4-2.48-1.69,0-.32,0-2.05.02-2.7.02-.29.23-.41.47-.41s.45.13.45.38c0,.47-.02,1.67-.02,2.32,0,.83.02,1.28,1.69,1.28s2.03-.31,2.05-1.22c0-.27.22-.4.41-.4.25,0,.52.16.52.41,0,1.76-1.19,2.03-3.11,2.03Zm1.06-3.82c-.7-.7-1.6-1.13-2.14-1.33-.14-.05-.22-.16-.22-.31,0-.2.18-.43.45-.43.38,0,2.65,1.03,2.65,1.69,0,.27-.23.49-.47.49-.11,0-.2-.04-.27-.11Zm-.13-6h-1.91v2.77h1.91v-2.77Zm2.12,2.75c.54-.02.74-.23.76-.67,0-.22.02-1.21.02-1.4,0-.68-.38-.68-2.09-.68v2.75h1.31Zm1.75,5.51c-.4-.92-1.21-1.8-1.85-2.36-.11-.09-.16-.2-.16-.29,0-.22.22-.4.47-.4.65,0,2.47,2.23,2.47,2.79,0,.32-.25.56-.5.56-.16,0-.32-.09-.41-.31Z"/>
    <path class="cls-2" d="m267.46,267.9v.41c0,.72.45,1.01,1.15,1.01h1.35c2.09,0,5.46.02,6.86.02,1.06,0,1.67.45,1.67,1.33,0,.77-.5,1.98-.65,2.25-.61,1.13-1.69,1.84-3.42,1.84-.56,0-1.19-.07-1.89-.23-.2-.04-.31-.22-.31-.4,0-.23.16-.49.45-.49.05,0,.09,0,.14.02.58.16,1.13.23,1.64.23,1.04,0,1.91-.36,2.41-1.19.31-.52.61-1.53.61-1.93,0-.47-.32-.67-.97-.68-.56-.02-1.66-.02-2.88-.02s-2.57,0-3.67.02v2.56c.99,0,1.93-.02,2.43-.04.52-.02.74-.27.76-.67v-1.03c0-.25.23-.38.47-.38.25,0,.49.13.5.4v.76c0,.94-.23,1.62-1.64,1.69-.67.02-1.84.04-2.99.04s-2.32-.02-2.97-.04c-1.39-.05-1.62-.7-1.62-1.48,0-.38.02-.9.02-1.1,0-.29.23-.43.49-.43.23,0,.49.14.49.43v1.13c0,.34.14.65.68.67.52.02,1.44.04,2.43.04v-2.56l-.43.02h-.05c-1.3,0-1.96-.56-1.98-1.55v-6.03c0-.94.5-1.49,1.69-1.55.43-.02,1.17-.04,2.02-.04.11-.43.36-1.42.36-1.42.05-.22.29-.32.52-.32.27,0,.54.14.54.41,0,.18-.25.9-.41,1.33,1.21,0,2.41.02,3.02.04,1.33.04,1.64.77,1.67,1.22.02.2.02.52.02.86,0,.47,0,.99-.02,1.24-.02.77-.4,1.44-1.69,1.48-.72.02-2.34.04-3.91.04-1.1,0-2.18-.02-2.9-.02v1.3h11.2c.25,0,.38.2.38.4s-.13.4-.38.4h-11.2Zm.02-4.16c0,.42-.02.86-.02,1.35.56,0,1.44.02,2.4.02,1.66,0,3.51-.02,4.23-.05.67-.04.94-.36.95-.85,0-.13.02-.29.02-.47h-7.58Zm7.58-.68c0-.92-.09-1.3-.95-1.33-.47-.02-1.6-.04-2.75-.04s-2.32.02-2.86.04c-.7.02-.97.36-.99.96,0,.13-.02.25-.02.38h7.58Z"/>
    <path class="cls-2" d="m282.63,262.95c-.29,0-.45-.23-.45-.45,0-.23.16-.45.45-.45l6.48.02-.02-2.25c0-.32.25-.47.52-.47.25,0,.5.14.5.47l-.02,2.25,6.39-.02c.31,0,.45.22.45.45,0,.22-.14.45-.45.45h-13.86Zm12.75,8.41c0,1.17-.68,1.93-2.21,1.93-.38,0-.81-.05-1.3-.14-.23-.05-.34-.23-.34-.43,0-.25.16-.5.4-.5h.07c.45.09.83.13,1.17.13.79,0,1.22-.27,1.22-.99v-.04c0-.13,0-3.49-.02-4.07-.02-.59-.32-1.01-1.04-1.03-.88-.02-2.03-.02-3.22-.02l.02,8.26c0,.32-.25.49-.5.49s-.5-.16-.5-.49v-8.26c-1.13,0-2.21.02-3.06.02-.72,0-1.08.4-1.1,1.1-.02.34-.02,1.26-.02,2.25,0,1.39,0,2.95.02,3.55v.02c0,.29-.23.43-.49.43s-.5-.14-.5-.47c0-.5-.02-1.73-.02-2.97s.02-2.5.02-3.02c.02-1.01.63-1.71,1.95-1.73.94-.02,2.05-.02,3.21-.02l.02-1.53c0-.29.23-.43.49-.43.23,0,.49.14.49.43v1.53c1.17,0,2.36,0,3.44.02,1.13.02,1.78.65,1.82,1.73.02.5.02,2.05.02,3.04v1.22Z"/>
  </g>
</svg>