<?xml version="1.0" encoding="UTF-8"?>
<svg id="_レイヤー_1" data-name=" レイヤー 1" xmlns="http://www.w3.org/2000/svg" viewBox="0 0 559 330">
  <defs>
    <style>
      .cls-1 {
        fill: #33d130;
      }
    </style>
  </defs>
  <path class="cls-1" d="m-133.18,165.04l3.06-18.33,3.05-10.7,9.17-9.17,6.11-6.11h13.75l12.22-10.7h11.71l8.16,3.06h6.11l12.22-7.64,13.75-6.11h10.7l7.64,4.59H-4.83l10.18-4.59,6.62-3.06h13.07l6.79,7.64,12.22,1.54,10.7,9.17,10.7-1.54,7.64-6.11h30.56l6.11,1.54,2.89-12.22,15.44-4.59,15.28,19.86,22.92,10.7,22.92,10.7,16.81-13.75,3.06-13.75v-13.75l15.28-27.52,19.86-4.59h15.1l9.33-13.75,19.86-6.11,42.78-4.59,15.28,6.11h9.17l6.11-1.54h6.11l6.11-4.59-12.22-6.11,24.46-10.7v14.78l3.06,9.68v7.99l-9.17,5.76,6.11,12.22,10.7,12.22,18.5,10.7,9,4.59,10.7,3.06,12.22,1.54-4.59,16.81-9.17,13.75-12.22,19.86-9.17-4.59-12.22-1.54,13.75,10.7,15.28,6.11v7.64l-6.11,6.11h-8.82l-7.99,10.7-1.54,13.75-9.17-6.11,4.59,16.81h3.91l.68,27.52-73.36-32.09-24.46,1.54,32.09,10.7,13.75,7.64,21.41,12.22,21.41,12.22-3.06,15.28-6.11,7.64-12.22-4.59-5.43,4.59,5.43,6.11h14.93l6.45,6.11-1.54,7.64s-1.69-3.06-6.96,0c-5.25,3.06-9.85,3.06-9.85,3.06l9.17,7.64h6.79l-6.79,6.11,4.59,9.17h6.96l2.21,7.64-6.11,3.06,3.06,12.22h3.57l-2.03,6.11,6.11,9.17h8.82l3.39,3.06,21.41-9.17-6.11-3.06,1.54-12.22,13.75,5.25,7.64,13.07,12.22,27.52,4.59,13.75,12.22,13.75h7.48l20.03,9.17-12.22,7.64h7.14l-16.3,10.7h26.49l7.14,10.7h-22.07l17.49,7.64-3.06,22.92-.85,7.64h-11.56l-7.48,13.75-1.54,9.17-6.11,4.59-7.64,3.06h-16.64l2.89,7.64s3.06,3.06,3.06,4.59-9.17,3.06-9.17,3.06h-17.16l-7.31,19.86,12.22-6.11,6.11-4.59-1.54,10.7,3.06,6.11-4.59,7.64-1.54,3.06,19.86-3.06s1.54-1.54,9.17-1.54,16.81-3.06,16.81-3.06h32.09s13.75,9.17,10.7,10.7c-3.06,1.54-13.59,0-13.59,0,0,0-12.39,1.54-15.44,3.06-3.06,1.54-9.17,4.59-9.17,4.59v6.11s4.93-1.54,6.28,0c1.36,1.54,11.21,1.54,16.98,0,5.76-1.54,8.82-1.54,11.88-1.54s10.7-3.06,10.7-3.06l13.75-7.64,9.17,3.06,6.11,10.31s-18.33,9.55-19.86,9.55-15.28,4.59-15.28,4.59l-13.75,10.7s-10.7,3.06-13.75,4.59-12.22,6.11-13.75,7.64-39.73,21.41-39.73,21.41l-6.11,3.06-3.06,7.64h-5.76l-.35-4.59h-16.81l-9.17,7.64-6.11,7.64-6.11,7.64-4.59,4.59s-1.36-1.54-3.74,0c-2.37,1.54-6.96-3.06-6.96-3.06l-9.17-1.54-3.57,4.89-10.18,5.81,7.64,10.7-3.06,7.64-3.06,9.17-4.59,9.17-4.59,4.59-9.17-6.11,1.54-9.17s-6.11,3.06-6.11,4.59-3.06,4.59-3.06,4.59l-6.79,6.11.68,6.11,3.06,7.64-13.75,6.11-7.64,7.64-13.75,9.17-12.22,9.17-9.17,4.59-10.7,4.59s-3.06,1.54-6.11,6.11c-3.06,4.59-12.22,9.17-12.22,9.17l-15.28,6.11-9.17,9.17h-9.17l-4.59,6.11h-13.75l-7.64,3.06-7.64,7.64-4.59,4.59-4.59-3.06h-4.59l-9.17,7.64-12.22,7.64-6.11,7.64-7.64,7.64-9.17,9.17,22.92,4.59h5.6l-5.6,9.17-10.7,7.64-12.22,13.75-7.64,7.64,13.75,7.64-3.06,6.11h-32.25l-2.89,3.06h17.84l8.16,4.59-1.54,4.59h-26.32l-10.36-4.59h-6.11l-6.11,7.64-6.11,4.59-1.54,10.7,4.59,6.11,9.17,6.11-3.06,10.7-7.64,3.06-6.11-10.7s-7.64-3.06-10.7-3.06-12.22-3.06-16.81-3.06-10.7-1.54-10.7-1.54l-7.64,6.11H2.75l-22.92-1.54-7.64-7.64-16.81-9.17-21.41,7.64-6.11-15.28s1.54-10.7-4.59-13.75c-6.11-3.06-18.33-15.28-18.33-15.28,0,0,3.06-13.75,1.54-15.28s-12.22-6.11-12.22-6.11l-7.64-9.17-6.11-16.81,10.7-7.64,18.33-12.22,6.11-12.22-7.64-7.64-1.54-25.98,4.59-4.59s-7.64-6.79-9.17-7.99c-1.54-1.2-13.75-2.71-13.75-2.71h-18.33l-13.75-12.22h-16.81l-27.52,6.11-18.33,3.06h-12.22c-4.59,0-6.11-6.11-6.11-6.11l4.59-10.7s3.06-10.7,3.06-13.75v-27.52l-7.64-12.22s1.54-10.02,0-14.93c-1.54-4.93,0-16.3,0-16.3,0,0,3.06-13.24,0-16.98s-6.11-12.9-6.11-12.9l-6.11-7.64v-8.65l-7.64-8.16-3.06-16.81s-4.59-6.11-4.59-7.64,4.59-10.88,0-11.56-3.06-.68-9.17-.68-24.46,6.11-24.46,6.11l-16.81,4.59-7.64-24.46-22.92,4.59s-15.28,6.11-13.75,7.64-.11,9-.11,9v10.18l-9.06,22.07h-13.75c-1.54,0-16.81,6.11-16.81,6.11l-10.7,4.59-15.28-7.64-7.64-7.64-16.81-3.06-7.64-7.64s-15.28-27.52-16.81-29.03c-1.54-1.54-9.17-7.64-9.17-7.64l-12.22-13.75s-13.75,3.06-18.33,7.64c-4.59,4.59-10.7,7.64-10.7,7.64h-15.21l-24.46-4.59s-10.7,1.54-15.28,1.54-12.22,1.54-12.22,1.54c0,0-9.17-1.54-10.7-4.59s-7.64-12.22-7.64-12.22h-33.62l-25.98-7.64-12.22-9.17-19.86-25.98,18.33-12.22,4.08-6.88v-14.53l.51-4.59,1.54-6.11,7.64-3.06,6.11-7.64-7.64-4.59-6.11-6.11,3.06-10.7,9.17-9.17,4.59-4.59,1.54-3.06-3.06-6.11-3.06-13.75s-6.11-3.06-6.11-4.59v-13.75c0-1.54-4.59-10.7-4.59-10.7l1.54-10.7,7.64-16.81-4.59-13.75,30.56-4.59,12.22-4.59,7.64-29.03,18.33-21.41,16.81-7.64,10.7-15.28,10.7-3.06,9.17-12.22,7.64,3.06,4.59,9.17,6.11,4.59h9.17l13.75-4.59v-16.81l4.59-12.22,18.33-4.59h4.59l6.11,1.54,6.11-10.7s9.17-1.54,10.7,0,12.22,3.06,12.22,3.06l18.33-6.11h7.64s9.17,1.54,9.17,4.59,9.17-3.06,9.17-3.06l9.17-6.11,7.64-6.11,15.28-1.54,3.06,16.81,10.7,16.81,6.11,4.59s6.11,1.54,9.17,4.59l9.17,9.17,15.28,4.59,15.28,3.06,6.11-7.64,4.59-9.17,19.86-1.54,6.11-7.64,3.06-9.17,7.64-6.11,10.7-9.17,3.06-16.81,12.22,9.17h6.11l15.28-6.11s15.28,4.59,16.81,4.59,13.75-1.54,13.75-1.54l15.28-6.11,15.28-10.7,4.59-9.17.02-.15-.03.03Z"/>
  <path class="cls-1" d="m394.04,48.9v-11.71l-3.06-8.16s-1.54-7.64,3.06-10.7,9.17-12.22,9.17-12.22L413.91,0s4.59,4.59,4.59,7.64,3.22,10.7,3.22,10.7c0,0,1.69,4.59,0,6.11-1.69,1.54-10.88,4.59-10.88,4.59,0,0-2.37,5.76-4.25,7.48-1.86,1.69-4.93,7.82-4.93,9.33s-7.64,3.06-7.64,3.06l.02-.02h-.01Z"/>
  <polygon class="cls-1" points="406.59 74.53 396.58 74.53 390.72 65.71 390.72 60.28 403.2 59.59 409.31 55.01 416.27 55.01 416.27 58.91 406.59 64.77 413.56 64.77 406.59 74.53"/>
  <path class="cls-1" d="m432.23,93.22l-6.11-9.17-9.85-4.77-3.39-4.77,6.11-9.76,7.14-5.17,1.03-10.7h-7.48l.35-10.7,6.45-13.75,5.76,5.25,11.21-5.25,10.18-6.11-7.64,15.28-9.33,21.41-3.39,9.76s-2.03,7.22,0,12.48-1.03,15.96-1.03,15.96v.02h0Z"/>
  <path class="cls-1" d="m400.15,276.58h-5.6l5.6-15.28h12.74s.17,9.17-6.28,12.22l-6.45,3.06h0Z"/>
</svg>