<?xml version="1.0" encoding="UTF-8"?><svg id="_レイヤー_1" xmlns="http://www.w3.org/2000/svg" viewBox="0 0 559 330"><defs><style>.cls-1{fill:#33d130;}</style></defs><path class="cls-1" d="M187.48-58.74l1.43-8.58,1.43-5.01,4.29-4.29,2.86-2.86h6.44l5.72-5.01h5.48l3.82,1.43h2.86l5.72-3.58,6.44-2.86h5.01l3.58,2.15h5.01l4.77-2.15,3.1-1.43h6.12l3.18,3.58,5.72,.72,5.01,4.29,5.01-.72,3.58-2.86h14.31l2.86,.72,1.35-5.72,7.23-2.15,7.15,9.3,10.73,5.01,10.73,5.01,7.87-6.44,1.43-6.44v-6.44l7.15-12.88,9.3-2.15h7.07l4.37-6.44,9.3-2.86,20.03-2.15,7.15,2.86h4.29l2.86-.72h2.86l2.86-2.15-5.72-2.86,11.45-5.01v6.92l1.43,4.53v3.74l-4.29,2.7,2.86,5.72,5.01,5.72,8.66,5.01,4.21,2.15,5.01,1.43,5.72,.72-2.15,7.87-4.29,6.44-5.72,9.3-4.29-2.15-5.72-.72,6.44,5.01,7.15,2.86v3.58l-2.86,2.86h-4.13l-3.74,5.01-.72,6.44-4.29-2.86,2.15,7.87h1.83l.32,12.88-34.34-15.02-11.45,.72,15.02,5.01,6.44,3.58,10.02,5.72,10.02,5.72-1.43,7.15-2.86,3.58-5.72-2.15-2.54,2.15,2.54,2.86h6.99l3.02,2.86-.72,3.58s-.79-1.43-3.26,0c-2.46,1.43-4.61,1.43-4.61,1.43l4.29,3.58h3.18l-3.18,2.86,2.15,4.29h3.26l1.03,3.58-2.86,1.43,1.43,5.72h1.67l-.95,2.86,2.86,4.29h4.13l1.59,1.43,10.02-4.29-2.86-1.43,.72-5.72,6.44,2.46,3.58,6.12,5.72,12.88,2.15,6.44,5.72,6.44h3.5l9.38,4.29-5.72,3.58h3.34l-7.63,5.01h12.4l3.34,5.01h-10.33l8.19,3.58-1.43,10.73-.4,3.58h-5.41l-3.5,6.44-.72,4.29-2.86,2.15-3.58,1.43h-7.79l1.35,3.58s1.43,1.43,1.43,2.15-4.29,1.43-4.29,1.43h-8.03l-3.42,9.3,5.72-2.86,2.86-2.15-.72,5.01,1.43,2.86-2.15,3.58-.72,1.43,9.3-1.43s.72-.72,4.29-.72,7.87-1.43,7.87-1.43h15.02s6.44,4.29,5.01,5.01c-1.43,.72-6.36,0-6.36,0,0,0-5.8,.72-7.23,1.43-1.43,.72-4.29,2.15-4.29,2.15v2.86s2.31-.72,2.94,0c.64,.72,5.25,.72,7.95,0,2.7-.72,4.13-.72,5.56-.72s5.01-1.43,5.01-1.43l6.44-3.58,4.29,1.43,2.86,4.83s-8.58,4.47-9.3,4.47-7.15,2.15-7.15,2.15l-6.44,5.01s-5.01,1.43-6.44,2.15-5.72,2.86-6.44,3.58c-.72,.72-18.6,10.02-18.6,10.02l-2.86,1.43-1.43,3.58h-2.7l-.16-2.15h-7.87l-4.29,3.58-2.86,3.58-2.86,3.58-2.15,2.15s-.64-.72-1.75,0c-1.11,.72-3.26-1.43-3.26-1.43l-4.29-.72-1.67,2.29-4.77,2.72,3.58,5.01-1.43,3.58-1.43,4.29-2.15,4.29-2.15,2.15-4.29-2.86,.72-4.29s-2.86,1.43-2.86,2.15-1.43,2.15-1.43,2.15l-3.18,2.86,.32,2.86,1.43,3.58-6.44,2.86-3.58,3.58-6.44,4.29-5.72,4.29-4.29,2.15-5.01,2.15s-1.43,.72-2.86,2.86c-1.43,2.15-5.72,4.29-5.72,4.29l-7.15,2.86-4.29,4.29h-4.29l-2.15,2.86h-6.44l-3.58,1.43-3.58,3.58-2.15,2.15-2.15-1.43h-2.15l-4.29,3.58-5.72,3.58-2.86,3.58-3.58,3.58-4.29,4.29,10.73,2.15h2.62l-2.62,4.29-5.01,3.58-5.72,6.44-3.58,3.58,6.44,3.58-1.43,2.86h-15.1l-1.35,1.43h8.35l3.82,2.15-.72,2.15h-12.32l-4.85-2.15h-2.86l-2.86,3.58-2.86,2.15-.72,5.01,2.15,2.86,4.29,2.86-1.43,5.01-3.58,1.43-2.86-5.01s-3.58-1.43-5.01-1.43-5.72-1.43-7.87-1.43-5.01-.72-5.01-.72l-3.58,2.86h-6.44l-10.73-.72-3.58-3.58-7.87-4.29-10.02,3.58-2.86-7.15s.72-5.01-2.15-6.44c-2.86-1.43-8.58-7.15-8.58-7.15,0,0,1.43-6.44,.72-7.15-.72-.72-5.72-2.86-5.72-2.86l-3.58-4.29-2.86-7.87,5.01-3.58,8.58-5.72,2.86-5.72-3.58-3.58-.72-12.16,2.15-2.15s-3.58-3.18-4.29-3.74c-.72-.56-6.44-1.27-6.44-1.27h-8.58l-6.44-5.72h-7.87l-12.88,2.86-8.58,1.43h-5.72c-2.15,0-2.86-2.86-2.86-2.86l2.15-5.01s1.43-5.01,1.43-6.44v-12.88l-3.58-5.72s.72-4.69,0-6.99c-.72-2.31,0-7.63,0-7.63,0,0,1.43-6.2,0-7.95-1.43-1.75-2.86-6.04-2.86-6.04l-2.86-3.58v-4.05l-3.58-3.82-1.43-7.87s-2.15-2.86-2.15-3.58,2.15-5.09,0-5.41c-2.15-.32-1.43-.32-4.29-.32s-11.45,2.86-11.45,2.86l-7.87,2.15-3.58-11.45-10.73,2.15s-7.15,2.86-6.44,3.58-.05,4.21-.05,4.21v4.77l-4.24,10.33h-6.44c-.72,0-7.87,2.86-7.87,2.86l-5.01,2.15-7.15-3.58-3.58-3.58-7.87-1.43-3.58-3.58s-7.15-12.88-7.87-13.59c-.72-.72-4.29-3.58-4.29-3.58l-5.72-6.44s-6.44,1.43-8.58,3.58c-2.15,2.15-5.01,3.58-5.01,3.58H2.91l-11.45-2.15s-5.01,.72-7.15,.72-5.72,.72-5.72,.72c0,0-4.29-.72-5.01-2.15-.72-1.43-3.58-5.72-3.58-5.72h-15.74l-12.16-3.58-5.72-4.29-9.3-12.16,8.58-5.72,1.91-3.22v-6.8l.24-2.15,.72-2.86,3.58-1.43,2.86-3.58-3.58-2.15-2.86-2.86,1.43-5.01,4.29-4.29,2.15-2.15,.72-1.43-1.43-2.86-1.43-6.44s-2.86-1.43-2.86-2.15v-6.44c0-.72-2.15-5.01-2.15-5.01l.72-5.01,3.58-7.87-2.15-6.44,14.31-2.15,5.72-2.15,3.58-13.59L-26.42-6.52l7.87-3.58,5.01-7.15,5.01-1.43,4.29-5.72,3.58,1.43,2.15,4.29,2.86,2.15h4.29l6.44-2.15v-7.87l2.15-5.72,8.58-2.15h2.15l2.86,.72,2.86-5.01s4.29-.72,5.01,0c.72,.72,5.72,1.43,5.72,1.43l8.58-2.86h3.58s4.29,.72,4.29,2.15,4.29-1.43,4.29-1.43l4.29-2.86,3.58-2.86,7.15-.72,1.43,7.87,5.01,7.87,2.86,2.15s2.86,.72,4.29,2.15c1.43,1.43,4.29,4.29,4.29,4.29l7.15,2.15,7.15,1.43,2.86-3.58,2.15-4.29,9.3-.72,2.86-3.58,1.43-4.29,3.58-2.86,5.01-4.29,1.43-7.87,5.72,4.29h2.86l7.15-2.86s7.15,2.15,7.87,2.15,6.44-.72,6.44-.72l7.15-2.86,7.15-5.01,2.15-4.29Z"/><polygon class="cls-1" points="284.06 326.14 287.63 329 289.86 326.14 286.96 323.99 284.06 326.14"/><polygon class="cls-1" points="341.29 263.9 341.29 268.03 344.15 268.19 344.15 266.05 341.29 263.9"/><path class="cls-1" d="M376.34,260.32v3.58l-1.27,2.15s1.51-.72,3.18,0c1.67,.72,3.5,2.15,3.5,2.15,0,0,.64,.72,1.91,0,1.27-.72,2.7-5.72,2.7-5.72,0,0-3.42,.32-5.64,.16s-4.37-2.31-4.37-2.31Z"/><polygon class="cls-1" points="552.32 132.27 550.18 130.12 550.18 125.27 553.44 125.27 555.19 122.97 556.62 120.82 558.84 126.55 556.62 127.98 557.57 132.27 552.32 132.27"/><polygon class="cls-1" points="465.76 125.12 465.76 120.82 467.91 117.25 473.63 115.82 473.63 118.92 469.7 120.82 469.7 125.12 465.76 125.12"/><polygon class="cls-1" points="514.41 128.69 509.88 128.69 512.14 123.68 518.15 126.19 515.92 128.69 514.41 128.69"/><polygon class="cls-1" points="544.46 130.84 541.04 126.55 544.46 125.12 550.18 132.27 547.32 133.7 544.46 130.84"/></svg>